<svg width="383" height="447" viewBox="0 0 383 447" fill="none" xmlns="http://www.w3.org/2000/svg">
<rect width="383" height="447" rx="64" fill="#1C468A"/>
<rect x="86" y="317" width="214" height="64" rx="32" fill="#FC8900"/>
<path d="M153.316 346.6V348.584H155.732V350.392C155.124 350.824 154.34 351.048 153.364 351.048C151.06 351.048 149.7 349.688 149.7 347.448C149.7 345.272 151.044 343.8 153.076 343.8C154.18 343.8 155.124 344.232 155.748 345.064L157.604 343.752C156.692 342.36 155.076 341.576 153.092 341.576C149.668 341.544 147.188 344.072 147.236 347.432C147.236 350.792 149.572 353.224 153.252 353.224C155.252 353.224 157.012 352.504 157.924 351.336V346.6H153.316ZM167.534 349.592C167.566 349.32 167.582 349.048 167.582 348.808C167.582 346.28 165.982 344.616 163.566 344.616C161.07 344.616 159.39 346.424 159.39 348.952C159.39 351.544 161.15 353.224 163.79 353.224C165.278 353.224 166.494 352.696 167.278 351.752L165.982 350.408C165.438 351 164.734 351.288 163.87 351.288C162.654 351.288 161.886 350.728 161.678 349.592H167.534ZM161.678 348.12C161.87 347.096 162.542 346.536 163.582 346.536C164.622 346.536 165.246 347.096 165.326 348.12H161.678ZM169.839 350.472C169.839 352.328 170.703 353.112 172.687 353.112C173.279 353.112 173.823 353.048 174.319 352.904V350.968C173.983 351.048 173.615 351.096 173.215 351.096C172.399 351.096 172.111 350.84 172.111 350.12V346.824H174.287V344.84H172.111V342.44H169.839V344.84H168.351V346.824H169.839V350.472ZM178.902 350.728C179.686 352.28 181.462 353.224 183.718 353.224C186.502 353.224 188.134 351.8 188.134 349.688C188.134 348.04 187.11 346.984 185.078 346.488L183.222 346.056C182.022 345.752 181.606 345.416 181.606 344.856C181.606 344.152 182.246 343.688 183.462 343.688C184.63 343.688 185.542 344.088 186.198 344.904L187.845 343.624C187.126 342.36 185.494 341.576 183.494 341.576C180.822 341.576 179.206 342.952 179.206 344.904C179.206 346.504 180.262 347.608 182.374 348.12L184.182 348.552C185.318 348.808 185.734 349.192 185.734 349.816C185.734 350.632 185.046 351.112 183.782 351.112C182.39 351.112 181.222 350.504 180.566 349.464L178.902 350.728ZM190.433 350.472C190.433 352.328 191.297 353.112 193.281 353.112C193.873 353.112 194.417 353.048 194.913 352.904V350.968C194.577 351.048 194.209 351.096 193.809 351.096C192.993 351.096 192.705 350.84 192.705 350.12V346.824H194.881V344.84H192.705V342.44H190.433V344.84H188.945V346.824H190.433V350.472ZM202.304 344.84V346.056C201.84 345.16 200.8 344.616 199.632 344.616C197.504 344.616 195.952 346.392 195.952 348.92C195.952 351.448 197.504 353.224 199.632 353.224C200.8 353.224 201.84 352.68 202.304 351.784V353H204.544V344.84H202.304ZM202.352 348.92C202.352 350.28 201.568 351.176 200.304 351.176C199.04 351.176 198.256 350.28 198.256 348.92C198.256 347.56 199.04 346.664 200.304 346.664C201.568 346.664 202.352 347.56 202.352 348.92ZM211.993 344.792C211.801 344.712 211.577 344.68 211.305 344.68C210.217 344.68 209.337 345.24 208.937 346.184V344.84H206.713V353H208.985V349.048C208.985 347.512 209.609 346.856 211.001 346.856C211.321 346.856 211.657 346.888 211.993 346.952V344.792ZM214.417 350.472C214.417 352.328 215.281 353.112 217.265 353.112C217.857 353.112 218.401 353.048 218.897 352.904V350.968C218.561 351.048 218.193 351.096 217.793 351.096C216.977 351.096 216.689 350.84 216.689 350.12V346.824H218.865V344.84H216.689V342.44H214.417V344.84H212.929V346.824H214.417V350.472ZM228.081 349.592C228.113 349.32 228.128 349.048 228.128 348.808C228.128 346.28 226.529 344.616 224.113 344.616C221.617 344.616 219.937 346.424 219.937 348.952C219.937 351.544 221.697 353.224 224.337 353.224C225.825 353.224 227.041 352.696 227.825 351.752L226.529 350.408C225.985 351 225.281 351.288 224.417 351.288C223.201 351.288 222.433 350.728 222.225 349.592H228.081ZM222.225 348.12C222.417 347.096 223.089 346.536 224.129 346.536C225.169 346.536 225.793 347.096 225.873 348.12H222.225ZM235.663 341.288V345.992C235.167 345.112 234.175 344.616 233.023 344.616C230.895 344.616 229.343 346.392 229.343 348.92C229.343 351.448 230.895 353.224 233.023 353.224C234.191 353.224 235.231 352.68 235.695 351.784V353H237.935V341.288H235.663ZM235.743 348.92C235.743 350.28 234.959 351.176 233.695 351.176C232.431 351.176 231.647 350.28 231.647 348.92C231.647 347.56 232.431 346.664 233.695 346.664C234.959 346.664 235.743 347.56 235.743 348.92Z" fill="white"/>
<path d="M71.5718 121.396C73.6358 126.244 78.5318 129.172 85.2998 129.172C93.3158 129.172 97.9718 125.14 97.9718 119.14C97.9718 114.532 95.0438 111.556 88.6598 110.02L83.2358 108.676C79.0118 107.716 77.3798 106.228 77.3798 103.732C77.3798 100.468 80.1158 98.5 84.7238 98.5C88.7078 98.5 91.8758 99.988 93.5558 102.724L97.1558 100.372C95.3798 96.676 90.7718 94.228 84.7718 94.228C77.2358 94.228 72.5798 98.212 72.5798 103.78C72.5798 108.34 75.6998 111.364 81.9398 112.852L87.3638 114.148C91.3958 115.156 93.1238 116.788 93.1238 119.332C93.1238 122.74 90.1958 124.9 85.3958 124.9C80.7398 124.9 77.0438 122.836 75.2678 119.14L71.5718 121.396ZM122.869 104.164V108.484C121.477 105.412 118.069 103.492 114.085 103.492C107.461 103.492 102.565 108.82 102.565 116.356C102.565 123.844 107.461 129.172 114.085 129.172C118.069 129.172 121.477 127.252 122.869 124.18V128.5H127.381V104.164H122.869ZM123.061 116.356C123.061 118.9 122.341 120.964 120.901 122.596C119.461 124.18 117.541 124.996 115.189 124.996C112.837 124.996 110.917 124.18 109.429 122.596C107.989 120.964 107.269 118.9 107.269 116.356C107.269 113.812 107.989 111.7 109.429 110.116C110.917 108.484 112.837 107.668 115.189 107.668C119.941 107.668 123.061 111.22 123.061 116.356ZM135.651 128.5H140.163V93.364H135.651V128.5ZM167.025 104.164V108.484C165.633 105.412 162.225 103.492 158.241 103.492C151.617 103.492 146.721 108.82 146.721 116.356C146.721 123.844 151.617 129.172 158.241 129.172C162.225 129.172 165.633 127.252 167.025 124.18V128.5H171.537V104.164H167.025ZM167.217 116.356C167.217 118.9 166.497 120.964 165.057 122.596C163.617 124.18 161.697 124.996 159.345 124.996C156.993 124.996 155.073 124.18 153.585 122.596C152.145 120.964 151.425 118.9 151.425 116.356C151.425 113.812 152.145 111.7 153.585 110.116C155.073 108.484 156.993 107.668 159.345 107.668C164.097 107.668 167.217 111.22 167.217 116.356ZM193.824 104.116C193.2 103.876 192.48 103.78 191.664 103.78C188.16 103.78 185.472 105.508 184.32 108.532V104.164H179.808V128.5H184.32V116.164C184.32 110.644 186.912 108.004 191.568 108.004C192.384 108.004 193.152 108.052 193.824 108.196V104.116ZM215.723 104.164V117.796C215.723 121.684 212.795 124.276 208.571 124.276C204.971 124.276 203.291 122.404 203.291 117.988V104.164H198.779V119.092C198.779 125.092 201.947 128.452 207.323 128.452C211.211 128.452 214.331 126.724 215.723 123.796V126.1C215.723 131.812 212.987 134.644 207.995 134.644C205.163 134.644 202.427 133.684 200.459 131.956L198.011 135.172C200.315 137.476 204.011 138.772 208.187 138.772C215.867 138.772 220.235 134.308 220.235 126.1V104.164H215.723ZM254.479 105.46C254.479 98.884 250.303 94.9 242.959 94.9H229.183V128.5H233.887V115.972H242.959C250.303 115.972 254.479 112.036 254.479 105.46ZM249.583 105.46C249.583 109.732 247.471 111.652 242.623 111.652H233.887V99.22H242.623C247.471 99.22 249.583 101.092 249.583 105.46ZM278.682 104.164V108.484C277.29 105.412 273.882 103.492 269.898 103.492C263.274 103.492 258.378 108.82 258.378 116.356C258.378 123.844 263.274 129.172 269.898 129.172C273.882 129.172 277.29 127.252 278.682 124.18V128.5H283.194V104.164H278.682ZM278.874 116.356C278.874 118.9 278.154 120.964 276.714 122.596C275.274 124.18 273.354 124.996 271.002 124.996C268.65 124.996 266.73 124.18 265.242 122.596C263.802 120.964 263.082 118.9 263.082 116.356C263.082 113.812 263.802 111.7 265.242 110.116C266.73 108.484 268.65 107.668 271.002 107.668C275.754 107.668 278.874 111.22 278.874 116.356ZM307.832 104.164V117.796C307.832 121.684 304.904 124.276 300.68 124.276C297.08 124.276 295.4 122.404 295.4 117.988V104.164H290.888V119.092C290.888 125.092 294.056 128.452 299.432 128.452C303.32 128.452 306.44 126.724 307.832 123.796V126.1C307.832 131.812 305.096 134.644 300.104 134.644C297.272 134.644 294.536 133.684 292.568 131.956L290.12 135.172C292.424 137.476 296.12 138.772 300.296 138.772C307.976 138.772 312.344 134.308 312.344 126.1V104.164H307.832ZM83.0599 167.7C83.0599 157.284 76.2439 150.9 66.4999 150.9H53.6359V184.5H66.4999C76.2439 184.5 83.0599 178.116 83.0599 167.7ZM78.1159 167.7C78.1159 175.62 73.7959 180.132 66.4999 180.132H58.3399V155.268H66.4999C73.7959 155.268 78.1159 159.78 78.1159 167.7ZM108.76 160.164V164.484C107.368 161.412 103.96 159.492 99.9758 159.492C93.3518 159.492 88.4558 164.82 88.4558 172.356C88.4558 179.844 93.3518 185.172 99.9758 185.172C103.96 185.172 107.368 183.252 108.76 180.18V184.5H113.272V160.164H108.76ZM108.952 172.356C108.952 174.9 108.232 176.964 106.792 178.596C105.352 180.18 103.432 180.996 101.08 180.996C98.7278 180.996 96.8078 180.18 95.3198 178.596C93.8798 176.964 93.1598 174.9 93.1598 172.356C93.1598 169.812 93.8798 167.7 95.3198 166.116C96.8078 164.484 98.7278 163.668 101.08 163.668C105.832 163.668 108.952 167.22 108.952 172.356ZM137.91 160.164V173.796C137.91 177.684 134.982 180.276 130.758 180.276C127.158 180.276 125.478 178.404 125.478 173.988V160.164H120.966V175.092C120.966 181.092 124.134 184.452 129.51 184.452C133.398 184.452 136.518 182.724 137.91 179.796V182.1C137.91 187.812 135.174 190.644 130.182 190.644C127.35 190.644 124.614 189.684 122.646 187.956L120.198 191.172C122.502 193.476 126.198 194.772 130.374 194.772C138.054 194.772 142.422 190.308 142.422 182.1V160.164H137.91ZM180.291 160.164V164.436C178.899 161.412 175.491 159.492 171.507 159.492C164.883 159.492 159.987 164.676 159.987 171.972C159.987 179.316 164.883 184.452 171.507 184.452C175.539 184.452 178.899 182.628 180.291 179.604V181.716C180.291 187.62 177.315 190.644 171.939 190.644C168.675 190.644 165.603 189.444 163.347 187.476L160.899 190.788C163.395 193.284 167.427 194.772 172.035 194.772C180.147 194.772 184.803 190.116 184.803 181.716V160.164H180.291ZM180.483 171.972C180.483 174.42 179.763 176.388 178.323 177.972C176.883 179.556 174.963 180.324 172.611 180.324C167.859 180.324 164.691 176.916 164.691 171.972C164.691 169.524 165.411 167.556 166.851 166.02C168.339 164.436 170.259 163.668 172.611 163.668C174.963 163.668 176.883 164.436 178.323 166.02C179.763 167.556 180.483 169.524 180.483 171.972ZM191.393 172.356C191.393 179.412 196.433 185.172 204.017 185.172C211.505 185.172 216.593 179.412 216.593 172.356C216.593 165.348 211.505 159.492 204.017 159.492C196.433 159.492 191.393 165.348 191.393 172.356ZM211.889 172.356C211.889 174.9 211.169 176.964 209.729 178.596C208.289 180.18 206.369 180.996 204.017 180.996C201.665 180.996 199.745 180.18 198.257 178.596C196.817 176.964 196.097 174.9 196.097 172.356C196.097 169.812 196.817 167.7 198.257 166.116C199.745 164.484 201.665 163.668 204.017 163.668C208.769 163.668 211.889 167.22 211.889 172.356ZM224.57 178.02C224.57 182.58 227.114 184.884 232.154 184.884C233.738 184.884 235.226 184.692 236.618 184.26V180.468C235.226 180.756 233.978 180.9 232.874 180.9C230.186 180.9 229.082 179.94 229.082 177.588V164.052H236.522V160.164H229.082V152.964H224.57V160.164H219.77V164.052H224.57V178.02ZM269.863 160.164V173.796C269.863 177.684 266.935 180.276 262.711 180.276C259.111 180.276 257.431 178.404 257.431 173.988V160.164H252.919V175.092C252.919 181.092 256.087 184.452 261.463 184.452C265.351 184.452 268.471 182.724 269.863 179.796V182.1C269.863 187.812 267.127 190.644 262.135 190.644C259.303 190.644 256.567 189.684 254.599 187.956L252.151 191.172C254.455 193.476 258.151 194.772 262.327 194.772C270.007 194.772 274.375 190.308 274.375 182.1V160.164H269.863ZM280.971 172.356C280.971 179.412 286.011 185.172 293.595 185.172C301.083 185.172 306.171 179.412 306.171 172.356C306.171 165.348 301.083 159.492 293.595 159.492C286.011 159.492 280.971 165.348 280.971 172.356ZM301.467 172.356C301.467 174.9 300.747 176.964 299.307 178.596C297.867 180.18 295.947 180.996 293.595 180.996C291.243 180.996 289.323 180.18 287.835 178.596C286.395 176.964 285.675 174.9 285.675 172.356C285.675 169.812 286.395 167.7 287.835 166.116C289.323 164.484 291.243 163.668 293.595 163.668C298.347 163.668 301.467 167.22 301.467 172.356ZM312.265 175.38C312.265 181.236 316.537 185.172 322.873 185.172C326.089 185.172 328.681 184.308 330.601 182.532C332.521 180.756 333.481 178.356 333.481 175.38V160.164H328.969V175.044C328.969 178.932 326.761 180.996 322.873 180.996C318.985 180.996 316.777 178.932 316.777 175.044V160.164H312.265V175.38ZM95.0183 228.356C95.0183 235.748 100.154 241.172 107.594 241.172C112.058 241.172 115.802 239.252 117.866 235.844L114.362 233.396C112.874 235.748 110.522 236.996 107.642 236.996C102.89 236.996 99.7223 233.54 99.7223 228.356C99.7223 223.172 102.89 219.668 107.642 219.668C110.522 219.668 112.874 220.964 114.362 223.268L117.866 220.868C115.802 217.46 112.058 215.492 107.594 215.492C100.154 215.492 95.0183 220.916 95.0183 228.356ZM121.784 228.356C121.784 235.412 126.824 241.172 134.408 241.172C141.896 241.172 146.984 235.412 146.984 228.356C146.984 221.348 141.896 215.492 134.408 215.492C126.824 215.492 121.784 221.348 121.784 228.356ZM142.28 228.356C142.28 230.9 141.56 232.964 140.12 234.596C138.68 236.18 136.76 236.996 134.408 236.996C132.056 236.996 130.136 236.18 128.648 234.596C127.208 232.964 126.488 230.9 126.488 228.356C126.488 225.812 127.208 223.7 128.648 222.116C130.136 220.484 132.056 219.668 134.408 219.668C139.16 219.668 142.28 223.22 142.28 228.356ZM169.079 216.164L161.735 235.556L154.343 216.164H149.543L159.287 240.5H164.135L173.927 216.164H169.079ZM200.199 229.7C200.295 228.98 200.343 228.26 200.343 227.54C200.343 220.388 195.495 215.492 188.727 215.492C181.575 215.492 176.487 220.964 176.487 228.404C176.487 235.94 181.623 241.172 189.111 241.172C193.575 241.172 197.319 239.348 199.671 236.084L196.743 233.492C194.775 235.892 192.231 237.092 189.207 237.092C184.647 237.092 181.623 234.356 181.095 229.7H200.199ZM181.191 226.244C181.911 222.068 184.647 219.62 188.727 219.62C192.711 219.62 195.399 222.02 195.783 226.244H181.191ZM220.871 216.116C220.247 215.876 219.527 215.78 218.711 215.78C215.207 215.78 212.519 217.508 211.367 220.532V216.164H206.855V240.5H211.367V228.164C211.367 222.644 213.959 220.004 218.615 220.004C219.431 220.004 220.199 220.052 220.871 220.196V216.116ZM247.262 229.7C247.358 228.98 247.406 228.26 247.406 227.54C247.406 220.388 242.558 215.492 235.79 215.492C228.638 215.492 223.55 220.964 223.55 228.404C223.55 235.94 228.686 241.172 236.174 241.172C240.638 241.172 244.382 239.348 246.734 236.084L243.806 233.492C241.838 235.892 239.294 237.092 236.27 237.092C231.71 237.092 228.686 234.356 228.158 229.7H247.262ZM228.254 226.244C228.974 222.068 231.71 219.62 235.79 219.62C239.774 219.62 242.462 222.02 242.846 226.244H228.254ZM272.541 205.364V220.484C271.149 217.412 267.693 215.492 263.709 215.492C257.133 215.492 252.237 220.82 252.237 228.356C252.237 235.844 257.133 241.172 263.709 241.172C267.693 241.172 271.149 239.252 272.541 236.18V240.5H277.053V205.364H272.541ZM272.733 228.356C272.733 230.9 272.013 232.964 270.573 234.596C269.133 236.18 267.213 236.996 264.861 236.996C262.509 236.996 260.589 236.18 259.101 234.596C257.661 232.964 256.941 230.9 256.941 228.356C256.941 225.812 257.661 223.7 259.101 222.116C260.589 220.484 262.509 219.668 264.861 219.668C269.613 219.668 272.733 223.22 272.733 228.356ZM284.171 237.716C284.171 239.636 285.419 240.932 287.339 240.932C289.259 240.932 290.459 239.636 290.459 237.716C290.459 235.844 289.259 234.644 287.339 234.644C285.419 234.644 284.171 235.844 284.171 237.716Z" fill="white"/>
<path d="M32.1522 287.5H33.5602V277.612H37.3042V276.3H28.4082V277.612H32.1522V287.5ZM46.2066 282.316C46.2066 280.316 45.1666 279.18 43.3266 279.18C41.9986 279.18 40.9586 279.756 40.5106 280.78V275.788H39.1666V287.5H40.5106V282.684C40.5106 281.324 41.5506 280.428 43.0066 280.428C44.2866 280.428 44.8626 281.1 44.8626 282.636V287.5H46.2066V282.316ZM56.3059 283.868C56.3379 283.628 56.3539 283.388 56.3539 283.148C56.3539 280.796 54.7539 279.18 52.4979 279.18C50.1139 279.18 48.4499 280.988 48.4499 283.468C48.4499 285.98 50.1619 287.724 52.6099 287.724C54.0979 287.724 55.3459 287.084 56.1299 285.98L55.2179 285.212C54.5459 286.06 53.6819 286.476 52.6419 286.476C51.0579 286.476 49.9699 285.484 49.8259 283.868H56.3059ZM49.8579 282.78C50.0979 281.324 51.0739 280.428 52.4979 280.428C53.9059 280.428 54.8499 281.292 54.9779 282.78H49.8579ZM61.7312 283.452C61.7312 285.916 63.4272 287.724 65.8912 287.724C67.3792 287.724 68.5952 287.1 69.2832 285.964L68.2272 285.228C67.7312 286.044 66.9152 286.476 65.9072 286.476C65.0912 286.476 64.4192 286.204 63.9072 285.644C63.3952 285.084 63.1392 284.364 63.1392 283.452C63.1392 282.54 63.3952 281.82 63.9072 281.26C64.4192 280.7 65.0912 280.428 65.9072 280.428C66.9152 280.428 67.7312 280.86 68.2272 281.676L69.2832 280.94C68.5952 279.804 67.3792 279.18 65.8912 279.18C63.4272 279.18 61.7312 280.988 61.7312 283.452ZM70.6843 283.452C70.6523 285.74 72.3963 287.772 74.8443 287.724C77.2923 287.772 79.0363 285.74 79.0043 283.452C79.0363 281.164 77.2923 279.132 74.8443 279.18C72.3963 279.132 70.6523 281.164 70.6843 283.452ZM77.5963 283.452C77.5963 284.332 77.3403 285.068 76.8283 285.628C76.3323 286.188 75.6603 286.476 74.8443 286.476C74.0283 286.476 73.3563 286.188 72.8443 285.628C72.3483 285.068 72.0923 284.332 72.0923 283.452C72.0923 282.572 72.3483 281.836 72.8443 281.276C73.3563 280.716 74.0283 280.428 74.8443 280.428C75.6603 280.428 76.3323 280.716 76.8283 281.276C77.3403 281.836 77.5963 282.572 77.5963 283.452ZM81.1472 284.476C81.1472 286.396 82.5392 287.724 84.6352 287.724C86.7312 287.724 88.1232 286.396 88.1232 284.476V279.404H86.7792V284.396C86.7792 285.74 85.9952 286.476 84.6352 286.476C83.2752 286.476 82.4912 285.74 82.4912 284.396V279.404H81.1472V284.476ZM97.8784 282.316C97.8784 280.316 96.8384 279.18 94.9984 279.18C93.6704 279.18 92.6304 279.756 92.1824 280.78V279.404H90.8384V287.5H92.1824V282.684C92.1824 281.324 93.2224 280.428 94.6784 280.428C95.9584 280.428 96.5344 281.1 96.5344 282.636V287.5H97.8784V282.316ZM101.196 285.42C101.196 286.876 102.06 287.628 103.66 287.628C104.172 287.628 104.652 287.564 105.116 287.42V286.3C104.652 286.396 104.22 286.444 103.852 286.444C102.94 286.444 102.54 286.108 102.54 285.324V280.556H105.084V279.404H102.54V277.004H101.196V279.404H99.5801V280.556H101.196V285.42ZM113.282 275.788V280.892C112.786 279.852 111.634 279.18 110.274 279.18C108.066 279.18 106.434 280.956 106.434 283.452C106.434 285.948 108.066 287.724 110.274 287.724C111.634 287.724 112.786 287.052 113.282 286.012V287.5H114.626V275.788H113.282ZM113.346 283.452C113.346 284.332 113.09 285.068 112.578 285.628C112.082 286.188 111.41 286.476 110.594 286.476C109.778 286.476 109.106 286.188 108.594 285.628C108.098 285.068 107.842 284.332 107.842 283.452C107.842 282.572 108.098 281.836 108.594 281.276C109.106 280.716 109.778 280.428 110.594 280.428C111.41 280.428 112.082 280.716 112.578 281.276C113.09 281.836 113.346 282.572 113.346 283.452ZM116.934 283.452C116.902 285.74 118.646 287.772 121.094 287.724C123.542 287.772 125.286 285.74 125.254 283.452C125.286 281.164 123.542 279.132 121.094 279.18C118.646 279.132 116.902 281.164 116.934 283.452ZM123.846 283.452C123.846 284.332 123.59 285.068 123.078 285.628C122.582 286.188 121.91 286.476 121.094 286.476C120.278 286.476 119.606 286.188 119.094 285.628C118.598 285.068 118.342 284.332 118.342 283.452C118.342 282.572 118.598 281.836 119.094 281.276C119.606 280.716 120.278 280.428 121.094 280.428C121.91 280.428 122.582 280.716 123.078 281.276C123.59 281.836 123.846 282.572 123.846 283.452ZM137.577 279.404L135.513 285.852L133.369 279.404H131.897L129.753 285.852L127.689 279.404H126.329L128.985 287.5H130.457L132.633 280.94L134.809 287.5H136.281L138.937 279.404H137.577ZM147.769 282.316C147.769 280.316 146.729 279.18 144.889 279.18C143.561 279.18 142.521 279.756 142.073 280.78V279.404H140.729V287.5H142.073V282.684C142.073 281.324 143.113 280.428 144.569 280.428C145.849 280.428 146.425 281.1 146.425 282.636V287.5H147.769V282.316ZM154.634 285.42C154.634 286.876 155.498 287.628 157.098 287.628C157.61 287.628 158.09 287.564 158.554 287.42V286.3C158.09 286.396 157.658 286.444 157.29 286.444C156.378 286.444 155.978 286.108 155.978 285.324V280.556H158.522V279.404H155.978V277.004H154.634V279.404H153.018V280.556H154.634V285.42ZM159.872 283.452C159.84 285.74 161.584 287.772 164.032 287.724C166.48 287.772 168.224 285.74 168.192 283.452C168.224 281.164 166.48 279.132 164.032 279.18C161.584 279.132 159.84 281.164 159.872 283.452ZM166.784 283.452C166.784 284.332 166.528 285.068 166.016 285.628C165.52 286.188 164.848 286.476 164.032 286.476C163.216 286.476 162.544 286.188 162.032 285.628C161.536 285.068 161.28 284.332 161.28 283.452C161.28 282.572 161.536 281.836 162.032 281.276C162.544 280.716 163.216 280.428 164.032 280.428C164.848 280.428 165.52 280.716 166.016 281.276C166.528 281.836 166.784 282.572 166.784 283.452ZM182.374 283.452C182.374 280.956 180.742 279.18 178.534 279.18C177.174 279.18 176.022 279.852 175.526 280.892V279.404H174.182V290.7H175.526V286.012C176.022 287.052 177.174 287.724 178.534 287.724C180.742 287.724 182.374 285.948 182.374 283.452ZM180.966 283.452C180.966 284.332 180.71 285.068 180.198 285.628C179.702 286.188 179.03 286.476 178.214 286.476C177.398 286.476 176.726 286.188 176.214 285.628C175.718 285.068 175.462 284.332 175.462 283.452C175.462 282.572 175.718 281.836 176.214 281.276C176.726 280.716 177.398 280.428 178.214 280.428C179.03 280.428 179.702 280.716 180.198 281.276C180.71 281.836 180.966 282.572 180.966 283.452ZM190.954 279.404V280.892C190.49 279.852 189.322 279.18 187.962 279.18C185.738 279.18 184.106 280.956 184.106 283.452C184.106 285.948 185.738 287.724 187.962 287.724C189.322 287.724 190.49 287.052 190.954 286.012V287.5H192.298V279.404H190.954ZM191.018 283.452C191.018 284.332 190.762 285.068 190.25 285.628C189.754 286.188 189.082 286.476 188.266 286.476C187.45 286.476 186.778 286.188 186.266 285.628C185.77 285.068 185.514 284.332 185.514 283.452C185.514 282.572 185.77 281.836 186.266 281.276C186.778 280.716 187.45 280.428 188.266 280.428C189.082 280.428 189.754 280.716 190.25 281.276C190.762 281.836 191.018 282.572 191.018 283.452ZM200.702 279.404V283.996C200.702 285.34 199.646 286.252 198.174 286.252C196.91 286.252 196.318 285.58 196.318 284.044V279.404H194.974V284.364C194.974 286.396 196.046 287.5 197.854 287.5C199.182 287.5 200.238 286.924 200.702 285.9V286.716C200.702 288.684 199.742 289.676 198.062 289.676C197.102 289.676 196.174 289.34 195.518 288.748L194.734 289.708C195.486 290.476 196.734 290.924 198.094 290.924C200.59 290.924 202.046 289.452 202.046 286.716V279.404H200.702ZM211.204 275.788V280.892C210.708 279.852 209.556 279.18 208.196 279.18C205.988 279.18 204.356 280.956 204.356 283.452C204.356 285.948 205.988 287.724 208.196 287.724C209.556 287.724 210.708 287.052 211.204 286.012V287.5H212.548V275.788H211.204ZM211.268 283.452C211.268 284.332 211.012 285.068 210.5 285.628C210.004 286.188 209.332 286.476 208.516 286.476C207.7 286.476 207.028 286.188 206.516 285.628C206.02 285.068 205.764 284.332 205.764 283.452C205.764 282.572 206.02 281.836 206.516 281.276C207.028 280.716 207.7 280.428 208.516 280.428C209.332 280.428 210.004 280.716 210.5 281.276C211.012 281.836 211.268 282.572 211.268 283.452ZM221.704 279.404V280.892C221.24 279.852 220.072 279.18 218.712 279.18C216.488 279.18 214.856 280.956 214.856 283.452C214.856 285.948 216.488 287.724 218.712 287.724C220.072 287.724 221.24 287.052 221.704 286.012V287.5H223.048V279.404H221.704ZM221.768 283.452C221.768 284.332 221.512 285.068 221 285.628C220.504 286.188 219.832 286.476 219.016 286.476C218.2 286.476 217.528 286.188 217.016 285.628C216.52 285.068 216.264 284.332 216.264 283.452C216.264 282.572 216.52 281.836 217.016 281.276C217.528 280.716 218.2 280.428 219.016 280.428C219.832 280.428 220.504 280.716 221 281.276C221.512 281.836 221.768 282.572 221.768 283.452ZM231.452 279.404V283.996C231.452 285.34 230.396 286.252 228.924 286.252C227.66 286.252 227.068 285.58 227.068 284.044V279.404H225.724V284.364C225.724 286.396 226.796 287.5 228.604 287.5C229.932 287.5 230.988 286.924 231.452 285.9V286.716C231.452 288.684 230.492 289.676 228.812 289.676C227.852 289.676 226.924 289.34 226.268 288.748L225.484 289.708C226.236 290.476 227.484 290.924 228.844 290.924C231.34 290.924 232.796 289.452 232.796 286.716V279.404H231.452ZM239.13 276.78C239.13 277.308 239.53 277.708 240.058 277.708C240.586 277.708 240.986 277.308 240.986 276.78C240.986 276.252 240.586 275.852 240.058 275.852C239.53 275.852 239.13 276.252 239.13 276.78ZM237.402 290.844C237.722 290.908 238.026 290.94 238.314 290.94C239.93 290.94 240.73 290.092 240.73 288.604V279.404H239.386V288.444C239.386 289.324 239.034 289.724 238.154 289.724C237.914 289.724 237.658 289.692 237.402 289.628V290.844ZM243.46 284.476C243.46 286.396 244.852 287.724 246.948 287.724C249.044 287.724 250.436 286.396 250.436 284.476V279.404H249.092V284.396C249.092 285.74 248.308 286.476 246.948 286.476C245.588 286.476 244.804 285.74 244.804 284.396V279.404H243.46V284.476ZM252.383 285.964C253.023 287.052 254.351 287.724 255.999 287.724C257.983 287.724 259.183 286.716 259.183 285.18C259.183 284.044 258.495 283.324 256.895 282.956L255.471 282.636C254.383 282.38 254.015 282.076 254.015 281.548C254.015 280.828 254.623 280.396 255.775 280.396C256.783 280.396 257.599 280.732 258.127 281.356L259.055 280.556C258.399 279.676 257.263 279.18 255.855 279.18C253.887 279.18 252.671 280.156 252.671 281.58C252.671 282.716 253.471 283.452 255.135 283.836L256.415 284.124C257.439 284.364 257.839 284.7 257.839 285.276C257.839 286.028 257.135 286.508 255.983 286.508C254.879 286.508 253.935 286.076 253.359 285.244L252.383 285.964ZM261.915 285.42C261.915 286.876 262.779 287.628 264.379 287.628C264.891 287.628 265.371 287.564 265.835 287.42V286.3C265.371 286.396 264.939 286.444 264.571 286.444C263.659 286.444 263.259 286.108 263.259 285.324V280.556H265.803V279.404H263.259V277.004H261.915V279.404H260.299V280.556H261.915V285.42ZM277.845 279.404V280.876C277.381 279.836 276.213 279.18 274.853 279.18C272.629 279.18 270.997 280.892 270.997 283.34C270.997 285.788 272.629 287.5 274.853 287.5C276.245 287.5 277.381 286.86 277.845 285.836V286.572C277.845 288.62 276.837 289.676 274.981 289.676C273.845 289.676 272.821 289.276 272.069 288.588L271.301 289.58C272.133 290.428 273.461 290.924 274.981 290.924C277.669 290.924 279.189 289.388 279.189 286.572V279.404H277.845ZM277.909 283.34C277.909 284.188 277.653 284.892 277.141 285.436C276.645 285.98 275.973 286.252 275.157 286.252C274.341 286.252 273.669 285.98 273.157 285.436C272.661 284.892 272.405 284.188 272.405 283.34C272.405 282.492 272.661 281.788 273.157 281.244C273.669 280.7 274.341 280.428 275.157 280.428C275.973 280.428 276.645 280.7 277.141 281.244C277.653 281.788 277.909 282.492 277.909 283.34ZM281.497 283.452C281.465 285.74 283.209 287.772 285.657 287.724C288.105 287.772 289.849 285.74 289.817 283.452C289.849 281.164 288.105 279.132 285.657 279.18C283.209 279.132 281.465 281.164 281.497 283.452ZM288.409 283.452C288.409 284.332 288.153 285.068 287.641 285.628C287.145 286.188 286.473 286.476 285.657 286.476C284.841 286.476 284.169 286.188 283.657 285.628C283.161 285.068 282.905 284.332 282.905 283.452C282.905 282.572 283.161 281.836 283.657 281.276C284.169 280.716 284.841 280.428 285.657 280.428C286.473 280.428 287.145 280.716 287.641 281.276C288.153 281.836 288.409 282.572 288.409 283.452ZM292.555 285.42C292.555 286.876 293.419 287.628 295.019 287.628C295.531 287.628 296.011 287.564 296.475 287.42V286.3C296.011 286.396 295.579 286.444 295.211 286.444C294.299 286.444 293.899 286.108 293.899 285.324V280.556H296.443V279.404H293.899V277.004H292.555V279.404H290.939V280.556H292.555V285.42ZM301.445 285.964C302.085 287.052 303.413 287.724 305.061 287.724C307.045 287.724 308.245 286.716 308.245 285.18C308.245 284.044 307.557 283.324 305.957 282.956L304.533 282.636C303.445 282.38 303.077 282.076 303.077 281.548C303.077 280.828 303.685 280.396 304.837 280.396C305.845 280.396 306.661 280.732 307.189 281.356L308.117 280.556C307.461 279.676 306.325 279.18 304.917 279.18C302.949 279.18 301.733 280.156 301.733 281.58C301.733 282.716 302.533 283.452 304.197 283.836L305.477 284.124C306.501 284.364 306.901 284.7 306.901 285.276C306.901 286.028 306.197 286.508 305.045 286.508C303.941 286.508 302.997 286.076 302.421 285.244L301.445 285.964ZM317.457 282.316C317.457 280.316 316.417 279.18 314.577 279.18C313.249 279.18 312.209 279.756 311.761 280.78V275.788H310.417V287.5H311.761V282.684C311.761 281.324 312.801 280.428 314.257 280.428C315.537 280.428 316.113 281.1 316.113 282.636V287.5H317.457V282.316ZM319.7 283.452C319.668 285.74 321.412 287.772 323.86 287.724C326.308 287.772 328.052 285.74 328.02 283.452C328.052 281.164 326.308 279.132 323.86 279.18C321.412 279.132 319.668 281.164 319.7 283.452ZM326.612 283.452C326.612 284.332 326.356 285.068 325.844 285.628C325.348 286.188 324.676 286.476 323.86 286.476C323.044 286.476 322.372 286.188 321.86 285.628C321.364 285.068 321.108 284.332 321.108 283.452C321.108 282.572 321.364 281.836 321.86 281.276C322.372 280.716 323.044 280.428 323.86 280.428C324.676 280.428 325.348 280.716 325.844 281.276C326.356 281.836 326.612 282.572 326.612 283.452ZM334.867 279.388C334.659 279.308 334.403 279.276 334.131 279.276C332.931 279.276 332.035 279.884 331.667 280.924V279.404H330.323V287.5H331.667V283.356C331.667 281.452 332.579 280.524 334.163 280.524C334.403 280.524 334.627 280.54 334.867 280.572V279.388ZM337.571 285.42C337.571 286.876 338.435 287.628 340.035 287.628C340.547 287.628 341.027 287.564 341.491 287.42V286.3C341.027 286.396 340.595 286.444 340.227 286.444C339.315 286.444 338.915 286.108 338.915 285.324V280.556H341.459V279.404H338.915V277.004H337.571V279.404H335.955V280.556H337.571V285.42ZM350.665 283.868C350.697 283.628 350.713 283.388 350.713 283.148C350.713 280.796 349.113 279.18 346.857 279.18C344.473 279.18 342.809 280.988 342.809 283.468C342.809 285.98 344.521 287.724 346.969 287.724C348.457 287.724 349.705 287.084 350.489 285.98L349.577 285.212C348.905 286.06 348.041 286.476 347.001 286.476C345.417 286.476 344.329 285.484 344.185 283.868H350.665ZM344.217 282.78C344.457 281.324 345.433 280.428 346.857 280.428C348.265 280.428 349.209 281.292 349.337 282.78H344.217ZM357.523 279.388C357.315 279.308 357.059 279.276 356.787 279.276C355.587 279.276 354.691 279.884 354.323 280.924V279.404H352.979V287.5H354.323V283.356C354.323 281.452 355.235 280.524 356.819 280.524C357.059 280.524 357.283 280.54 357.523 280.572V279.388Z" fill="white"/>
</svg>
