<svg width="1137" height="447" viewBox="0 0 1137 447" fill="none" xmlns="http://www.w3.org/2000/svg">
<rect width="1137" height="447" rx="100" fill="#1C468A"/>
<rect x="463" y="300" width="214" height="64" rx="32" fill="#FC8900"/>
<path d="M530.316 329.6V331.584H532.732V333.392C532.124 333.824 531.34 334.048 530.364 334.048C528.06 334.048 526.7 332.688 526.7 330.448C526.7 328.272 528.044 326.8 530.076 326.8C531.18 326.8 532.124 327.232 532.748 328.064L534.604 326.752C533.692 325.36 532.076 324.576 530.092 324.576C526.668 324.544 524.188 327.072 524.236 330.432C524.236 333.792 526.572 336.224 530.252 336.224C532.252 336.224 534.012 335.504 534.924 334.336V329.6H530.316ZM544.534 332.592C544.566 332.32 544.582 332.048 544.582 331.808C544.582 329.28 542.982 327.616 540.566 327.616C538.07 327.616 536.39 329.424 536.39 331.952C536.39 334.544 538.15 336.224 540.79 336.224C542.278 336.224 543.494 335.696 544.278 334.752L542.982 333.408C542.438 334 541.734 334.288 540.87 334.288C539.654 334.288 538.886 333.728 538.678 332.592H544.534ZM538.678 331.12C538.87 330.096 539.542 329.536 540.582 329.536C541.622 329.536 542.246 330.096 542.326 331.12H538.678ZM546.839 333.472C546.839 335.328 547.703 336.112 549.687 336.112C550.279 336.112 550.823 336.048 551.319 335.904V333.968C550.983 334.048 550.615 334.096 550.215 334.096C549.399 334.096 549.111 333.84 549.111 333.12V329.824H551.287V327.84H549.111V325.44H546.839V327.84H545.351V329.824H546.839V333.472ZM555.902 333.728C556.686 335.28 558.462 336.224 560.718 336.224C563.502 336.224 565.134 334.8 565.134 332.688C565.134 331.04 564.11 329.984 562.078 329.488L560.222 329.056C559.022 328.752 558.606 328.416 558.606 327.856C558.606 327.152 559.246 326.688 560.462 326.688C561.63 326.688 562.542 327.088 563.198 327.904L564.845 326.624C564.126 325.36 562.494 324.576 560.494 324.576C557.822 324.576 556.206 325.952 556.206 327.904C556.206 329.504 557.262 330.608 559.374 331.12L561.182 331.552C562.318 331.808 562.734 332.192 562.734 332.816C562.734 333.632 562.046 334.112 560.782 334.112C559.39 334.112 558.222 333.504 557.566 332.464L555.902 333.728ZM567.433 333.472C567.433 335.328 568.297 336.112 570.281 336.112C570.873 336.112 571.417 336.048 571.913 335.904V333.968C571.577 334.048 571.209 334.096 570.809 334.096C569.993 334.096 569.705 333.84 569.705 333.12V329.824H571.881V327.84H569.705V325.44H567.433V327.84H565.945V329.824H567.433V333.472ZM579.304 327.84V329.056C578.84 328.16 577.8 327.616 576.632 327.616C574.504 327.616 572.952 329.392 572.952 331.92C572.952 334.448 574.504 336.224 576.632 336.224C577.8 336.224 578.84 335.68 579.304 334.784V336H581.544V327.84H579.304ZM579.352 331.92C579.352 333.28 578.568 334.176 577.304 334.176C576.04 334.176 575.256 333.28 575.256 331.92C575.256 330.56 576.04 329.664 577.304 329.664C578.568 329.664 579.352 330.56 579.352 331.92ZM588.993 327.792C588.801 327.712 588.577 327.68 588.305 327.68C587.217 327.68 586.337 328.24 585.937 329.184V327.84H583.713V336H585.985V332.048C585.985 330.512 586.609 329.856 588.001 329.856C588.321 329.856 588.657 329.888 588.993 329.952V327.792ZM591.417 333.472C591.417 335.328 592.281 336.112 594.265 336.112C594.857 336.112 595.401 336.048 595.897 335.904V333.968C595.561 334.048 595.193 334.096 594.793 334.096C593.977 334.096 593.689 333.84 593.689 333.12V329.824H595.865V327.84H593.689V325.44H591.417V327.84H589.929V329.824H591.417V333.472ZM605.081 332.592C605.113 332.32 605.128 332.048 605.128 331.808C605.128 329.28 603.529 327.616 601.113 327.616C598.617 327.616 596.937 329.424 596.937 331.952C596.937 334.544 598.697 336.224 601.337 336.224C602.825 336.224 604.041 335.696 604.825 334.752L603.529 333.408C602.985 334 602.281 334.288 601.417 334.288C600.201 334.288 599.433 333.728 599.225 332.592H605.081ZM599.225 331.12C599.417 330.096 600.089 329.536 601.129 329.536C602.169 329.536 602.793 330.096 602.873 331.12H599.225ZM612.663 324.288V328.992C612.167 328.112 611.175 327.616 610.023 327.616C607.895 327.616 606.343 329.392 606.343 331.92C606.343 334.448 607.895 336.224 610.023 336.224C611.191 336.224 612.231 335.68 612.695 334.784V336H614.935V324.288H612.663ZM612.743 331.92C612.743 333.28 611.959 334.176 610.695 334.176C609.431 334.176 608.647 333.28 608.647 331.92C608.647 330.56 609.431 329.664 610.695 329.664C611.959 329.664 612.743 330.56 612.743 331.92Z" fill="white"/>
<path d="M353.791 121.396C355.855 126.244 360.751 129.172 367.519 129.172C375.535 129.172 380.191 125.14 380.191 119.14C380.191 114.532 377.263 111.556 370.879 110.02L365.455 108.676C361.231 107.716 359.599 106.228 359.599 103.732C359.599 100.468 362.335 98.5 366.943 98.5C370.927 98.5 374.095 99.988 375.775 102.724L379.375 100.372C377.599 96.676 372.991 94.228 366.991 94.228C359.455 94.228 354.799 98.212 354.799 103.78C354.799 108.34 357.919 111.364 364.159 112.852L369.583 114.148C373.615 115.156 375.343 116.788 375.343 119.332C375.343 122.74 372.415 124.9 367.615 124.9C362.959 124.9 359.263 122.836 357.487 119.14L353.791 121.396ZM405.088 104.164V108.484C403.696 105.412 400.288 103.492 396.304 103.492C389.68 103.492 384.784 108.82 384.784 116.356C384.784 123.844 389.68 129.172 396.304 129.172C400.288 129.172 403.696 127.252 405.088 124.18V128.5H409.6V104.164H405.088ZM405.28 116.356C405.28 118.9 404.56 120.964 403.12 122.596C401.68 124.18 399.76 124.996 397.408 124.996C395.056 124.996 393.136 124.18 391.648 122.596C390.208 120.964 389.488 118.9 389.488 116.356C389.488 113.812 390.208 111.7 391.648 110.116C393.136 108.484 395.056 107.668 397.408 107.668C402.16 107.668 405.28 111.22 405.28 116.356ZM417.87 128.5H422.382V93.364H417.87V128.5ZM449.244 104.164V108.484C447.852 105.412 444.444 103.492 440.46 103.492C433.836 103.492 428.94 108.82 428.94 116.356C428.94 123.844 433.836 129.172 440.46 129.172C444.444 129.172 447.852 127.252 449.244 124.18V128.5H453.756V104.164H449.244ZM449.436 116.356C449.436 118.9 448.716 120.964 447.276 122.596C445.836 124.18 443.916 124.996 441.564 124.996C439.212 124.996 437.292 124.18 435.804 122.596C434.364 120.964 433.644 118.9 433.644 116.356C433.644 113.812 434.364 111.7 435.804 110.116C437.292 108.484 439.212 107.668 441.564 107.668C446.316 107.668 449.436 111.22 449.436 116.356ZM476.042 104.116C475.418 103.876 474.698 103.78 473.882 103.78C470.378 103.78 467.69 105.508 466.538 108.532V104.164H462.026V128.5H466.538V116.164C466.538 110.644 469.13 108.004 473.786 108.004C474.602 108.004 475.37 108.052 476.042 108.196V104.116ZM497.941 104.164V117.796C497.941 121.684 495.013 124.276 490.789 124.276C487.189 124.276 485.509 122.404 485.509 117.988V104.164H480.997V119.092C480.997 125.092 484.165 128.452 489.541 128.452C493.429 128.452 496.549 126.724 497.941 123.796V126.1C497.941 131.812 495.205 134.644 490.213 134.644C487.381 134.644 484.645 133.684 482.677 131.956L480.229 135.172C482.533 137.476 486.229 138.772 490.405 138.772C498.085 138.772 502.453 134.308 502.453 126.1V104.164H497.941ZM536.698 105.46C536.698 98.884 532.522 94.9 525.178 94.9H511.402V128.5H516.106V115.972H525.178C532.522 115.972 536.698 112.036 536.698 105.46ZM531.802 105.46C531.802 109.732 529.69 111.652 524.842 111.652H516.106V99.22H524.842C529.69 99.22 531.802 101.092 531.802 105.46ZM560.9 104.164V108.484C559.508 105.412 556.1 103.492 552.116 103.492C545.492 103.492 540.596 108.82 540.596 116.356C540.596 123.844 545.492 129.172 552.116 129.172C556.1 129.172 559.508 127.252 560.9 124.18V128.5H565.412V104.164H560.9ZM561.092 116.356C561.092 118.9 560.372 120.964 558.932 122.596C557.492 124.18 555.572 124.996 553.22 124.996C550.868 124.996 548.948 124.18 547.46 122.596C546.02 120.964 545.3 118.9 545.3 116.356C545.3 113.812 546.02 111.7 547.46 110.116C548.948 108.484 550.868 107.668 553.22 107.668C557.972 107.668 561.092 111.22 561.092 116.356ZM590.051 104.164V117.796C590.051 121.684 587.123 124.276 582.899 124.276C579.299 124.276 577.619 122.404 577.619 117.988V104.164H573.107V119.092C573.107 125.092 576.275 128.452 581.651 128.452C585.539 128.452 588.659 126.724 590.051 123.796V126.1C590.051 131.812 587.315 134.644 582.323 134.644C579.491 134.644 576.755 133.684 574.787 131.956L572.339 135.172C574.643 137.476 578.339 138.772 582.515 138.772C590.195 138.772 594.563 134.308 594.563 126.1V104.164H590.051ZM632.935 111.7C632.935 101.284 626.119 94.9 616.375 94.9H603.511V128.5H616.375C626.119 128.5 632.935 122.116 632.935 111.7ZM627.991 111.7C627.991 119.62 623.671 124.132 616.375 124.132H608.215V99.268H616.375C623.671 99.268 627.991 103.78 627.991 111.7ZM658.635 104.164V108.484C657.243 105.412 653.835 103.492 649.851 103.492C643.227 103.492 638.331 108.82 638.331 116.356C638.331 123.844 643.227 129.172 649.851 129.172C653.835 129.172 657.243 127.252 658.635 124.18V128.5H663.147V104.164H658.635ZM658.827 116.356C658.827 118.9 658.107 120.964 656.667 122.596C655.227 124.18 653.307 124.996 650.955 124.996C648.603 124.996 646.683 124.18 645.195 122.596C643.755 120.964 643.035 118.9 643.035 116.356C643.035 113.812 643.755 111.7 645.195 110.116C646.683 108.484 648.603 107.668 650.955 107.668C655.707 107.668 658.827 111.22 658.827 116.356ZM687.785 104.164V117.796C687.785 121.684 684.857 124.276 680.633 124.276C677.033 124.276 675.353 122.404 675.353 117.988V104.164H670.841V119.092C670.841 125.092 674.009 128.452 679.385 128.452C683.273 128.452 686.393 126.724 687.785 123.796V126.1C687.785 131.812 685.049 134.644 680.057 134.644C677.225 134.644 674.489 133.684 672.521 131.956L670.073 135.172C672.377 137.476 676.073 138.772 680.249 138.772C687.929 138.772 692.297 134.308 692.297 126.1V104.164H687.785ZM730.166 104.164V108.436C728.774 105.412 725.366 103.492 721.382 103.492C714.758 103.492 709.862 108.676 709.862 115.972C709.862 123.316 714.758 128.452 721.382 128.452C725.414 128.452 728.774 126.628 730.166 123.604V125.716C730.166 131.62 727.19 134.644 721.814 134.644C718.55 134.644 715.478 133.444 713.222 131.476L710.774 134.788C713.27 137.284 717.302 138.772 721.91 138.772C730.022 138.772 734.678 134.116 734.678 125.716V104.164H730.166ZM730.358 115.972C730.358 118.42 729.638 120.388 728.198 121.972C726.758 123.556 724.838 124.324 722.486 124.324C717.734 124.324 714.566 120.916 714.566 115.972C714.566 113.524 715.286 111.556 716.726 110.02C718.214 108.436 720.134 107.668 722.486 107.668C724.838 107.668 726.758 108.436 728.198 110.02C729.638 111.556 730.358 113.524 730.358 115.972ZM741.268 116.356C741.268 123.412 746.308 129.172 753.892 129.172C761.38 129.172 766.468 123.412 766.468 116.356C766.468 109.348 761.38 103.492 753.892 103.492C746.308 103.492 741.268 109.348 741.268 116.356ZM761.764 116.356C761.764 118.9 761.044 120.964 759.604 122.596C758.164 124.18 756.244 124.996 753.892 124.996C751.54 124.996 749.62 124.18 748.132 122.596C746.692 120.964 745.972 118.9 745.972 116.356C745.972 113.812 746.692 111.7 748.132 110.116C749.62 108.484 751.54 107.668 753.892 107.668C758.644 107.668 761.764 111.22 761.764 116.356ZM774.445 122.02C774.445 126.58 776.989 128.884 782.029 128.884C783.613 128.884 785.101 128.692 786.493 128.26V124.468C785.101 124.756 783.853 124.9 782.749 124.9C780.061 124.9 778.957 123.94 778.957 121.588V108.052H786.397V104.164H778.957V96.964H774.445V104.164H769.645V108.052H774.445V122.02ZM440.684 160.164V173.796C440.684 177.684 437.756 180.276 433.532 180.276C429.932 180.276 428.252 178.404 428.252 173.988V160.164H423.74V175.092C423.74 181.092 426.908 184.452 432.284 184.452C436.172 184.452 439.292 182.724 440.684 179.796V182.1C440.684 187.812 437.948 190.644 432.956 190.644C430.124 190.644 427.388 189.684 425.42 187.956L422.972 191.172C425.276 193.476 428.972 194.772 433.148 194.772C440.828 194.772 445.196 190.308 445.196 182.1V160.164H440.684ZM451.792 172.356C451.792 179.412 456.832 185.172 464.416 185.172C471.904 185.172 476.992 179.412 476.992 172.356C476.992 165.348 471.904 159.492 464.416 159.492C456.832 159.492 451.792 165.348 451.792 172.356ZM472.288 172.356C472.288 174.9 471.568 176.964 470.128 178.596C468.688 180.18 466.768 180.996 464.416 180.996C462.064 180.996 460.144 180.18 458.656 178.596C457.216 176.964 456.496 174.9 456.496 172.356C456.496 169.812 457.216 167.7 458.656 166.116C460.144 164.484 462.064 163.668 464.416 163.668C469.168 163.668 472.288 167.22 472.288 172.356ZM483.086 175.38C483.086 181.236 487.358 185.172 493.694 185.172C496.91 185.172 499.502 184.308 501.422 182.532C503.342 180.756 504.302 178.356 504.302 175.38V160.164H499.79V175.044C499.79 178.932 497.582 180.996 493.694 180.996C489.806 180.996 487.598 178.932 487.598 175.044V160.164H483.086V175.38ZM521.401 172.356C521.401 179.748 526.537 185.172 533.977 185.172C538.441 185.172 542.185 183.252 544.249 179.844L540.745 177.396C539.257 179.748 536.905 180.996 534.025 180.996C529.273 180.996 526.105 177.54 526.105 172.356C526.105 167.172 529.273 163.668 534.025 163.668C536.905 163.668 539.257 164.964 540.745 167.268L544.249 164.868C542.185 161.46 538.441 159.492 533.977 159.492C526.537 159.492 521.401 164.916 521.401 172.356ZM548.167 172.356C548.167 179.412 553.207 185.172 560.791 185.172C568.279 185.172 573.367 179.412 573.367 172.356C573.367 165.348 568.279 159.492 560.791 159.492C553.207 159.492 548.167 165.348 548.167 172.356ZM568.663 172.356C568.663 174.9 567.943 176.964 566.503 178.596C565.063 180.18 563.143 180.996 560.791 180.996C558.439 180.996 556.519 180.18 555.031 178.596C553.591 176.964 552.871 174.9 552.871 172.356C552.871 169.812 553.591 167.7 555.031 166.116C556.519 164.484 558.439 163.668 560.791 163.668C565.543 163.668 568.663 167.22 568.663 172.356ZM595.461 160.164L588.117 179.556L580.725 160.164H575.925L585.669 184.5H590.517L600.309 160.164H595.461ZM626.582 173.7C626.678 172.98 626.726 172.26 626.726 171.54C626.726 164.388 621.878 159.492 615.11 159.492C607.958 159.492 602.87 164.964 602.87 172.404C602.87 179.94 608.006 185.172 615.494 185.172C619.958 185.172 623.702 183.348 626.054 180.084L623.126 177.492C621.158 179.892 618.614 181.092 615.59 181.092C611.03 181.092 608.006 178.356 607.478 173.7H626.582ZM607.574 170.244C608.294 166.068 611.03 163.62 615.11 163.62C619.094 163.62 621.782 166.02 622.166 170.244H607.574ZM647.253 160.116C646.629 159.876 645.909 159.78 645.093 159.78C641.589 159.78 638.901 161.508 637.749 164.532V160.164H633.237V184.5H637.749V172.164C637.749 166.644 640.341 164.004 644.997 164.004C645.813 164.004 646.581 164.052 647.253 164.196V160.116ZM673.644 173.7C673.74 172.98 673.788 172.26 673.788 171.54C673.788 164.388 668.94 159.492 662.172 159.492C655.02 159.492 649.932 164.964 649.932 172.404C649.932 179.94 655.068 185.172 662.556 185.172C667.02 185.172 670.764 183.348 673.116 180.084L670.188 177.492C668.22 179.892 665.676 181.092 662.652 181.092C658.092 181.092 655.068 178.356 654.54 173.7H673.644ZM654.636 170.244C655.356 166.068 658.092 163.62 662.172 163.62C666.156 163.62 668.844 166.02 669.228 170.244H654.636ZM698.924 149.364V164.484C697.532 161.412 694.076 159.492 690.092 159.492C683.516 159.492 678.62 164.82 678.62 172.356C678.62 179.844 683.516 185.172 690.092 185.172C694.076 185.172 697.532 183.252 698.924 180.18V184.5H703.436V149.364H698.924ZM699.116 172.356C699.116 174.9 698.396 176.964 696.956 178.596C695.516 180.18 693.596 180.996 691.244 180.996C688.892 180.996 686.972 180.18 685.484 178.596C684.044 176.964 683.324 174.9 683.324 172.356C683.324 169.812 684.044 167.7 685.484 166.116C686.972 164.484 688.892 163.668 691.244 163.668C695.996 163.668 699.116 167.22 699.116 172.356ZM710.554 181.716C710.554 183.636 711.802 184.932 713.722 184.932C715.642 184.932 716.842 183.636 716.842 181.716C716.842 179.844 715.642 178.644 713.722 178.644C711.802 178.644 710.554 179.844 710.554 181.716Z" fill="white"/>
<path d="M390.432 233.5H391.53V221.926H395.958V220.9H386.022V221.926H390.432V233.5ZM405.829 227.812C405.829 225.454 404.659 224.194 402.553 224.194C400.915 224.194 399.673 224.95 399.187 226.228V220.324H398.143V233.5H399.187V228.136C399.187 226.318 400.483 225.166 402.337 225.166C403.975 225.166 404.785 226.066 404.785 228.028V233.5H405.829V227.812ZM417.175 229.234C417.193 228.946 417.211 228.712 417.211 228.55C417.211 225.976 415.447 224.194 412.981 224.194C410.353 224.194 408.499 226.156 408.499 229C408.499 231.808 410.371 233.734 413.071 233.734C414.745 233.734 416.131 233.014 416.977 231.736L416.257 231.142C415.519 232.204 414.403 232.762 413.089 232.762C411.055 232.762 409.651 231.412 409.561 229.234H417.175ZM409.597 228.37C409.813 226.408 411.109 225.166 412.981 225.166C414.799 225.166 416.059 226.372 416.149 228.37H409.597ZM423.528 228.964C423.528 231.736 425.364 233.734 428.118 233.734C429.792 233.734 431.178 232.996 431.916 231.7L431.088 231.142C430.512 232.168 429.432 232.762 428.136 232.762C426.048 232.762 424.626 231.25 424.626 228.964C424.626 226.678 426.048 225.166 428.136 225.166C429.432 225.166 430.512 225.76 431.088 226.786L431.916 226.246C431.178 224.932 429.828 224.194 428.118 224.194C425.364 224.194 423.528 226.192 423.528 228.964ZM433.689 228.964C433.689 231.646 435.543 233.734 438.297 233.734C441.051 233.734 442.923 231.646 442.923 228.964C442.923 226.282 441.051 224.194 438.297 224.194C435.543 224.194 433.689 226.282 433.689 228.964ZM441.825 228.964C441.825 231.214 440.403 232.762 438.297 232.762C436.227 232.762 434.787 231.214 434.787 228.964C434.787 226.714 436.227 225.166 438.297 225.166C440.403 225.166 441.825 226.714 441.825 228.964ZM445.477 230.098C445.477 232.348 446.917 233.734 449.275 233.734C451.633 233.734 453.091 232.348 453.091 230.098V224.428H452.047V230.044C452.047 231.826 451.021 232.762 449.275 232.762C447.529 232.762 446.521 231.79 446.521 230.044V224.428H445.477V230.098ZM463.978 227.812C463.978 225.454 462.808 224.194 460.702 224.194C459.064 224.194 457.822 224.95 457.336 226.228V224.428H456.292V233.5H457.336V228.136C457.336 226.318 458.632 225.166 460.486 225.166C462.124 225.166 462.934 226.066 462.934 228.028V233.5H463.978V227.812ZM467.892 231.322C467.892 232.888 468.792 233.644 470.466 233.644C470.988 233.644 471.51 233.572 471.996 233.428V232.546C471.51 232.672 471.042 232.726 470.592 232.726C469.458 232.726 468.936 232.258 468.936 231.25V225.346H471.96V224.428H468.936V221.728H467.892V224.428H465.966V225.346H467.892V231.322ZM481.566 220.324V226.48C481.008 225.058 479.64 224.194 477.912 224.194C475.356 224.194 473.538 226.156 473.538 228.964C473.538 231.772 475.356 233.734 477.912 233.734C479.64 233.734 481.008 232.87 481.566 231.448V233.5H482.61V220.324H481.566ZM481.62 228.964C481.62 231.178 480.18 232.762 478.128 232.762C476.076 232.762 474.636 231.178 474.636 228.964C474.636 226.75 476.076 225.166 478.128 225.166C480.18 225.166 481.62 226.75 481.62 228.964ZM485.351 228.964C485.351 231.646 487.205 233.734 489.959 233.734C492.713 233.734 494.585 231.646 494.585 228.964C494.585 226.282 492.713 224.194 489.959 224.194C487.205 224.194 485.351 226.282 485.351 228.964ZM493.487 228.964C493.487 231.214 492.065 232.762 489.959 232.762C487.889 232.762 486.449 231.214 486.449 228.964C486.449 226.714 487.889 225.166 489.959 225.166C492.065 225.166 493.487 226.714 493.487 228.964ZM508.771 224.428L506.143 232.204L503.443 224.428H502.291L499.591 232.204L496.963 224.428H495.901L498.997 233.5H500.149L502.867 225.616L505.585 233.5H506.737L509.833 224.428H508.771ZM519.648 227.812C519.648 225.454 518.478 224.194 516.372 224.194C514.734 224.194 513.492 224.95 513.006 226.228V224.428H511.962V233.5H513.006V228.136C513.006 226.318 514.302 225.166 516.156 225.166C517.794 225.166 518.604 226.066 518.604 228.028V233.5H519.648V227.812ZM527.693 231.322C527.693 232.888 528.593 233.644 530.267 233.644C530.789 233.644 531.311 233.572 531.797 233.428V232.546C531.311 232.672 530.843 232.726 530.393 232.726C529.259 232.726 528.737 232.258 528.737 231.25V225.346H531.761V224.428H528.737V221.728H527.693V224.428H525.767V225.346H527.693V231.322ZM533.339 228.964C533.339 231.646 535.193 233.734 537.947 233.734C540.701 233.734 542.573 231.646 542.573 228.964C542.573 226.282 540.701 224.194 537.947 224.194C535.193 224.194 533.339 226.282 533.339 228.964ZM541.475 228.964C541.475 231.214 540.053 232.762 537.947 232.762C535.877 232.762 534.437 231.214 534.437 228.964C534.437 226.714 535.877 225.166 537.947 225.166C540.053 225.166 541.475 226.714 541.475 228.964ZM558.668 228.964C558.668 226.156 556.85 224.194 554.294 224.194C552.566 224.194 551.198 225.058 550.64 226.48V224.428H549.596V237.1H550.64V231.448C551.198 232.87 552.566 233.734 554.294 233.734C556.85 233.734 558.668 231.772 558.668 228.964ZM557.57 228.964C557.57 231.178 556.13 232.762 554.078 232.762C552.026 232.762 550.586 231.178 550.586 228.964C550.586 226.75 552.026 225.166 554.078 225.166C556.13 225.166 557.57 226.75 557.57 228.964ZM568.789 224.428V226.48C568.231 225.058 566.863 224.194 565.135 224.194C562.597 224.194 560.761 226.156 560.761 228.964C560.761 231.772 562.597 233.734 565.135 233.734C566.863 233.734 568.231 232.87 568.789 231.448V233.5H569.833V224.428H568.789ZM568.843 228.964C568.843 231.178 567.403 232.762 565.351 232.762C563.299 232.762 561.859 231.178 561.859 228.964C561.859 226.75 563.299 225.166 565.351 225.166C567.403 225.166 568.843 226.75 568.843 228.964ZM579.665 224.428V229.558C579.665 231.358 578.351 232.528 576.479 232.528C574.841 232.528 574.031 231.628 574.031 229.666V224.428H572.987V229.882C572.987 232.258 574.157 233.5 576.245 233.5C577.883 233.5 579.161 232.744 579.665 231.466V232.798C579.665 235.12 578.459 236.362 576.425 236.362C575.255 236.362 574.085 235.93 573.365 235.156L572.735 235.894C573.545 236.812 574.931 237.334 576.461 237.334C579.143 237.334 580.709 235.732 580.709 232.798V224.428H579.665ZM591.465 220.324V226.48C590.907 225.058 589.539 224.194 587.811 224.194C585.255 224.194 583.437 226.156 583.437 228.964C583.437 231.772 585.255 233.734 587.811 233.734C589.539 233.734 590.907 232.87 591.465 231.448V233.5H592.509V220.324H591.465ZM591.519 228.964C591.519 231.178 590.079 232.762 588.027 232.762C585.975 232.762 584.535 231.178 584.535 228.964C584.535 226.75 585.975 225.166 588.027 225.166C590.079 225.166 591.519 226.75 591.519 228.964ZM603.277 224.428V226.48C602.719 225.058 601.351 224.194 599.623 224.194C597.085 224.194 595.249 226.156 595.249 228.964C595.249 231.772 597.085 233.734 599.623 233.734C601.351 233.734 602.719 232.87 603.277 231.448V233.5H604.321V224.428H603.277ZM603.331 228.964C603.331 231.178 601.891 232.762 599.839 232.762C597.787 232.762 596.347 231.178 596.347 228.964C596.347 226.75 597.787 225.166 599.839 225.166C601.891 225.166 603.331 226.75 603.331 228.964ZM614.154 224.428V229.558C614.154 231.358 612.84 232.528 610.968 232.528C609.33 232.528 608.52 231.628 608.52 229.666V224.428H607.476V229.882C607.476 232.258 608.646 233.5 610.734 233.5C612.372 233.5 613.65 232.744 614.154 231.466V232.798C614.154 235.12 612.948 236.362 610.914 236.362C609.744 236.362 608.574 235.93 607.854 235.156L607.224 235.894C608.034 236.812 609.42 237.334 610.95 237.334C613.632 237.334 615.198 235.732 615.198 232.798V224.428H614.154ZM622.61 221.476C622.61 221.908 622.952 222.25 623.402 222.25C623.852 222.25 624.176 221.908 624.176 221.476C624.176 221.026 623.852 220.684 623.402 220.684C622.952 220.684 622.61 221.026 622.61 221.476ZM620.594 237.244C620.918 237.316 621.224 237.352 621.53 237.352C623.114 237.352 623.924 236.47 623.924 234.904V224.428H622.88V234.796C622.88 235.876 622.394 236.416 621.422 236.416C621.134 236.416 620.864 236.38 620.594 236.29V237.244ZM627.147 230.098C627.147 232.348 628.587 233.734 630.945 233.734C633.303 233.734 634.761 232.348 634.761 230.098V224.428H633.717V230.044C633.717 231.826 632.691 232.762 630.945 232.762C629.199 232.762 628.191 231.79 628.191 230.044V224.428H627.147V230.098ZM637.08 231.808C637.728 232.978 639.204 233.734 641.004 233.734C643.164 233.734 644.46 232.672 644.46 231.016C644.46 229.81 643.74 229.036 642.03 228.658L640.284 228.244C638.916 227.938 638.466 227.506 638.466 226.768C638.466 225.742 639.294 225.148 640.806 225.148C642.084 225.148 643.002 225.544 643.578 226.336L644.316 225.742C643.668 224.752 642.462 224.194 640.878 224.194C638.718 224.194 637.422 225.22 637.422 226.786C637.422 228.01 638.232 228.784 639.96 229.162L641.598 229.54C642.894 229.846 643.398 230.314 643.398 231.088C643.398 232.114 642.516 232.798 641.004 232.798C639.618 232.798 638.484 232.258 637.854 231.25L637.08 231.808ZM647.699 231.322C647.699 232.888 648.599 233.644 650.273 233.644C650.795 233.644 651.317 233.572 651.803 233.428V232.546C651.317 232.672 650.849 232.726 650.399 232.726C649.265 232.726 648.743 232.258 648.743 231.25V225.346H651.767V224.428H648.743V221.728H647.699V224.428H645.773V225.346H647.699V231.322ZM665.855 224.428V226.462C665.297 225.04 663.929 224.194 662.201 224.194C659.663 224.194 657.827 226.138 657.827 228.856C657.827 231.556 659.663 233.5 662.201 233.5C663.929 233.5 665.297 232.654 665.855 231.232V232.546C665.855 235.012 664.541 236.362 662.255 236.362C660.869 236.362 659.609 235.858 658.799 234.976L658.169 235.732C659.051 236.74 660.527 237.334 662.255 237.334C665.207 237.334 666.899 235.624 666.899 232.546V224.428H665.855ZM665.909 228.856C665.909 230.998 664.469 232.528 662.417 232.528C660.365 232.528 658.925 230.998 658.925 228.856C658.925 226.696 660.365 225.166 662.417 225.166C664.469 225.166 665.909 226.696 665.909 228.856ZM669.64 228.964C669.64 231.646 671.494 233.734 674.248 233.734C677.002 233.734 678.874 231.646 678.874 228.964C678.874 226.282 677.002 224.194 674.248 224.194C671.494 224.194 669.64 226.282 669.64 228.964ZM677.776 228.964C677.776 231.214 676.354 232.762 674.248 232.762C672.178 232.762 670.738 231.214 670.738 228.964C670.738 226.714 672.178 225.166 674.248 225.166C676.354 225.166 677.776 226.714 677.776 228.964ZM682.099 231.322C682.099 232.888 682.999 233.644 684.673 233.644C685.195 233.644 685.717 233.572 686.203 233.428V232.546C685.717 232.672 685.249 232.726 684.799 232.726C683.665 232.726 683.143 232.258 683.143 231.25V225.346H686.167V224.428H683.143V221.728H682.099V224.428H680.173V225.346H682.099V231.322ZM691.994 231.808C692.642 232.978 694.118 233.734 695.918 233.734C698.078 233.734 699.374 232.672 699.374 231.016C699.374 229.81 698.654 229.036 696.944 228.658L695.198 228.244C693.83 227.938 693.38 227.506 693.38 226.768C693.38 225.742 694.208 225.148 695.72 225.148C696.998 225.148 697.916 225.544 698.492 226.336L699.23 225.742C698.582 224.752 697.376 224.194 695.792 224.194C693.632 224.194 692.336 225.22 692.336 226.786C692.336 228.01 693.146 228.784 694.874 229.162L696.512 229.54C697.808 229.846 698.312 230.314 698.312 231.088C698.312 232.114 697.43 232.798 695.918 232.798C694.532 232.798 693.398 232.258 692.768 231.25L691.994 231.808ZM709.632 227.812C709.632 225.454 708.462 224.194 706.356 224.194C704.718 224.194 703.476 224.95 702.99 226.228V220.324H701.946V233.5H702.99V228.136C702.99 226.318 704.286 225.166 706.14 225.166C707.778 225.166 708.588 226.066 708.588 228.028V233.5H709.632V227.812ZM712.302 228.964C712.302 231.646 714.156 233.734 716.91 233.734C719.664 233.734 721.536 231.646 721.536 228.964C721.536 226.282 719.664 224.194 716.91 224.194C714.156 224.194 712.302 226.282 712.302 228.964ZM720.438 228.964C720.438 231.214 719.016 232.762 716.91 232.762C714.84 232.762 713.4 231.214 713.4 228.964C713.4 226.714 714.84 225.166 716.91 225.166C719.016 225.166 720.438 226.714 720.438 228.964ZM729.004 224.41C728.806 224.338 728.572 224.302 728.302 224.302C726.862 224.302 725.728 225.094 725.314 226.39V224.428H724.27V233.5H725.314V228.694C725.314 226.462 726.466 225.292 728.32 225.292C728.482 225.292 728.716 225.31 729.004 225.328V224.41ZM732.162 231.322C732.162 232.888 733.062 233.644 734.736 233.644C735.258 233.644 735.78 233.572 736.266 233.428V232.546C735.78 232.672 735.312 232.726 734.862 232.726C733.728 232.726 733.206 232.258 733.206 231.25V225.346H736.23V224.428H733.206V221.728H732.162V224.428H730.236V225.346H732.162V231.322ZM746.484 229.234C746.502 228.946 746.52 228.712 746.52 228.55C746.52 225.976 744.756 224.194 742.29 224.194C739.662 224.194 737.808 226.156 737.808 229C737.808 231.808 739.68 233.734 742.38 233.734C744.054 233.734 745.44 233.014 746.286 231.736L745.566 231.142C744.828 232.204 743.712 232.762 742.398 232.762C740.364 232.762 738.96 231.412 738.87 229.234H746.484ZM738.906 228.37C739.122 226.408 740.418 225.166 742.29 225.166C744.108 225.166 745.368 226.372 745.458 228.37H738.906ZM753.93 224.41C753.732 224.338 753.498 224.302 753.228 224.302C751.788 224.302 750.654 225.094 750.24 226.39V224.428H749.196V233.5H750.24V228.694C750.24 226.462 751.392 225.292 753.246 225.292C753.408 225.292 753.642 225.31 753.93 225.328V224.41Z" fill="white"/>
</svg>
