<svg width="430" height="417" viewBox="0 0 430 417" fill="none" xmlns="http://www.w3.org/2000/svg">
<g clip-path="url(#clip0_142_4657)">
<path d="M-214.7 547C-214.7 547 -253.436 503.747 -226.433 425.035C-199.429 346.324 -236.421 295.171 -226.433 218.238C-214.404 125.586 -145.971 71.473 -38.5541 85.7113C68.8634 99.9495 146.079 155.504 246.163 117.055C346.248 78.6057 389.815 15.9884 528.728 51.5472C728.999 102.813 626.674 286.895 681.581 326.716C736.488 366.536 770.18 431.544 721.53 547H-214.7Z" fill="#EBF3FA" fill-opacity="0.46"/>
<path opacity="0.5" d="M227.35 267.953C213.806 254.869 226.028 248.747 239.823 250.623C248.386 251.795 257.402 256.711 261.197 267.953C263.811 275.695 258.386 284.009 249.723 284.009C241.06 284.009 233.375 273.781 227.35 267.953Z" fill="white"/>
<path opacity="0.5" d="M205.454 256.153C200.829 251.68 205.002 249.588 209.719 250.233C212.648 250.633 215.73 252.312 217.025 256.153C217.246 256.776 217.312 257.443 217.22 258.097C217.127 258.751 216.878 259.373 216.494 259.911C216.109 260.449 215.601 260.886 215.011 261.187C214.421 261.487 213.768 261.642 213.105 261.638C210.146 261.638 207.514 258.146 205.454 256.153Z" fill="white"/>
<path opacity="0.5" d="M119.437 385.849C110.289 379.575 107.511 386.688 109.788 394.004C111.201 398.551 114.955 403.039 122.177 404.199C127.152 404.991 131.821 401.375 131.121 396.683C130.421 391.991 123.513 388.645 119.437 385.849Z" fill="white"/>
<path d="M29.8221 232.051C28.9455 230.364 48.9446 224.294 49.2615 240.933C49.2615 240.933 86.7297 240.013 68.8389 219.189C62.647 211.979 63.2833 206.018 63.4724 200.467C63.6615 194.916 59.6137 178.789 45.7477 180.413C45.7477 180.413 42.1138 178.939 37.5702 181.284C27.2717 186.616 4.18305 238.186 29.8221 232.051Z" fill="#163560"/>
<path d="M91.0741 247.325C91.0741 247.325 93.512 243.622 95.4797 243.548C97.4474 243.474 101.084 242.46 100.793 243.186C100.501 243.912 98.2371 243.984 98.0275 244.42C97.818 244.855 101.375 245.508 102.395 245.582C103.414 245.656 105.817 245.582 105.742 246.091C105.668 246.601 101.414 248.706 98.4083 248.416C95.4031 248.125 91.6925 249.287 91.6925 249.287L91.0741 247.325Z" fill="#FFB27D"/>
<path d="M55.8035 248.523C56.8704 250.508 58.1194 252.391 59.5345 254.147C62.4324 257.766 66.9019 261.948 72.5112 262.774C75.1919 263.169 77.8112 262.593 80.221 261.525C87.0365 258.51 92.1576 251.586 92.1576 251.586C93.3587 248.319 91.391 246.104 91.391 246.104C91.391 246.104 77.6323 249.19 76.3137 248.538C74.9951 247.886 66.9454 230.058 65.4964 227.092C62.4094 220.782 57.5157 218.97 57.5157 218.97L55.8035 248.523Z" fill="#AEC3FF"/>
<path d="M59.5345 254.147C62.4324 257.766 66.9019 261.948 72.5111 262.774C75.1918 263.169 77.8112 262.593 80.221 261.525C79.9654 261.561 73.15 262.4 70.4361 257.56C67.6685 252.623 64.6786 244.781 60.5669 247.396C58.7934 248.523 58.8726 251.326 59.5345 254.147Z" fill="#94B0ED"/>
<path d="M4.48458 396.634C4.48458 396.634 0.28595 400.457 1.10625 403.172C1.92656 405.886 5.7061 407.695 6.21719 411.013C6.72828 414.332 8.77521 416.136 10.6177 416.136H19.406C19.406 416.136 20.7629 413.799 17.4842 413.096C14.2056 412.392 12.9738 408.49 13.1732 404.882C13.3725 401.273 12.8665 396.436 12.8665 396.436L5.90286 394.825L4.48458 396.634Z" fill="#2B478B"/>
<path d="M40.0056 398.258C40.0056 398.258 38.4954 414.444 40.3378 415.349L63.9248 415.3C63.9248 415.3 63.9248 412.586 60.1376 411.987C56.3504 411.388 49.6934 409.184 48.5665 404.244C47.4395 399.305 40.0056 398.258 40.0056 398.258Z" fill="#2B478B"/>
<path d="M21.8618 237.602C21.6516 241.224 21.6516 244.855 21.8618 248.477C22.0969 252.407 26.0834 257.675 26.6507 258.977C28.069 262.242 29.6688 262.774 29.6688 262.774L42.05 265.802L46.3943 266.865L60.1274 262.787C60.1274 262.787 66.3806 245.375 63.8686 235.576C61.3566 225.777 57.5208 218.967 57.5208 218.967C57.5208 218.967 48.2112 215.305 31.7259 218.039L21.8618 237.602Z" fill="#AEC3FF"/>
<path d="M25.488 250.08C25.7205 254.012 26.0834 257.674 26.6507 258.977C28.069 262.242 29.6687 262.774 29.6687 262.774L42.05 265.802L47.4292 264.224C47.4292 264.224 29.472 261.51 31.4627 246.104L25.488 250.08Z" fill="#F2CCAA"/>
<path d="M59.2687 265.417C59.2687 265.417 66.0688 286.527 66.5057 293.706C66.9427 300.885 53.5061 395.809 52.9618 399.122C52.4507 402.244 48.5664 404.234 48.5664 404.234C48.5664 404.234 46.7775 405.284 44.2221 404.566C40.6828 403.569 39.5635 402.376 39.5635 402.376C39.5635 402.376 34.2711 334.682 37.5446 310.501C39.5417 295.549 40.651 280.492 40.8668 265.409L59.2687 265.417Z" fill="#4F7FD3"/>
<path d="M30.4558 264.788C30.4558 264.788 20.0832 278.67 19.1147 288.051C18.1462 297.432 17.5967 330.395 15.537 339.532C13.4773 348.668 5.90802 366.291 5.90802 394.815C5.90802 394.815 6.69511 396.451 9.1228 397.323C10.0509 397.634 10.9952 397.894 11.9517 398.102C12.9257 398.324 13.946 398.212 14.8484 397.784C15.7509 397.357 16.483 396.64 16.9272 395.748C22.0381 385.472 38.3471 352.328 39.1828 345.447C39.7731 340.579 44.9198 308.355 56.1485 289.447C58.8445 284.906 54.4951 266.854 54.4951 266.854L30.4558 264.788Z" fill="#739AF0"/>
<path d="M60.3548 262.157C60.3548 262.157 57.6256 264.311 52.2003 264.421C45.7222 264.551 29.6713 262.774 29.6713 262.774C29.2305 264.089 28.9994 265.465 28.9865 266.852C28.9865 266.852 48.592 271.783 59.9511 267.573C59.9511 267.581 61.4153 264.831 60.3548 262.157Z" fill="#233862"/>
<path d="M50.7999 266.651C50.7999 264.813 52.1262 263.315 53.7541 263.315C55.3819 263.315 56.7107 264.813 56.7107 266.651C56.7107 268.488 55.3844 269.989 53.7541 269.989C52.1237 269.989 50.7999 268.491 50.7999 266.651ZM51.7787 266.651C51.7787 267.953 52.6654 269.011 53.7541 269.011C54.8427 269.011 55.732 267.953 55.732 266.651C55.732 265.348 54.8452 264.293 53.7541 264.293C52.6629 264.293 51.7787 265.351 51.7787 266.651Z" fill="white"/>
<path d="M10.6484 267.785L26.569 281.611C27.1214 282.09 27.8422 282.332 28.5731 282.282C29.3039 282.231 29.9848 281.894 30.466 281.343L50.7795 258.077C51.2603 257.526 51.5019 256.807 51.4511 256.078C51.4003 255.349 51.0612 254.67 50.5086 254.191L34.5906 240.365C34.0378 239.885 33.3168 239.644 32.5859 239.695C31.8551 239.746 31.1744 240.084 30.6935 240.635L10.3801 263.901C10.1419 264.173 9.95993 264.49 9.84452 264.833C9.72912 265.175 9.68254 265.537 9.70746 265.898C9.73237 266.259 9.8283 266.611 9.98975 266.935C10.1512 267.258 10.375 267.547 10.6484 267.785Z" fill="#F78248"/>
<path d="M34.2022 266.042C34.427 266.1 42.6582 267.061 42.6582 268.761C42.6582 270.723 40.2458 273.348 37.9715 273.226C37.0515 273.175 32.8043 269.281 32.8043 269.281L34.2022 266.042Z" fill="#FFB27D"/>
<path d="M38.4263 217.13C39.3642 214.864 39.9111 211.416 39.8957 207.144L40.5167 207.267L50.9711 209.331C50.9711 209.331 50.7335 212.614 50.7156 215.702V215.779C50.7028 218.462 52.5351 221.156 48.2163 222.222C46.9054 222.553 36.4612 221.885 38.4263 217.13Z" fill="#FFB27D"/>
<path d="M50.9711 209.331C50.9711 209.331 50.7335 212.614 50.7156 215.702C44.8661 215.537 41.7714 210.215 40.4937 207.264L50.9711 209.331Z" fill="#E8945B"/>
<path d="M52.9261 212.252C52.9261 212.252 39.0831 212.479 39.0729 203.88C39.0626 195.281 37.2713 189.519 46.1081 189.011C54.9449 188.504 56.6673 191.789 57.3828 194.667C58.0983 197.544 56.5267 211.979 52.9261 212.252Z" fill="#FFB27D"/>
<path d="M52.4124 188.805C52.4124 188.805 48.6226 198.892 42.8064 200.386C36.9901 201.879 34.4679 200.322 34.4679 200.322C34.4679 200.322 38.9297 196.787 39.8548 190.617C39.8548 190.62 49.5554 184.006 52.4124 188.805Z" fill="#163560"/>
<path d="M51.4746 189.626C51.4746 189.626 54.2856 190.676 55.4407 192.72C56.8399 195.108 57.4913 197.859 57.3113 200.62C57.3113 200.62 60.1683 193.764 56.9586 189.886C53.5496 185.765 51.4746 189.626 51.4746 189.626Z" fill="#163560"/>
<path d="M34.2021 266.041C34.2021 266.041 36.1724 265.409 37.491 265.593C38.8097 265.776 39.791 265.567 39.791 265.934C39.791 266.301 38.089 266.475 37.7261 266.651C37.3633 266.826 34.2021 266.041 34.2021 266.041Z" fill="#FFB27D"/>
<path d="M31.7412 218.027C31.7412 218.027 21.9155 218.715 18.1487 227.846C14.382 236.978 7.23688 252.312 7.23688 254.886C7.23688 257.46 11.2285 265.417 32.6663 269.989C32.6663 269.989 34.8819 267.662 34.749 265.822C34.749 265.822 21.3661 254.354 21.4018 253.018C21.4708 250.485 23.597 247.139 35.3445 235.418C38.5388 232.232 31.7412 218.027 31.7412 218.027Z" fill="#AEC3FF"/>
<path d="M324.041 416.365H350.873C352.798 415.066 350.362 402.348 350.362 402.348C350.362 402.348 343.038 399.578 341.771 405.213C340.503 410.848 332.441 412.639 328.176 413.325C325.255 413.799 324.332 415.399 324.041 416.365Z" fill="#243F66"/>
<path d="M328.482 275.186L341.004 404.984C341.004 404.984 343.631 409.015 351.959 406.296C351.959 406.296 358.387 385.332 360.308 361.401C360.336 361.008 360.367 360.613 360.398 360.218C361.031 351.576 361.79 339.539 362.506 327.597C363.807 305.903 364.964 284.554 364.964 284.554L328.482 275.186Z" fill="#1C468A"/>
<path d="M344.633 300.016C344.633 300.016 348.931 328.927 350.413 337.714C353.574 356.423 360.316 361.401 360.316 361.401C360.344 361.008 360.375 360.613 360.405 360.218C361.039 351.576 361.798 339.539 362.514 327.597L344.633 300.016Z" fill="#233862"/>
<path d="M284.045 240.609C284.045 240.609 281.559 237.6 280.212 237.177C278.865 236.753 276.284 234.758 275.947 235.581C275.61 236.404 277.687 237.674 277.577 238.614C277.529 239.029 275.921 239.052 274.143 239.032C271.886 239.004 269.137 237.793 269.032 238.341C268.659 240.349 271.623 244.002 274.7 244.328C277.179 244.583 280.623 244.073 284.763 244.514C286.21 244.664 284.045 240.609 284.045 240.609Z" fill="#FFB27D"/>
<path d="M282.344 245.034C282.428 245.289 291.349 246.764 299.074 247.837C303.62 248.474 307.763 248.971 309.424 248.989C313.058 249.032 320.011 247.809 328.235 244.356C333.363 242.193 338.25 239.502 342.819 236.328C347.229 233.27 347.365 230.874 351.032 225.96C362.417 210.707 347.454 204.257 339.226 207.185C333.535 209.209 330.085 212.657 327 217.326C323.349 222.851 320.371 229.003 311.282 234.32C304.433 238.326 284.02 239.417 284.02 239.417C283.268 240.005 282.739 240.831 282.52 241.759C282.318 242.838 282.259 243.939 282.344 245.034Z" fill="#739AF0"/>
<path d="M363.848 416.365H390.68C392.604 415.066 390.169 402.348 390.169 402.348C390.169 402.348 382.845 399.578 381.58 405.213C380.315 410.848 372.247 412.639 367.982 413.325C365.064 413.799 364.139 415.399 363.848 416.365Z" fill="#243F66"/>
<path d="M338.553 281.455L379.201 405.524C379.201 405.524 387.848 407.83 392.277 403.128C392.277 403.128 391.255 359.382 385.702 344.445C381.212 332.363 383.402 267.114 363.492 266.559C343.583 266.003 338.553 281.455 338.553 281.455Z" fill="#1C468A"/>
<path d="M329.252 282.248C335.523 285.469 343.659 287.732 357.088 286.861C369.993 286.022 377.88 282.492 377.478 279.414C377.279 277.885 377.087 276.307 376.919 274.661C376.196 267.573 375.897 259.15 377.374 247.042C377.754 243.902 378.24 240.564 378.651 237.661C379.162 234.126 379.541 231.236 379.495 230.145C379.495 230.145 375.406 211.846 372.339 208.905C371.246 207.855 369.641 206.971 367.694 206.27H367.676C358.45 202.957 341.495 203.706 333.997 210.18C332.975 211.064 329.356 217.165 329.254 223.761C329.126 232.938 325.178 280.158 329.252 282.248Z" fill="#739AF0"/>
<path d="M361.157 205.59C362.082 204.425 359.473 202.249 360.646 193.731C360.661 193.619 359.815 193.777 358.537 194.08C354.735 194.978 347.089 197.139 346.751 197.236H346.736C346.736 197.236 346.644 199.02 346.33 202.238C346.302 202.521 346.274 202.819 346.243 203.125C346.205 203.5 346.176 203.89 346.118 204.31C345.203 210.723 356.828 211.044 361.157 205.59Z" fill="#FFB27D"/>
<path d="M346.322 202.238C351.998 203.538 360.472 195.179 360.472 195.179C359.874 194.732 359.221 194.363 358.53 194.08C354.727 194.978 347.081 197.139 346.744 197.236H346.729C346.729 197.236 346.637 199.027 346.322 202.238Z" fill="#ED975D"/>
<path d="M344.393 196.784C346.12 197.362 347.898 197.775 349.703 198.018C354.047 198.604 359.779 198.273 361.578 193.008C364.607 184.167 368.478 178.866 359.562 175.257C354.791 173.322 351.74 173.218 349.667 173.96C347.866 174.594 346.803 175.866 346 177.125C344.268 179.831 340.787 195.237 344.393 196.784Z" fill="#FFB27D"/>
<path d="M346.355 169.757C343.102 172.68 344.945 178.06 349.315 178.371C351.065 178.496 352.506 178.427 353.503 178.881C355.719 179.862 356.117 183.57 356.156 184.743C356.194 185.915 356.352 186.914 359.363 186.208C359.721 186.089 360.112 186.113 360.454 186.274C361.704 187.013 360.109 190.607 359.626 191.371C359.626 191.371 358.933 193.938 360.472 195.194C360.658 195.342 363.676 196.66 370.949 185.553C372.094 183.81 373.185 179.885 371.419 176.103C369.654 172.321 362.411 168.18 356.028 166.729C352.09 165.822 348.791 167.568 346.355 169.757Z" fill="#163560"/>
<path d="M344.324 191.076C344.324 191.076 344.137 192.22 346.805 193.135C346.805 193.135 349.046 193.9 349.455 192.727C349.455 192.727 347.677 191.037 344.324 191.076Z" fill="white"/>
<path d="M299.074 247.845C303.62 248.482 307.763 248.979 309.424 248.997C313.058 249.04 320.011 247.817 328.235 244.363C328.569 243.194 328.907 235.877 328.191 235.385C326.014 233.891 321.682 242.327 314.412 244.519C308.228 246.382 301.06 247.539 299.074 247.845Z" fill="#4F7FD3"/>
<path d="M374.55 275.267C374.961 275.405 375.404 275.421 375.824 275.314C376.245 275.206 376.625 274.979 376.919 274.661C376.196 267.573 375.897 259.15 377.374 247.042C377.754 243.902 378.24 240.564 378.651 237.661C378.651 237.661 372.564 232.439 370.474 236.751C368.383 241.063 374.348 252.514 371.067 259.354C367.786 266.194 370.87 274.238 374.55 275.267Z" fill="#4F7FD3"/>
<path d="M383.637 271.235C383.637 271.235 380.346 273.616 379.502 273.473C377.031 273.063 375.751 271.054 373.456 271.246C371.161 271.437 366.301 273.995 366.871 274.582C368.915 276.71 372.056 275.558 373.533 276.858C374.555 277.76 375.179 279.635 378.899 279.253C382.62 278.871 385.924 275.815 385.924 275.815L383.637 271.235Z" fill="#FFB27D"/>
<path d="M367.678 206.252C367.678 206.252 382.05 210.259 392.277 224.311C402.504 238.364 405.821 247.857 401.791 254.894C397.761 261.931 389.936 274.345 382.331 279.579C382.331 279.579 378.529 278.766 378.828 272.968C378.828 272.968 388.163 253.118 387.826 250.432C387.199 245.434 373.906 232.76 371 230.145C368.095 227.53 367.678 206.252 367.678 206.252Z" fill="#739AF0"/>
<path d="M377.949 273.2C377.949 273.2 376.293 270.652 376.068 269.905C375.843 269.158 375.465 270.29 375.621 271.057C375.716 271.512 375.704 271.984 375.585 272.433L377.949 273.2Z" fill="#FFB27D"/>
<path d="M266.942 396.889C268.219 397.399 272.819 396.989 272.967 396.634C273.116 396.28 270.113 392.779 268.827 392.259C268.522 392.135 268.195 392.073 267.865 392.075C267.536 392.078 267.21 392.145 266.906 392.273C266.602 392.401 266.327 392.588 266.096 392.822C265.864 393.056 265.682 393.334 265.558 393.639C265.434 393.943 265.371 394.269 265.374 394.598C265.376 394.927 265.444 395.252 265.572 395.555C265.701 395.858 265.888 396.132 266.123 396.363C266.358 396.594 266.636 396.776 266.942 396.9V396.889Z" fill="#A8D29F"/>
<path d="M278.528 399.076C277.805 400.259 277.48 404.846 277.817 405.052C278.155 405.259 282.095 402.863 282.816 401.683C282.999 401.402 283.123 401.088 283.181 400.758C283.24 400.428 283.232 400.09 283.157 399.764C283.083 399.437 282.943 399.129 282.747 398.857C282.551 398.586 282.302 398.356 282.016 398.181C281.729 398.007 281.41 397.892 281.078 397.843C280.746 397.793 280.408 397.811 280.082 397.894C279.757 397.978 279.452 398.125 279.185 398.328C278.918 398.531 278.695 398.785 278.528 399.076Z" fill="#A8D29F"/>
<path d="M272.339 408.055C273.66 408.475 278.216 407.708 278.326 407.333C278.436 406.959 275.185 403.704 273.864 403.284C273.55 403.183 273.219 403.146 272.891 403.173C272.562 403.2 272.242 403.291 271.948 403.442C271.655 403.592 271.394 403.799 271.181 404.05C270.968 404.301 270.806 404.591 270.706 404.905C270.605 405.218 270.567 405.548 270.594 405.876C270.622 406.204 270.713 406.523 270.864 406.815C271.015 407.108 271.222 407.368 271.474 407.58C271.726 407.793 272.017 407.954 272.331 408.055H272.339Z" fill="#A8D29F"/>
<path d="M279.026 412.497C279.026 412.392 278.515 402.007 272.814 396.645L272.934 396.517C278.689 401.928 279.2 412.385 279.203 412.489L279.026 412.497Z" fill="#A8D29F"/>
<path d="M298.057 397.114C297.257 397.644 294.081 397.993 293.93 397.766C293.779 397.539 295.333 394.754 296.133 394.224C296.323 394.088 296.538 393.993 296.766 393.942C296.994 393.892 297.23 393.887 297.459 393.93C297.689 393.972 297.907 394.06 298.102 394.188C298.297 394.316 298.464 394.482 298.593 394.676C298.722 394.87 298.811 395.088 298.854 395.317C298.897 395.546 298.893 395.781 298.843 396.008C298.793 396.236 298.698 396.451 298.563 396.641C298.428 396.831 298.256 396.991 298.057 397.114Z" fill="#A8D29F"/>
<path d="M290.495 400.197C291.149 400.901 292.005 403.969 291.806 404.155C291.607 404.341 288.599 403.261 287.945 402.56C287.789 402.393 287.668 402.196 287.589 401.982C287.509 401.768 287.473 401.541 287.481 401.313C287.49 401.085 287.544 400.861 287.639 400.653C287.735 400.446 287.87 400.259 288.038 400.104C288.206 399.949 288.403 399.829 288.617 399.749C288.832 399.67 289.06 399.634 289.288 399.642C289.517 399.651 289.742 399.704 289.95 399.8C290.158 399.895 290.345 400.03 290.5 400.197H290.495Z" fill="#A8D29F"/>
<path d="M295.943 405.432C295.105 405.901 291.911 406.005 291.775 405.768C291.64 405.531 293.406 402.871 294.244 402.402C294.647 402.177 295.123 402.121 295.567 402.246C296.011 402.372 296.388 402.668 296.613 403.07C296.838 403.471 296.894 403.946 296.769 404.389C296.643 404.832 296.346 405.207 295.943 405.432Z" fill="#A8D29F"/>
<path d="M292.018 409.377C292.018 409.306 290.909 402.185 294.037 397.758L293.937 397.687C290.781 402.157 291.893 409.324 291.893 409.41L292.018 409.377Z" fill="#A8D29F"/>
<path d="M286.373 411.89L286.01 411.834C284.582 393.398 278.937 380.171 278.855 379.99L279.185 379.847C279.266 380.031 284.952 393.347 286.373 411.89Z" fill="#A8D29F"/>
<path d="M275.03 378.135C275.725 378.922 278.983 380.173 279.21 379.987C279.438 379.801 278.579 376.407 277.884 375.622C277.719 375.432 277.519 375.277 277.293 375.165C277.068 375.053 276.823 374.987 276.572 374.97C276.321 374.953 276.069 374.986 275.831 375.067C275.593 375.148 275.373 375.275 275.184 375.441C274.996 375.607 274.842 375.808 274.732 376.034C274.622 376.26 274.558 376.505 274.544 376.755C274.529 377.006 274.565 377.257 274.648 377.493C274.732 377.73 274.861 377.948 275.03 378.135Z" fill="white"/>
<path d="M280.023 375.392C279.394 376.233 278.824 379.676 279.065 379.855C279.305 380.033 282.448 378.504 283.077 377.663C283.226 377.462 283.335 377.234 283.396 376.992C283.457 376.749 283.469 376.497 283.433 376.249C283.396 376.002 283.311 375.764 283.182 375.549C283.053 375.335 282.883 375.148 282.682 374.999C282.481 374.849 282.252 374.741 282.008 374.681C281.765 374.62 281.512 374.607 281.264 374.644C281.016 374.68 280.778 374.765 280.562 374.894C280.347 375.022 280.16 375.192 280.01 375.392H280.023Z" fill="white"/>
<path d="M283.772 379.052C282.75 378.777 279.338 379.506 279.259 379.794C279.18 380.082 281.755 382.442 282.77 382.717C283.011 382.782 283.263 382.8 283.511 382.768C283.759 382.737 283.999 382.657 284.216 382.533C284.433 382.41 284.624 382.244 284.777 382.047C284.93 381.85 285.042 381.625 285.108 381.384C285.174 381.143 285.192 380.892 285.16 380.645C285.128 380.397 285.048 380.158 284.924 379.942C284.8 379.725 284.634 379.535 284.437 379.383C284.239 379.23 284.013 379.118 283.772 379.052Z" fill="white"/>
<path d="M281.462 383.614C281.359 382.571 279.466 379.638 279.162 379.669C278.858 379.699 277.564 382.936 277.664 383.981C277.713 384.482 277.96 384.944 278.35 385.264C278.74 385.584 279.241 385.737 279.744 385.688C280.247 385.64 280.71 385.394 281.031 385.005C281.352 384.616 281.505 384.115 281.456 383.614H281.462Z" fill="white"/>
<path d="M276.274 383.39C277.204 382.903 279.21 380.046 279.085 379.781C278.96 379.516 275.446 379.539 274.516 380.036C274.293 380.151 274.095 380.309 273.933 380.5C273.772 380.692 273.65 380.913 273.575 381.152C273.499 381.391 273.472 381.642 273.494 381.892C273.517 382.141 273.589 382.384 273.705 382.605C273.822 382.827 273.982 383.023 274.175 383.183C274.368 383.343 274.591 383.463 274.831 383.537C275.071 383.611 275.323 383.636 275.573 383.612C275.823 383.588 276.065 383.515 276.287 383.397L276.274 383.39Z" fill="white"/>
<path d="M278.451 379.692C278.471 379.569 278.527 379.455 278.612 379.363C278.697 379.272 278.807 379.208 278.929 379.18C279.05 379.152 279.177 379.16 279.294 379.204C279.411 379.248 279.512 379.326 279.584 379.427C279.657 379.528 279.697 379.649 279.7 379.773C279.704 379.898 279.67 380.02 279.603 380.126C279.537 380.231 279.44 380.314 279.326 380.364C279.212 380.414 279.085 380.43 278.962 380.408C278.8 380.379 278.655 380.288 278.56 380.154C278.464 380.02 278.425 379.854 278.451 379.692Z" fill="#163560"/>
<path d="M286.268 393.044C285.246 394.318 284.117 399.637 284.48 399.925C284.842 400.213 289.846 398.041 290.868 396.772C291.136 396.474 291.341 396.124 291.469 395.745C291.598 395.365 291.648 394.964 291.616 394.564C291.585 394.165 291.472 393.776 291.286 393.421C291.099 393.067 290.843 392.753 290.531 392.5C290.22 392.247 289.86 392.06 289.474 391.95C289.088 391.839 288.683 391.808 288.285 391.858C287.886 391.908 287.502 392.039 287.156 392.241C286.809 392.443 286.507 392.714 286.268 393.036V393.044Z" fill="#A8D29F"/>
<path d="M265.784 413.776H265.528C262.958 401.668 258.048 393.388 257.979 393.27L258.186 393.148C258.266 393.258 263.211 401.594 265.784 413.776Z" fill="#A8D29F"/>
<path d="M255.286 392.371C255.817 392.832 258.097 393.39 258.225 393.235C258.352 393.079 257.491 390.913 256.947 390.452C256.823 390.329 256.675 390.234 256.512 390.171C256.349 390.108 256.175 390.079 256.001 390.085C255.826 390.092 255.655 390.134 255.498 390.209C255.34 390.284 255.2 390.391 255.085 390.522C254.971 390.654 254.884 390.807 254.832 390.973C254.779 391.139 254.761 391.314 254.778 391.487C254.796 391.66 254.849 391.828 254.934 391.98C255.019 392.132 255.134 392.265 255.273 392.371H255.286Z" fill="white"/>
<path d="M258.36 390.115C258.015 390.727 257.941 393.061 258.105 393.158C258.268 393.255 260.233 391.965 260.576 391.354C260.672 391.207 260.737 391.043 260.767 390.87C260.797 390.698 260.79 390.521 260.748 390.351C260.707 390.181 260.63 390.021 260.524 389.882C260.417 389.743 260.283 389.627 260.13 389.542C259.977 389.457 259.808 389.404 259.633 389.386C259.458 389.369 259.282 389.388 259.115 389.442C258.948 389.496 258.794 389.583 258.662 389.699C258.53 389.815 258.424 389.957 258.35 390.115H258.36Z" fill="white"/>
<path d="M261.169 392.213C260.471 392.118 258.266 392.903 258.24 393.102C258.215 393.301 260.129 394.631 260.826 394.733C260.997 394.767 261.174 394.766 261.344 394.73C261.515 394.693 261.676 394.622 261.819 394.521C261.961 394.42 262.08 394.291 262.171 394.142C262.261 393.993 262.32 393.827 262.343 393.655C262.366 393.482 262.354 393.307 262.307 393.139C262.26 392.972 262.179 392.816 262.069 392.68C261.959 392.545 261.822 392.434 261.667 392.354C261.512 392.273 261.343 392.225 261.169 392.213Z" fill="white"/>
<path d="M260.026 395.444C259.868 394.759 258.353 392.98 258.156 393.026C257.959 393.072 257.389 395.335 257.545 396.018C257.642 396.323 257.852 396.58 258.131 396.738C258.41 396.897 258.738 396.944 259.051 396.872C259.363 396.8 259.637 396.613 259.818 396.348C259.999 396.084 260.073 395.761 260.026 395.444Z" fill="white"/>
<path d="M256.574 395.748C257.151 395.345 258.23 393.273 258.107 393.107C257.985 392.942 255.672 393.268 255.097 393.673C254.945 393.763 254.813 393.882 254.709 394.025C254.606 394.168 254.533 394.331 254.496 394.503C254.459 394.675 254.458 394.854 254.494 395.026C254.529 395.199 254.6 395.362 254.702 395.506C254.804 395.65 254.935 395.771 255.086 395.862C255.237 395.953 255.406 396.012 255.581 396.035C255.756 396.057 255.934 396.043 256.104 395.994C256.273 395.945 256.431 395.861 256.566 395.748H256.574Z" fill="white"/>
<path d="M257.693 393.097C257.695 393.014 257.722 392.933 257.77 392.865C257.818 392.797 257.886 392.745 257.964 392.715C258.041 392.685 258.127 392.679 258.208 392.697C258.289 392.716 258.363 392.758 258.421 392.818C258.478 392.879 258.516 392.955 258.53 393.037C258.544 393.119 258.534 393.203 258.499 393.279C258.465 393.355 258.409 393.42 258.339 393.464C258.268 393.508 258.186 393.53 258.102 393.528C257.991 393.524 257.885 393.477 257.809 393.397C257.732 393.316 257.69 393.208 257.693 393.097Z" fill="#163560"/>
<path d="M264.056 401.278C263.481 402.211 263.21 405.842 263.476 406.005C263.742 406.169 266.87 404.288 267.445 403.355C267.721 402.907 267.807 402.368 267.685 401.856C267.563 401.344 267.241 400.902 266.792 400.627C266.343 400.351 265.802 400.265 265.289 400.387C264.776 400.509 264.333 400.83 264.056 401.278Z" fill="#A8D29F"/>
<path d="M305.002 412.176L305.324 412.125C306.602 395.707 311.624 383.925 311.695 383.764L311.401 383.639C311.327 383.8 306.265 395.661 305.002 412.176Z" fill="#A8D29F"/>
<path d="M315.102 382.113C314.483 382.814 311.58 383.94 311.379 383.764C311.177 383.588 311.941 380.573 312.559 379.875C312.706 379.708 312.885 379.571 313.086 379.473C313.286 379.374 313.504 379.316 313.727 379.302C313.949 379.287 314.173 379.317 314.384 379.389C314.596 379.46 314.791 379.573 314.959 379.72C315.127 379.867 315.264 380.045 315.362 380.245C315.461 380.445 315.519 380.662 315.534 380.884C315.548 381.106 315.519 381.329 315.447 381.54C315.375 381.751 315.262 381.945 315.115 382.113H315.102Z" fill="white"/>
<path d="M310.655 379.671C311.215 380.421 311.723 383.494 311.509 383.645C311.294 383.795 308.493 382.442 307.931 381.692C307.671 381.332 307.564 380.884 307.632 380.446C307.701 380.007 307.939 379.613 308.296 379.348C308.653 379.083 309.1 378.968 309.541 379.029C309.981 379.089 310.381 379.32 310.653 379.671H310.655Z" fill="white"/>
<path d="M307.315 382.931C308.22 382.676 311.266 383.334 311.335 383.591C311.404 383.848 309.112 385.948 308.207 386.193C307.773 386.311 307.31 386.252 306.92 386.03C306.53 385.807 306.244 385.439 306.126 385.007C306.007 384.574 306.066 384.112 306.289 383.723C306.512 383.334 306.881 383.049 307.315 382.931Z" fill="white"/>
<path d="M309.372 386.993C309.464 386.063 311.161 383.453 311.417 383.479C311.672 383.504 312.84 386.389 312.751 387.32C312.707 387.766 312.488 388.178 312.14 388.463C311.793 388.748 311.346 388.884 310.898 388.841C310.45 388.798 310.038 388.579 309.752 388.232C309.465 387.886 309.329 387.44 309.372 386.993Z" fill="white"/>
<path d="M313.993 386.795C313.165 386.359 311.378 383.815 311.501 383.578C311.624 383.341 314.741 383.364 315.569 383.797C315.767 383.901 315.942 384.042 316.084 384.212C316.227 384.383 316.335 384.58 316.401 384.792C316.467 385.004 316.491 385.228 316.471 385.449C316.451 385.67 316.387 385.885 316.284 386.082C316.18 386.279 316.039 386.454 315.868 386.596C315.696 386.738 315.499 386.845 315.286 386.912C315.073 386.978 314.85 387.001 314.628 386.981C314.406 386.961 314.19 386.898 313.993 386.795Z" fill="white"/>
<path d="M312.053 383.492C312.036 383.382 311.987 383.281 311.912 383.199C311.836 383.118 311.739 383.061 311.631 383.035C311.523 383.009 311.41 383.016 311.306 383.054C311.202 383.093 311.112 383.161 311.047 383.251C310.982 383.34 310.945 383.447 310.941 383.557C310.937 383.668 310.966 383.777 311.024 383.871C311.082 383.965 311.167 384.04 311.268 384.086C311.369 384.132 311.481 384.147 311.591 384.129C311.663 384.117 311.732 384.092 311.795 384.053C311.857 384.015 311.911 383.965 311.954 383.906C311.997 383.847 312.028 383.78 312.045 383.709C312.062 383.638 312.065 383.564 312.053 383.492Z" fill="#163560"/>
<path d="M304.249 399.787C305.171 400.916 306.165 405.649 305.843 405.921C305.521 406.194 301.067 404.245 300.145 403.118C299.704 402.575 299.498 401.88 299.57 401.185C299.643 400.491 299.989 399.853 300.532 399.413C301.076 398.972 301.772 398.764 302.469 398.835C303.165 398.906 303.806 399.249 304.249 399.79V399.787Z" fill="#A8D29F"/>
<path d="M252.776 415.045C252.776 415.045 254.601 410.256 261.232 409.948C267.864 409.64 272.428 413.557 277.904 411.752C283.381 409.948 292.45 405.891 301.026 408.59C309.602 411.289 311.049 415.038 311.049 415.038L252.776 415.045Z" fill="#A8D29F"/>
<path d="M697.853 414.9H-287.853C-288.487 414.9 -289 415.293 -289 415.777V416.123C-289 416.608 -288.487 417 -287.853 417H697.853C698.487 417 699 416.608 699 416.123V415.777C699 415.293 698.487 414.9 697.853 414.9Z" fill="#233862"/>
<path d="M119.412 296.127C120.69 297.582 126.728 299.922 127.145 299.557C127.561 299.193 125.982 292.931 124.694 291.479C124.388 291.133 124.016 290.85 123.601 290.648C123.186 290.445 122.734 290.326 122.272 290.297C121.811 290.268 121.348 290.33 120.91 290.48C120.473 290.63 120.069 290.864 119.722 291.169C119.375 291.474 119.092 291.845 118.889 292.259C118.686 292.673 118.566 293.123 118.537 293.584C118.509 294.044 118.571 294.506 118.721 294.942C118.871 295.379 119.106 295.781 119.412 296.127Z" fill="white"/>
<path d="M128.652 291.055C127.49 292.613 126.432 298.979 126.879 299.31C127.326 299.642 133.137 296.813 134.29 295.256C134.566 294.886 134.767 294.465 134.881 294.018C134.994 293.571 135.018 293.106 134.952 292.649C134.885 292.193 134.729 291.754 134.492 291.357C134.255 290.961 133.942 290.615 133.572 290.339C133.201 290.064 132.779 289.863 132.331 289.75C131.882 289.637 131.416 289.613 130.958 289.679C130.5 289.746 130.06 289.902 129.663 290.138C129.266 290.374 128.919 290.686 128.642 291.055H128.652Z" fill="white"/>
<path d="M135.588 297.824C133.71 297.315 127.382 298.663 127.237 299.198C127.091 299.733 131.857 304.094 133.735 304.606C134.636 304.85 135.598 304.726 136.408 304.264C137.218 303.801 137.811 303.036 138.056 302.138C138.302 301.239 138.18 300.281 137.717 299.472C137.254 298.663 136.488 298.071 135.588 297.824Z" fill="white"/>
<path d="M131.313 306.265C131.126 304.333 127.617 298.91 127.065 298.964C126.513 299.017 124.111 305.009 124.298 306.941C124.399 307.859 124.859 308.701 125.578 309.284C126.297 309.867 127.217 310.144 128.139 310.055C129.062 309.966 129.912 309.519 130.506 308.81C131.1 308.1 131.389 307.186 131.313 306.265Z" fill="white"/>
<path d="M121.714 305.85C123.437 304.948 127.15 299.662 126.892 299.173C126.634 298.683 120.163 298.727 118.441 299.629C117.614 300.062 116.993 300.805 116.715 301.694C116.437 302.584 116.524 303.547 116.959 304.372C117.393 305.197 118.138 305.816 119.029 306.093C119.921 306.37 120.887 306.283 121.714 305.85Z" fill="white"/>
<path d="M125.744 298.989C125.78 298.763 125.883 298.553 126.039 298.385C126.195 298.217 126.397 298.099 126.62 298.046C126.843 297.993 127.077 298.007 127.293 298.087C127.508 298.166 127.694 298.307 127.829 298.493C127.964 298.678 128.04 298.899 128.049 299.127C128.058 299.356 127.999 299.582 127.879 299.777C127.759 299.972 127.583 300.127 127.375 300.223C127.166 300.318 126.934 300.35 126.708 300.314C126.404 300.266 126.132 300.099 125.951 299.85C125.771 299.602 125.696 299.292 125.744 298.989Z" fill="#163560"/>
<path d="M252.549 329.717C253.162 330.41 256.037 331.527 256.237 331.351C256.436 331.175 255.682 328.193 255.069 327.5C254.923 327.335 254.746 327.2 254.547 327.103C254.349 327.007 254.134 326.95 253.914 326.936C253.693 326.922 253.473 326.952 253.264 327.023C253.055 327.095 252.863 327.206 252.697 327.352C252.532 327.498 252.397 327.674 252.3 327.872C252.203 328.07 252.146 328.284 252.132 328.504C252.118 328.724 252.148 328.944 252.22 329.152C252.291 329.36 252.403 329.552 252.549 329.717Z" fill="white"/>
<path d="M256.96 327.299C256.405 328.04 255.902 331.075 256.114 331.233C256.326 331.391 259.101 330.043 259.656 329.302C259.909 328.944 260.013 328.502 259.944 328.07C259.875 327.638 259.64 327.25 259.288 326.988C258.936 326.727 258.495 326.613 258.06 326.671C257.625 326.729 257.23 326.954 256.96 327.299Z" fill="white"/>
<path d="M260.261 330.525C259.367 330.283 256.349 330.925 256.28 331.18C256.211 331.435 258.483 333.517 259.38 333.759C259.596 333.826 259.823 333.85 260.048 333.827C260.273 333.805 260.491 333.738 260.69 333.629C260.888 333.521 261.062 333.374 261.202 333.197C261.342 333.02 261.445 332.816 261.504 332.599C261.564 332.381 261.578 332.154 261.548 331.93C261.517 331.707 261.441 331.492 261.325 331.298C261.209 331.105 261.055 330.936 260.872 330.803C260.69 330.671 260.482 330.576 260.261 330.525Z" fill="white"/>
<path d="M258.238 334.552C258.148 333.629 256.474 331.045 256.211 331.07C255.948 331.096 254.803 333.953 254.892 334.873C254.951 335.303 255.173 335.693 255.514 335.963C255.855 336.232 256.287 336.36 256.72 336.318C257.153 336.277 257.553 336.069 257.836 335.74C258.119 335.411 258.263 334.985 258.238 334.552Z" fill="white"/>
<path d="M253.638 334.353C254.458 333.922 256.229 331.402 256.106 331.167C255.984 330.933 252.897 330.956 252.074 331.386C251.87 331.484 251.688 331.621 251.538 331.79C251.389 331.96 251.275 332.157 251.204 332.371C251.133 332.585 251.106 332.811 251.124 333.036C251.143 333.261 251.207 333.48 251.312 333.679C251.417 333.879 251.562 334.055 251.737 334.198C251.912 334.34 252.114 334.446 252.331 334.509C252.548 334.572 252.776 334.591 253 334.564C253.225 334.537 253.442 334.465 253.638 334.353Z" fill="white"/>
<path d="M255.57 331.081C255.587 330.973 255.636 330.873 255.711 330.794C255.785 330.714 255.881 330.658 255.988 330.633C256.094 330.608 256.205 330.615 256.307 330.653C256.41 330.691 256.498 330.759 256.562 330.847C256.626 330.935 256.662 331.04 256.666 331.149C256.67 331.258 256.642 331.365 256.584 331.458C256.527 331.551 256.444 331.624 256.344 331.67C256.245 331.715 256.135 331.73 256.027 331.713C255.955 331.701 255.887 331.676 255.825 331.638C255.763 331.6 255.709 331.55 255.667 331.491C255.624 331.433 255.594 331.366 255.577 331.296C255.561 331.225 255.558 331.152 255.57 331.081Z" fill="#163560"/>
<path d="M218 146C218 138.82 223.82 133 231 133H308C315.18 133 321 138.82 321 146V174H231C223.82 174 218 168.18 218 161V146Z" fill="white"/>
<path d="M184 181C184 173.82 178.18 168 171 168H89C81.8203 168 76 173.82 76 181V208H171C178.18 208 184 202.18 184 195V181Z" fill="#FC8900"/>
<path d="M233.328 144.7V147.4H229.728V144.7H228.936V151H229.728V148.138H233.328V151H234.12V144.7H233.328ZM235.544 148.723C235.526 150.01 236.507 151.153 237.884 151.126C239.261 151.153 240.242 150.01 240.224 148.723C240.242 147.436 239.261 146.293 237.884 146.32C236.507 146.293 235.526 147.436 235.544 148.723ZM239.432 148.723C239.432 149.218 239.288 149.632 239 149.947C238.721 150.262 238.343 150.424 237.884 150.424C237.425 150.424 237.047 150.262 236.759 149.947C236.48 149.632 236.336 149.218 236.336 148.723C236.336 148.228 236.48 147.814 236.759 147.499C237.047 147.184 237.425 147.022 237.884 147.022C238.343 147.022 238.721 147.184 239 147.499C239.288 147.814 239.432 148.228 239.432 148.723ZM247.155 146.446L245.994 150.073L244.788 146.446H243.96L242.754 150.073L241.593 146.446H240.828L242.322 151H243.15L244.374 147.31L245.598 151H246.426L247.92 146.446H247.155ZM256.542 146.446L255.381 150.073L254.175 146.446H253.347L252.141 150.073L250.98 146.446H250.215L251.709 151H252.537L253.761 147.31L254.985 151H255.813L257.307 146.446H256.542ZM261.764 146.446V147.283C261.503 146.698 260.846 146.32 260.081 146.32C258.83 146.32 257.912 147.319 257.912 148.723C257.912 150.127 258.83 151.126 260.081 151.126C260.846 151.126 261.503 150.748 261.764 150.163V151H262.52V146.446H261.764ZM261.8 148.723C261.8 149.218 261.656 149.632 261.368 149.947C261.089 150.262 260.711 150.424 260.252 150.424C259.793 150.424 259.415 150.262 259.127 149.947C258.848 149.632 258.704 149.218 258.704 148.723C258.704 148.228 258.848 147.814 259.127 147.499C259.415 147.184 259.793 147.022 260.252 147.022C260.711 147.022 261.089 147.184 261.368 147.499C261.656 147.814 261.8 148.228 261.8 148.723ZM263.71 150.136C264.07 150.748 264.817 151.126 265.744 151.126C266.86 151.126 267.535 150.559 267.535 149.695C267.535 149.056 267.148 148.651 266.248 148.444L265.447 148.264C264.835 148.12 264.628 147.949 264.628 147.652C264.628 147.247 264.97 147.004 265.618 147.004C266.185 147.004 266.644 147.193 266.941 147.544L267.463 147.094C267.094 146.599 266.455 146.32 265.663 146.32C264.556 146.32 263.872 146.869 263.872 147.67C263.872 148.309 264.322 148.723 265.258 148.939L265.978 149.101C266.554 149.236 266.779 149.425 266.779 149.749C266.779 150.172 266.383 150.442 265.735 150.442C265.114 150.442 264.583 150.199 264.259 149.731L263.71 150.136ZM274.791 148.084C274.791 146.959 274.206 146.32 273.171 146.32C272.424 146.32 271.839 146.644 271.587 147.22V144.412H270.831V151H271.587V148.291C271.587 147.526 272.172 147.022 272.991 147.022C273.711 147.022 274.035 147.4 274.035 148.264V151H274.791V148.084ZM280.471 148.957C280.489 148.822 280.498 148.687 280.498 148.552C280.498 147.229 279.598 146.32 278.329 146.32C276.988 146.32 276.052 147.337 276.052 148.732C276.052 150.145 277.015 151.126 278.392 151.126C279.229 151.126 279.931 150.766 280.372 150.145L279.859 149.713C279.481 150.19 278.995 150.424 278.41 150.424C277.519 150.424 276.907 149.866 276.826 148.957H280.471ZM276.844 148.345C276.979 147.526 277.528 147.022 278.329 147.022C279.121 147.022 279.652 147.508 279.724 148.345H276.844ZM287.375 146.446V147.283C287.114 146.698 286.457 146.32 285.692 146.32C284.441 146.32 283.523 147.319 283.523 148.723C283.523 150.127 284.441 151.126 285.692 151.126C286.457 151.126 287.114 150.748 287.375 150.163V151H288.131V146.446H287.375ZM287.411 148.723C287.411 149.218 287.267 149.632 286.979 149.947C286.7 150.262 286.322 150.424 285.863 150.424C285.404 150.424 285.026 150.262 284.738 149.947C284.459 149.632 284.315 149.218 284.315 148.723C284.315 148.228 284.459 147.814 284.738 147.499C285.026 147.184 285.404 147.022 285.863 147.022C286.322 147.022 286.7 147.184 286.979 147.499C287.267 147.814 287.411 148.228 287.411 148.723ZM294.361 148.723C294.361 147.319 293.443 146.32 292.201 146.32C291.436 146.32 290.788 146.698 290.509 147.283V144.412H289.753V151H290.509V150.163C290.788 150.748 291.436 151.126 292.201 151.126C293.443 151.126 294.361 150.127 294.361 148.723ZM293.569 148.723C293.569 149.218 293.425 149.632 293.137 149.947C292.858 150.262 292.48 150.424 292.021 150.424C291.562 150.424 291.184 150.262 290.896 149.947C290.617 149.632 290.473 149.218 290.473 148.723C290.473 148.228 290.617 147.814 290.896 147.499C291.184 147.184 291.562 147.022 292.021 147.022C292.48 147.022 292.858 147.184 293.137 147.499C293.425 147.814 293.569 148.228 293.569 148.723ZM295.66 151H296.416V144.412H295.66V151ZM302.128 148.957C302.146 148.822 302.155 148.687 302.155 148.552C302.155 147.229 301.255 146.32 299.986 146.32C298.645 146.32 297.709 147.337 297.709 148.732C297.709 150.145 298.672 151.126 300.049 151.126C300.886 151.126 301.588 150.766 302.029 150.145L301.516 149.713C301.138 150.19 300.652 150.424 300.067 150.424C299.176 150.424 298.564 149.866 298.483 148.957H302.128ZM298.501 148.345C298.636 147.526 299.185 147.022 299.986 147.022C300.778 147.022 301.309 147.508 301.381 148.345H298.501ZM305.705 149.83C305.705 150.649 306.191 151.072 307.091 151.072C307.379 151.072 307.649 151.036 307.91 150.955V150.325C307.649 150.379 307.406 150.406 307.199 150.406C306.686 150.406 306.461 150.217 306.461 149.776V147.094H307.892V146.446H306.461V145.096H305.705V146.446H304.796V147.094H305.705V149.83ZM308.651 148.723C308.633 150.01 309.614 151.153 310.991 151.126C312.368 151.153 313.349 150.01 313.331 148.723C313.349 147.436 312.368 146.293 310.991 146.32C309.614 146.293 308.633 147.436 308.651 148.723ZM312.539 148.723C312.539 149.218 312.395 149.632 312.107 149.947C311.828 150.262 311.45 150.424 310.991 150.424C310.532 150.424 310.154 150.262 309.866 149.947C309.587 149.632 309.443 149.218 309.443 148.723C309.443 148.228 309.587 147.814 309.866 147.499C310.154 147.184 310.532 147.022 310.991 147.022C311.45 147.022 311.828 147.184 312.107 147.499C312.395 147.814 312.539 148.228 312.539 148.723ZM233.418 161.723C233.418 160.319 232.5 159.32 231.258 159.32C230.493 159.32 229.845 159.698 229.566 160.283V159.446H228.81V165.8H229.566V163.163C229.845 163.748 230.493 164.126 231.258 164.126C232.5 164.126 233.418 163.127 233.418 161.723ZM232.626 161.723C232.626 162.218 232.482 162.632 232.194 162.947C231.915 163.262 231.537 163.424 231.078 163.424C230.619 163.424 230.241 163.262 229.953 162.947C229.674 162.632 229.53 162.218 229.53 161.723C229.53 161.228 229.674 160.814 229.953 160.499C230.241 160.184 230.619 160.022 231.078 160.022C231.537 160.022 231.915 160.184 232.194 160.499C232.482 160.814 232.626 161.228 232.626 161.723ZM238.244 159.446V160.283C237.983 159.698 237.326 159.32 236.561 159.32C235.31 159.32 234.392 160.319 234.392 161.723C234.392 163.127 235.31 164.126 236.561 164.126C237.326 164.126 237.983 163.748 238.244 163.163V164H239V159.446H238.244ZM238.28 161.723C238.28 162.218 238.136 162.632 237.848 162.947C237.569 163.262 237.191 163.424 236.732 163.424C236.273 163.424 235.895 163.262 235.607 162.947C235.328 162.632 235.184 162.218 235.184 161.723C235.184 161.228 235.328 160.814 235.607 160.499C235.895 160.184 236.273 160.022 236.732 160.022C237.191 160.022 237.569 160.184 237.848 160.499C238.136 160.814 238.28 161.228 238.28 161.723ZM243.728 159.446V162.029C243.728 162.785 243.134 163.298 242.306 163.298C241.595 163.298 241.262 162.92 241.262 162.056V159.446H240.506V162.236C240.506 163.379 241.109 164 242.125 164C242.873 164 243.467 163.676 243.728 163.1V163.559C243.728 164.666 243.188 165.224 242.243 165.224C241.703 165.224 241.181 165.035 240.812 164.702L240.371 165.242C240.794 165.674 241.496 165.926 242.261 165.926C243.665 165.926 244.484 165.098 244.484 163.559V159.446H243.728ZM252.141 161.084C252.141 159.959 251.556 159.32 250.521 159.32C249.774 159.32 249.189 159.644 248.937 160.22V157.412H248.181V164H248.937V161.291C248.937 160.526 249.522 160.022 250.341 160.022C251.061 160.022 251.385 160.4 251.385 161.264V164H252.141V161.084ZM253.592 157.97C253.592 158.267 253.817 158.492 254.114 158.492C254.411 158.492 254.636 158.267 254.636 157.97C254.636 157.673 254.411 157.448 254.114 157.448C253.817 157.448 253.592 157.673 253.592 157.97ZM253.736 164H254.492V159.446H253.736V164ZM255.686 163.136C256.046 163.748 256.793 164.126 257.72 164.126C258.836 164.126 259.511 163.559 259.511 162.695C259.511 162.056 259.124 161.651 258.224 161.444L257.423 161.264C256.811 161.12 256.604 160.949 256.604 160.652C256.604 160.247 256.946 160.004 257.594 160.004C258.161 160.004 258.62 160.193 258.917 160.544L259.439 160.094C259.07 159.599 258.431 159.32 257.639 159.32C256.532 159.32 255.848 159.869 255.848 160.67C255.848 161.309 256.298 161.723 257.234 161.939L257.954 162.101C258.53 162.236 258.755 162.425 258.755 162.749C258.755 163.172 258.359 163.442 257.711 163.442C257.09 163.442 256.559 163.199 256.235 162.731L255.686 163.136ZM266.766 161.084C266.766 159.959 266.181 159.32 265.146 159.32C264.399 159.32 263.814 159.644 263.562 160.22V157.412H262.806V164H263.562V161.291C263.562 160.526 264.147 160.022 264.966 160.022C265.686 160.022 266.01 160.4 266.01 161.264V164H266.766V161.084ZM268.028 161.723C268.01 163.01 268.991 164.153 270.368 164.126C271.745 164.153 272.726 163.01 272.708 161.723C272.726 160.436 271.745 159.293 270.368 159.32C268.991 159.293 268.01 160.436 268.028 161.723ZM271.916 161.723C271.916 162.218 271.772 162.632 271.484 162.947C271.205 163.262 270.827 163.424 270.368 163.424C269.909 163.424 269.531 163.262 269.243 162.947C268.964 162.632 268.82 162.218 268.82 161.723C268.82 161.228 268.964 160.814 269.243 160.499C269.531 160.184 269.909 160.022 270.368 160.022C270.827 160.022 271.205 160.184 271.484 160.499C271.772 160.814 271.916 161.228 271.916 161.723ZM273.913 162.299C273.913 163.379 274.696 164.126 275.875 164.126C277.054 164.126 277.837 163.379 277.837 162.299V159.446H277.081V162.254C277.081 163.01 276.64 163.424 275.875 163.424C275.11 163.424 274.669 163.01 274.669 162.254V159.446H273.913V162.299ZM278.933 163.136C279.293 163.748 280.04 164.126 280.967 164.126C282.083 164.126 282.758 163.559 282.758 162.695C282.758 162.056 282.371 161.651 281.471 161.444L280.67 161.264C280.058 161.12 279.851 160.949 279.851 160.652C279.851 160.247 280.193 160.004 280.841 160.004C281.408 160.004 281.867 160.193 282.164 160.544L282.686 160.094C282.317 159.599 281.678 159.32 280.886 159.32C279.779 159.32 279.095 159.869 279.095 160.67C279.095 161.309 279.545 161.723 280.481 161.939L281.201 162.101C281.777 162.236 282.002 162.425 282.002 162.749C282.002 163.172 281.606 163.442 280.958 163.442C280.337 163.442 279.806 163.199 279.482 162.731L278.933 163.136ZM288.074 161.957C288.092 161.822 288.101 161.687 288.101 161.552C288.101 160.229 287.201 159.32 285.932 159.32C284.591 159.32 283.655 160.337 283.655 161.732C283.655 163.145 284.618 164.126 285.995 164.126C286.832 164.126 287.534 163.766 287.975 163.145L287.462 162.713C287.084 163.19 286.598 163.424 286.013 163.424C285.122 163.424 284.51 162.866 284.429 161.957H288.074ZM284.447 161.345C284.582 160.526 285.131 160.022 285.932 160.022C286.724 160.022 287.255 160.508 287.327 161.345H284.447ZM294.006 159.437C293.889 159.392 293.745 159.374 293.592 159.374C292.917 159.374 292.413 159.716 292.206 160.301V159.446H291.45V164H292.206V161.669C292.206 160.598 292.719 160.076 293.61 160.076C293.745 160.076 293.871 160.085 294.006 160.103V159.437ZM298.955 161.957C298.973 161.822 298.982 161.687 298.982 161.552C298.982 160.229 298.082 159.32 296.813 159.32C295.472 159.32 294.536 160.337 294.536 161.732C294.536 163.145 295.499 164.126 296.876 164.126C297.713 164.126 298.415 163.766 298.856 163.145L298.343 162.713C297.965 163.19 297.479 163.424 296.894 163.424C296.003 163.424 295.391 162.866 295.31 161.957H298.955ZM295.328 161.345C295.463 160.526 296.012 160.022 296.813 160.022C297.605 160.022 298.136 160.508 298.208 161.345H295.328ZM304.216 161.084C304.216 159.959 303.631 159.32 302.596 159.32C301.849 159.32 301.264 159.644 301.012 160.22V159.446H300.256V164H301.012V161.291C301.012 160.526 301.597 160.022 302.416 160.022C303.136 160.022 303.46 160.4 303.46 161.264V164H304.216V161.084ZM306.082 162.83C306.082 163.649 306.568 164.072 307.468 164.072C307.756 164.072 308.026 164.036 308.287 163.955V163.325C308.026 163.379 307.783 163.406 307.576 163.406C307.063 163.406 306.838 163.217 306.838 162.776V160.094H308.269V159.446H306.838V158.096H306.082V159.446H305.173V160.094H306.082V162.83Z" fill="#6A6A6A"/>
<path d="M86.954 184H87.746V177.7H86.954V184ZM95.5425 181.084C95.5425 179.959 94.9575 179.32 93.9225 179.32C93.1755 179.32 92.5905 179.644 92.3385 180.22V177.412H91.5825V184H92.3385V181.291C92.3385 180.526 92.9235 180.022 93.7425 180.022C94.4625 180.022 94.7865 180.4 94.7865 181.264V184H95.5425V181.084ZM101.223 181.957C101.241 181.822 101.25 181.687 101.25 181.552C101.25 180.229 100.35 179.32 99.0814 179.32C97.7404 179.32 96.8044 180.337 96.8044 181.732C96.8044 183.145 97.7674 184.126 99.1444 184.126C99.9814 184.126 100.683 183.766 101.124 183.145L100.611 182.713C100.233 183.19 99.7474 183.424 99.1624 183.424C98.2714 183.424 97.6594 182.866 97.5784 181.957H101.223ZM97.5964 181.345C97.7314 180.526 98.2804 180.022 99.0814 180.022C99.8734 180.022 100.404 180.508 100.476 181.345H97.5964ZM106.053 179.446V180.283C105.792 179.698 105.135 179.32 104.37 179.32C103.119 179.32 102.201 180.319 102.201 181.723C102.201 183.127 103.119 184.126 104.37 184.126C105.135 184.126 105.792 183.748 106.053 183.163V184H106.809V179.446H106.053ZM106.089 181.723C106.089 182.218 105.945 182.632 105.657 182.947C105.378 183.262 105 183.424 104.541 183.424C104.082 183.424 103.704 183.262 103.416 182.947C103.137 182.632 102.993 182.218 102.993 181.723C102.993 181.228 103.137 180.814 103.416 180.499C103.704 180.184 104.082 180.022 104.541 180.022C105 180.022 105.378 180.184 105.657 180.499C105.945 180.814 106.089 181.228 106.089 181.723ZM110.987 179.437C110.87 179.392 110.726 179.374 110.573 179.374C109.898 179.374 109.394 179.716 109.187 180.301V179.446H108.431V184H109.187V181.669C109.187 180.598 109.7 180.076 110.591 180.076C110.726 180.076 110.852 180.085 110.987 180.103V179.437ZM115.369 177.412V180.283C115.09 179.698 114.442 179.32 113.677 179.32C112.435 179.32 111.517 180.319 111.517 181.723C111.517 183.127 112.435 184.126 113.677 184.126C114.442 184.126 115.09 183.748 115.369 183.163V184H116.125V177.412H115.369ZM115.405 181.723C115.405 182.218 115.261 182.632 114.973 182.947C114.694 183.262 114.316 183.424 113.857 183.424C113.398 183.424 113.02 183.262 112.732 182.947C112.453 182.632 112.309 182.218 112.309 181.723C112.309 181.228 112.453 180.814 112.732 180.499C113.02 180.184 113.398 180.022 113.857 180.022C114.316 180.022 114.694 180.184 114.973 180.499C115.261 180.814 115.405 181.228 115.405 181.723ZM123.782 181.084C123.782 179.959 123.197 179.32 122.162 179.32C121.415 179.32 120.83 179.644 120.578 180.22V177.412H119.822V184H120.578V181.291C120.578 180.526 121.163 180.022 121.982 180.022C122.702 180.022 123.026 180.4 123.026 181.264V184H123.782V181.084ZM129.463 181.957C129.481 181.822 129.49 181.687 129.49 181.552C129.49 180.229 128.59 179.32 127.321 179.32C125.98 179.32 125.044 180.337 125.044 181.732C125.044 183.145 126.007 184.126 127.384 184.126C128.221 184.126 128.923 183.766 129.364 183.145L128.851 182.713C128.473 183.19 127.987 183.424 127.402 183.424C126.511 183.424 125.899 182.866 125.818 181.957H129.463ZM125.836 181.345C125.971 180.526 126.52 180.022 127.321 180.022C128.113 180.022 128.644 180.508 128.716 181.345H125.836ZM132.748 182.299C132.748 183.379 133.531 184.126 134.71 184.126C135.889 184.126 136.672 183.379 136.672 182.299V179.446H135.916V182.254C135.916 183.01 135.475 183.424 134.71 183.424C133.945 183.424 133.504 183.01 133.504 182.254V179.446H132.748V182.299ZM137.768 183.136C138.128 183.748 138.875 184.126 139.802 184.126C140.918 184.126 141.593 183.559 141.593 182.695C141.593 182.056 141.206 181.651 140.306 181.444L139.505 181.264C138.893 181.12 138.686 180.949 138.686 180.652C138.686 180.247 139.028 180.004 139.676 180.004C140.243 180.004 140.702 180.193 140.999 180.544L141.521 180.094C141.152 179.599 140.513 179.32 139.721 179.32C138.614 179.32 137.93 179.869 137.93 180.67C137.93 181.309 138.38 181.723 139.316 181.939L140.036 182.101C140.612 182.236 140.837 182.425 140.837 182.749C140.837 183.172 140.441 183.442 139.793 183.442C139.172 183.442 138.641 183.199 138.317 182.731L137.768 183.136ZM146.909 181.957C146.927 181.822 146.936 181.687 146.936 181.552C146.936 180.229 146.036 179.32 144.767 179.32C143.426 179.32 142.49 180.337 142.49 181.732C142.49 183.145 143.453 184.126 144.83 184.126C145.667 184.126 146.369 183.766 146.81 183.145L146.297 182.713C145.919 183.19 145.433 183.424 144.848 183.424C143.957 183.424 143.345 182.866 143.264 181.957H146.909ZM143.282 181.345C143.417 180.526 143.966 180.022 144.767 180.022C145.559 180.022 146.09 180.508 146.162 181.345H143.282ZM151.738 177.412V180.283C151.459 179.698 150.811 179.32 150.046 179.32C148.804 179.32 147.886 180.319 147.886 181.723C147.886 183.127 148.804 184.126 150.046 184.126C150.811 184.126 151.459 183.748 151.738 183.163V184H152.494V177.412H151.738ZM151.774 181.723C151.774 182.218 151.63 182.632 151.342 182.947C151.063 183.262 150.685 183.424 150.226 183.424C149.767 183.424 149.389 183.262 149.101 182.947C148.822 182.632 148.678 182.218 148.678 181.723C148.678 181.228 148.822 180.814 149.101 180.499C149.389 180.184 149.767 180.022 150.226 180.022C150.685 180.022 151.063 180.184 151.342 180.499C151.63 180.814 151.774 181.228 151.774 181.723ZM86.378 196.136C86.738 196.748 87.485 197.126 88.412 197.126C89.528 197.126 90.203 196.559 90.203 195.695C90.203 195.056 89.816 194.651 88.916 194.444L88.115 194.264C87.503 194.12 87.296 193.949 87.296 193.652C87.296 193.247 87.638 193.004 88.286 193.004C88.853 193.004 89.312 193.193 89.609 193.544L90.131 193.094C89.762 192.599 89.123 192.32 88.331 192.32C87.224 192.32 86.54 192.869 86.54 193.67C86.54 194.309 86.99 194.723 87.926 194.939L88.646 195.101C89.222 195.236 89.447 195.425 89.447 195.749C89.447 196.172 89.051 196.442 88.403 196.442C87.782 196.442 87.251 196.199 86.927 195.731L86.378 196.136ZM94.9523 192.446V193.283C94.6913 192.698 94.0343 192.32 93.2693 192.32C92.0183 192.32 91.1003 193.319 91.1003 194.723C91.1003 196.127 92.0183 197.126 93.2693 197.126C94.0343 197.126 94.6913 196.748 94.9523 196.163V197H95.7083V192.446H94.9523ZM94.9883 194.723C94.9883 195.218 94.8443 195.632 94.5563 195.947C94.2773 196.262 93.8993 196.424 93.4403 196.424C92.9813 196.424 92.6033 196.262 92.3153 195.947C92.0363 195.632 91.8923 195.218 91.8923 194.723C91.8923 194.228 92.0363 193.814 92.3153 193.499C92.6033 193.184 92.9813 193.022 93.4403 193.022C93.8993 193.022 94.2773 193.184 94.5563 193.499C94.8443 193.814 94.9883 194.228 94.9883 194.723ZM97.3305 197H98.0865V190.412H97.3305V197ZM103.232 192.446V193.283C102.971 192.698 102.314 192.32 101.549 192.32C100.298 192.32 99.3796 193.319 99.3796 194.723C99.3796 196.127 100.298 197.126 101.549 197.126C102.314 197.126 102.971 196.748 103.232 196.163V197H103.988V192.446H103.232ZM103.268 194.723C103.268 195.218 103.124 195.632 102.836 195.947C102.557 196.262 102.179 196.424 101.72 196.424C101.261 196.424 100.883 196.262 100.595 195.947C100.316 195.632 100.172 195.218 100.172 194.723C100.172 194.228 100.316 193.814 100.595 193.499C100.883 193.184 101.261 193.022 101.72 193.022C102.179 193.022 102.557 193.184 102.836 193.499C103.124 193.814 103.268 194.228 103.268 194.723ZM108.166 192.437C108.049 192.392 107.905 192.374 107.752 192.374C107.077 192.374 106.573 192.716 106.366 193.301V192.446H105.61V197H106.366V194.669C106.366 193.598 106.879 193.076 107.77 193.076C107.905 193.076 108.031 193.085 108.166 193.103V192.437ZM112.353 192.446V195.029C112.353 195.785 111.759 196.298 110.931 196.298C110.22 196.298 109.887 195.92 109.887 195.056V192.446H109.131V195.236C109.131 196.379 109.734 197 110.751 197C111.498 197 112.092 196.676 112.353 196.1V196.559C112.353 197.666 111.813 198.224 110.868 198.224C110.328 198.224 109.806 198.035 109.437 197.702L108.996 198.242C109.419 198.674 110.121 198.926 110.886 198.926C112.29 198.926 113.109 198.098 113.109 196.559V192.446H112.353ZM119.341 194.723C119.341 193.319 118.423 192.32 117.181 192.32C116.416 192.32 115.768 192.698 115.489 193.283V192.446H114.733V198.8H115.489V196.163C115.768 196.748 116.416 197.126 117.181 197.126C118.423 197.126 119.341 196.127 119.341 194.723ZM118.549 194.723C118.549 195.218 118.405 195.632 118.117 195.947C117.838 196.262 117.46 196.424 117.001 196.424C116.542 196.424 116.164 196.262 115.876 195.947C115.597 195.632 115.453 195.218 115.453 194.723C115.453 194.228 115.597 193.814 115.876 193.499C116.164 193.184 116.542 193.022 117.001 193.022C117.46 193.022 117.838 193.184 118.117 193.499C118.405 193.814 118.549 194.228 118.549 194.723ZM124.167 192.446V193.283C123.906 192.698 123.249 192.32 122.484 192.32C121.233 192.32 120.315 193.319 120.315 194.723C120.315 196.127 121.233 197.126 122.484 197.126C123.249 197.126 123.906 196.748 124.167 196.163V197H124.923V192.446H124.167ZM124.203 194.723C124.203 195.218 124.059 195.632 123.771 195.947C123.492 196.262 123.114 196.424 122.655 196.424C122.196 196.424 121.818 196.262 121.53 195.947C121.251 195.632 121.107 195.218 121.107 194.723C121.107 194.228 121.251 193.814 121.53 193.499C121.818 193.184 122.196 193.022 122.655 193.022C123.114 193.022 123.492 193.184 123.771 193.499C124.059 193.814 124.203 194.228 124.203 194.723ZM129.65 192.446V195.029C129.65 195.785 129.056 196.298 128.228 196.298C127.517 196.298 127.184 195.92 127.184 195.056V192.446H126.428V195.236C126.428 196.379 127.031 197 128.048 197C128.795 197 129.389 196.676 129.65 196.1V196.559C129.65 197.666 129.11 198.224 128.165 198.224C127.625 198.224 127.103 198.035 126.734 197.702L126.293 198.242C126.716 198.674 127.418 198.926 128.183 198.926C129.587 198.926 130.406 198.098 130.406 196.559V192.446H129.65ZM135.558 190.412V193.283C135.279 192.698 134.631 192.32 133.866 192.32C132.624 192.32 131.706 193.319 131.706 194.723C131.706 196.127 132.624 197.126 133.866 197.126C134.631 197.126 135.279 196.748 135.558 196.163V197H136.314V190.412H135.558ZM135.594 194.723C135.594 195.218 135.45 195.632 135.162 195.947C134.883 196.262 134.505 196.424 134.046 196.424C133.587 196.424 133.209 196.262 132.921 195.947C132.642 195.632 132.498 195.218 132.498 194.723C132.498 194.228 132.642 193.814 132.921 193.499C133.209 193.184 133.587 193.022 134.046 193.022C134.505 193.022 134.883 193.184 135.162 193.499C135.45 193.814 135.594 194.228 135.594 194.723ZM141.464 192.446V193.283C141.203 192.698 140.546 192.32 139.781 192.32C138.53 192.32 137.612 193.319 137.612 194.723C137.612 196.127 138.53 197.126 139.781 197.126C140.546 197.126 141.203 196.748 141.464 196.163V197H142.22V192.446H141.464ZM141.5 194.723C141.5 195.218 141.356 195.632 141.068 195.947C140.789 196.262 140.411 196.424 139.952 196.424C139.493 196.424 139.115 196.262 138.827 195.947C138.548 195.632 138.404 195.218 138.404 194.723C138.404 194.228 138.548 193.814 138.827 193.499C139.115 193.184 139.493 193.022 139.952 193.022C140.411 193.022 140.789 193.184 141.068 193.499C141.356 193.814 141.5 194.228 141.5 194.723ZM146.947 192.446V195.029C146.947 195.785 146.353 196.298 145.525 196.298C144.814 196.298 144.481 195.92 144.481 195.056V192.446H143.725V195.236C143.725 196.379 144.328 197 145.345 197C146.092 197 146.686 196.676 146.947 196.1V196.559C146.947 197.666 146.407 198.224 145.462 198.224C144.922 198.224 144.4 198.035 144.031 197.702L143.59 198.242C144.013 198.674 144.715 198.926 145.48 198.926C146.884 198.926 147.703 198.098 147.703 196.559V192.446H146.947ZM149.102 196.523C149.102 196.847 149.318 197.072 149.642 197.072C149.966 197.072 150.182 196.847 150.182 196.523C150.182 196.208 149.966 195.992 149.642 195.992C149.318 195.992 149.102 196.208 149.102 196.523ZM151.024 194.723C151.024 196.109 151.978 197.126 153.364 197.126C154.201 197.126 154.885 196.775 155.272 196.136L154.678 195.722C154.399 196.181 153.94 196.424 153.373 196.424C152.914 196.424 152.536 196.271 152.248 195.956C151.96 195.641 151.816 195.236 151.816 194.723C151.816 194.21 151.96 193.805 152.248 193.49C152.536 193.175 152.914 193.022 153.373 193.022C153.94 193.022 154.399 193.265 154.678 193.724L155.272 193.31C154.885 192.671 154.201 192.32 153.364 192.32C151.978 192.32 151.024 193.337 151.024 194.723ZM156.06 194.723C156.042 196.01 157.023 197.153 158.4 197.126C159.777 197.153 160.758 196.01 160.74 194.723C160.758 193.436 159.777 192.293 158.4 192.32C157.023 192.293 156.042 193.436 156.06 194.723ZM159.948 194.723C159.948 195.218 159.804 195.632 159.516 195.947C159.237 196.262 158.859 196.424 158.4 196.424C157.941 196.424 157.563 196.262 157.275 195.947C156.996 195.632 156.852 195.218 156.852 194.723C156.852 194.228 156.996 193.814 157.275 193.499C157.563 193.184 157.941 193.022 158.4 193.022C158.859 193.022 159.237 193.184 159.516 193.499C159.804 193.814 159.948 194.228 159.948 194.723ZM168.876 194.066C168.876 192.95 168.327 192.32 167.319 192.32C166.554 192.32 165.951 192.689 165.708 193.265C165.492 192.653 164.988 192.32 164.295 192.32C163.602 192.32 163.044 192.644 162.792 193.211V192.446H162.036V197H162.792V194.291C162.792 193.526 163.332 193.022 164.115 193.022C164.79 193.022 165.078 193.391 165.078 194.246V197H165.834V194.291C165.834 193.526 166.374 193.022 167.157 193.022C167.832 193.022 168.12 193.391 168.12 194.246V197H168.876V194.066Z" fill="white"/>
<g clip-path="url(#clip1_142_4657)">
<path d="M130.471 387.778C130.471 387.778 129.876 384.851 136.635 375.849C138.093 373.908 142.541 366.594 142.541 366.594C144.3 366.159 149.773 369.066 151.218 369.951L151.676 370.236C151.676 370.236 154.018 380.353 149.04 379.206C148.885 379.169 148.73 379.14 148.575 379.114C143.761 378.369 139.114 383.125 137.008 386.147C135.629 388.11 131.386 387.869 130.471 387.778Z" fill="#233862"/>
<path d="M166.151 368.116C166.151 368.116 165.555 365.192 172.316 356.19C173.774 354.246 178.222 346.933 178.222 346.933C179.979 346.498 185.455 349.407 186.897 350.289C187.188 350.468 187.356 350.576 187.356 350.576C187.356 350.576 189.697 360.692 184.721 359.544C184.564 359.507 184.409 359.479 184.254 359.455C179.453 358.707 174.795 363.466 172.687 366.486C171.308 368.449 167.065 368.196 166.151 368.116Z" fill="#233862"/>
<path d="M242.306 318.038C240.922 312.121 225.547 293.668 217.67 297.942C209.794 302.216 213.884 325.426 222.09 352.798C222.216 353.218 222.343 353.631 222.474 354.044C205.926 351.337 186.232 350.518 186.232 350.518L184.158 360.042C199.069 364.146 228.026 378.41 240.185 384.551C244.829 386.649 250.285 386.649 251.396 382.58C255.115 368.955 242.306 318.038 242.306 318.038Z" fill="#ED7D2B"/>
<path d="M212.945 403.304C212.945 403.304 177.748 387.484 156.288 381.09C153.628 380.301 151.185 379.658 149.042 379.201L151.299 370.033C151.299 370.033 153.403 369.996 156.814 370.001C170.177 370.038 203.637 370.783 209.617 377.316C217.118 385.525 212.945 403.304 212.945 403.304Z" fill="#FFB27D"/>
<path d="M239.541 186.452C240.698 189.104 241.621 192.58 240.837 194.413C239.951 196.491 240.196 197.995 240.196 197.995L238.303 198.456L236.042 199.004C236.042 199.004 235.922 198.813 235.741 198.482C235.56 198.152 235.32 197.689 235.087 197.148C235.039 196.838 234.917 196.544 234.731 196.291C234.545 196.038 234.3 195.834 234.017 195.695C233.055 195.243 232.053 194.084 231.859 192.965C231.664 191.845 230.521 189.758 230.848 189.539C231.64 189.006 232.828 192.256 233.526 192.4C234.159 192.532 234.36 192.087 234.399 192V191.982C235.49 189.326 233.469 182.634 235.076 182.251C235.669 182.115 239.05 185.323 239.541 186.452Z" fill="#FFB27D"/>
<path d="M117.745 239.96C119.71 242.084 122.532 244.332 124.531 244.36C126.798 244.39 128.082 245.23 128.082 245.23L129.269 243.693L130.685 241.853C130.685 241.853 130.557 241.666 130.327 241.369C130.098 241.071 128.496 239.727 128.468 238.666C128.44 237.605 127.787 236.216 126.835 235.594C125.884 234.973 124.435 233.081 124.096 233.29C123.287 233.794 125.79 236.192 125.642 236.886C125.506 237.514 125.015 237.518 124.921 237.514H124.904C122.021 237.44 116.687 232.886 115.696 234.199C115.327 234.679 116.907 239.055 117.745 239.96Z" fill="#FFB27D"/>
<path d="M202.899 322.456C194.217 324.699 196.395 335.098 197.692 363.638C197.84 366.866 198.141 369.986 198.565 372.96C185.841 370.414 166.279 370.031 156.81 370.005C156.81 370.005 155.238 373.484 155.306 376.275C155.45 382.203 158.49 386.123 158.49 386.123C179.95 392.517 212.941 403.298 212.941 403.298V403.271C215.141 403.841 217.212 402.745 218.858 399.606C225.42 387.086 236.649 303.775 236.649 303.775C236.758 297.709 211.579 320.215 202.899 322.456Z" fill="#F99746"/>
<path d="M188.726 258.5C188.726 258.5 191.782 250.793 185.845 239.803L194.283 241.671L200.016 242.938C200.845 244.752 201.574 246.61 202.199 248.504C202.526 249.456 203.726 253.275 204.093 254.456C206.108 254.541 203.203 257.582 199.073 258.18C194.46 258.841 188.726 258.5 188.726 258.5Z" fill="#FFB27D"/>
<path d="M200.016 242.932C200.845 244.746 201.574 246.604 202.199 248.497C197.275 249.962 188.491 245.193 188.491 245.193C190.472 243.388 192.436 242.269 194.278 241.664L200.016 242.932Z" fill="#ED975D"/>
<path d="M203.805 240.058C203.805 240.058 194.03 250.828 187.391 244.66C180.751 238.492 175.018 235.729 180.978 228.592C186.939 221.455 190.706 222.492 193.419 224.014C196.131 225.535 206.177 237.097 203.805 240.058Z" fill="#FFB27D"/>
<path d="M186.843 243.993C186.843 243.993 187.845 242.886 186.406 241.449C184.968 240.012 183.307 237.936 184.909 237.299C186.511 236.662 187.397 237.642 187.449 236.618C187.502 235.594 185.485 233.049 189.195 229.827C192.906 226.605 195.536 226.703 196.701 224.503C197.866 222.303 195.808 219.527 195.808 219.527C195.808 219.527 196.068 220.894 195.542 221.809C195.542 221.809 195.287 215.376 189.604 215.32C183.92 215.263 181.849 219.885 179.944 221.585C175.745 225.338 173.106 227.855 173.966 231.881C174.826 235.908 181.801 243.451 186.843 243.993Z" fill="#2B478B"/>
<path d="M197.696 237.814L201.324 234.414C201.324 234.414 202.799 236.668 201.76 237.647C200.721 238.625 197.696 237.814 197.696 237.814Z" fill="white"/>
<path d="M246.383 217.444C244.833 207.878 240.165 197.378 240.165 197.378L235.08 197.148C235.08 197.148 235.645 210.096 235.516 219.15C235.458 223.498 233.552 227.436 233.028 228.131C231.45 230.236 208.198 252.528 207.421 253.236L207.402 253.256C204.927 253.675 205.202 257.723 202.659 258.404C198.421 259.534 191.382 257.473 187.615 258.863C187.615 258.863 157.425 258.897 152.831 256.706C148.237 254.515 130.321 241.358 130.321 241.358L127.021 245.21C127.021 245.21 139.317 268.789 149.064 273.037C154.37 275.348 166.024 278.126 175.544 280.181C177.392 280.582 179.099 281.466 180.491 282.741C181.883 284.016 182.91 285.637 183.466 287.437C192.415 316.206 187.914 340.465 187.914 340.465C187.914 340.465 196.498 341.422 207.183 338.465C221.077 334.621 231.226 328.395 231.226 328.395C235.141 323.667 232.828 306.329 232.828 306.329C232.828 306.329 235.53 309.236 236.435 314.095C237.09 317.593 237.439 319.53 237.655 320.758C237.702 321.023 237.816 321.272 237.986 321.481C238.157 321.69 238.378 321.852 238.629 321.952C238.88 322.052 239.152 322.087 239.42 322.052C239.689 322.018 239.943 321.916 240.161 321.756C242.169 320.275 245.034 317.969 245.929 316.277C249.057 310.364 242.101 286.276 232.494 269.48C231.65 268.008 231.221 266.335 231.253 264.64C231.284 262.945 231.776 261.289 232.675 259.85C238.585 250.406 247.671 235.429 247.782 232.423C247.834 230.788 247.276 222.94 246.383 217.444Z" fill="#2B478B"/>
<path d="M202.002 260.576C202.002 260.576 210.108 272.033 204.165 283.102C198.222 294.172 174.872 292.646 170.555 306.475L173.174 315.086L182.938 309.823C182.938 309.823 183.755 302.344 193.357 299.096C212.114 292.755 216.629 281.798 212.692 271.996C209.366 263.711 204.549 259.719 204.549 259.719L202.002 260.576Z" fill="#F99746"/>
<path d="M189.481 254.273L198.881 257.367L199.344 259.141L187.622 258.865C187.622 258.865 188.244 256.18 189.481 254.273Z" fill="#F99746"/>
<path d="M203.233 251.699L203.547 256.541C203.547 256.541 204.778 257.543 204.763 257.41C204.748 257.278 207.406 253.258 207.406 253.258C206.061 252.625 204.665 252.103 203.233 251.699Z" fill="#F99746"/>
<path d="M198.881 257.367L203.683 255.754C203.786 255.719 203.895 255.708 204.003 255.72C204.111 255.733 204.215 255.77 204.307 255.827C204.399 255.885 204.477 255.962 204.535 256.054C204.593 256.145 204.63 256.249 204.643 256.356L205.038 259.565C205.058 259.731 205.02 259.899 204.931 260.042C204.842 260.184 204.706 260.291 204.547 260.345L202.437 261.056C202.324 261.094 202.203 261.104 202.086 261.085C201.968 261.066 201.857 261.019 201.762 260.947L198.685 258.639C198.578 258.56 198.496 258.453 198.445 258.331C198.395 258.208 198.379 258.075 198.399 257.944C198.419 257.813 198.475 257.69 198.56 257.589C198.645 257.487 198.756 257.41 198.881 257.367Z" fill="#ED7D2B"/>
<path d="M234.836 196.471L234.412 200.491C234.412 200.491 239.506 200.569 239.506 200.491C239.506 200.413 239.661 198.498 239.661 198.498L240.51 200.722L242.4 200.106L240.235 196.471C240.235 196.471 238.083 197.487 234.836 196.471Z" fill="#233862"/>
<path d="M130.327 241.358L127.01 245.208L127.983 248.967L129.334 248.043L128.669 245.219L130.993 247.121L134.003 243.16L130.327 241.358Z" fill="#233862"/>
<path d="M129.605 244.893C129.605 244.832 129.623 244.773 129.657 244.722C129.691 244.672 129.739 244.633 129.795 244.609C129.851 244.586 129.913 244.58 129.973 244.592C130.032 244.604 130.087 244.633 130.13 244.676C130.173 244.719 130.203 244.773 130.215 244.833C130.226 244.892 130.22 244.954 130.197 245.01C130.174 245.066 130.134 245.114 130.084 245.147C130.033 245.181 129.974 245.199 129.913 245.199C129.831 245.199 129.753 245.166 129.696 245.109C129.638 245.051 129.606 244.974 129.605 244.893Z" fill="#EBF3FA"/>
<path d="M238.572 199.004C238.572 198.956 238.586 198.909 238.613 198.869C238.64 198.829 238.678 198.797 238.723 198.779C238.768 198.761 238.817 198.756 238.865 198.766C238.912 198.775 238.956 198.799 238.99 198.833C239.024 198.867 239.047 198.911 239.056 198.958C239.065 199.005 239.06 199.054 239.041 199.099C239.023 199.143 238.991 199.181 238.95 199.208C238.91 199.234 238.862 199.248 238.814 199.248C238.75 199.247 238.688 199.221 238.643 199.176C238.597 199.13 238.572 199.068 238.572 199.004Z" fill="#EBF3FA"/>
<path d="M230.562 292.598C230.562 292.469 230.601 292.343 230.673 292.236C230.744 292.129 230.847 292.045 230.966 291.996C231.086 291.947 231.218 291.934 231.345 291.959C231.472 291.984 231.588 292.046 231.68 292.137C231.771 292.228 231.834 292.345 231.859 292.471C231.884 292.598 231.871 292.729 231.822 292.848C231.772 292.967 231.688 293.069 231.581 293.141C231.473 293.212 231.346 293.251 231.217 293.251C231.043 293.251 230.877 293.182 230.754 293.06C230.631 292.937 230.562 292.771 230.562 292.598Z" fill="#EBF3FA"/>
<path d="M225.35 281.779C225.35 281.65 225.389 281.523 225.461 281.416C225.533 281.309 225.635 281.225 225.755 281.176C225.874 281.127 226.006 281.114 226.133 281.139C226.26 281.164 226.377 281.226 226.468 281.317C226.56 281.409 226.622 281.525 226.647 281.651C226.673 281.778 226.66 281.909 226.61 282.028C226.561 282.147 226.477 282.249 226.369 282.321C226.261 282.392 226.135 282.431 226.005 282.431C225.832 282.431 225.665 282.362 225.542 282.24C225.419 282.117 225.35 281.952 225.35 281.779Z" fill="#EBF3FA"/>
<path d="M218.172 273.604C218.172 273.475 218.211 273.349 218.283 273.242C218.355 273.135 218.457 273.051 218.576 273.002C218.696 272.952 218.828 272.94 218.955 272.965C219.082 272.99 219.198 273.052 219.29 273.143C219.382 273.234 219.444 273.351 219.469 273.477C219.494 273.604 219.481 273.735 219.432 273.854C219.382 273.973 219.298 274.075 219.191 274.147C219.083 274.218 218.957 274.257 218.827 274.257C218.653 274.257 218.487 274.188 218.364 274.066C218.241 273.943 218.172 273.777 218.172 273.604Z" fill="#EBF3FA"/>
</g>
<g clip-path="url(#clip2_142_4657)">
<path d="M272.249 333.755C272.319 333.607 272.408 333.468 272.513 333.341C272.591 333.249 272.676 333.163 272.769 333.086L273.155 332.699L273.257 332.771C275.23 331.814 279.307 332.829 283.428 335.499C288.41 338.727 291.61 343.171 290.687 345.532L290.827 345.635L290.274 346.183L290.192 346.265L290.177 346.28C290.032 346.41 289.87 346.521 289.697 346.61C287.749 347.623 283.63 346.61 279.462 343.916C274.389 340.631 271.153 336.08 272.249 333.755Z" fill="#FFA412"/>
<path d="M284.02 334.909C278.945 331.622 273.94 330.843 272.842 333.168C271.743 335.492 274.97 340.043 280.046 343.33C285.121 346.617 290.128 347.399 291.224 345.071C292.32 342.744 289.098 338.196 284.02 334.909Z" fill="#FFB93E"/>
<path d="M280.328 342.674C278.204 341.294 276.373 339.629 275.172 337.989C273.945 336.311 273.521 334.841 273.978 333.85C274.105 333.592 274.288 333.365 274.514 333.187C274.74 333.008 275.004 332.882 275.285 332.818C277.158 332.283 280.476 333.306 283.739 335.426C285.865 336.807 287.695 338.469 288.894 340.109C290.121 341.789 290.545 343.26 290.088 344.248C289.962 344.507 289.78 344.734 289.554 344.913C289.328 345.092 289.065 345.218 288.783 345.283C288.421 345.38 288.048 345.426 287.673 345.421C285.74 345.419 283.015 344.418 280.328 342.674ZM275.387 333.172C275.158 333.223 274.943 333.324 274.758 333.468C274.573 333.612 274.422 333.795 274.318 334.004C273.925 334.856 274.347 336.228 275.474 337.773C276.648 339.378 278.443 341.01 280.532 342.366C283.133 344.054 285.838 345.052 287.678 345.052C288.016 345.057 288.353 345.015 288.679 344.926C288.908 344.876 289.124 344.775 289.309 344.631C289.495 344.488 289.645 344.305 289.751 344.096C290.143 343.244 289.722 341.87 288.592 340.327C287.42 338.722 285.623 337.091 283.537 335.735C280.933 334.044 278.23 333.049 276.391 333.049C276.052 333.043 275.715 333.083 275.387 333.17V333.172Z" fill="#FFA412"/>
<path d="M315.845 309.265C315.795 309.156 315.73 309.055 315.652 308.964C315.595 308.896 315.533 308.833 315.465 308.776L315.183 308.495L315.11 308.547C313.668 307.847 310.689 308.589 307.676 310.529C304.036 312.889 301.699 316.134 302.372 317.86L302.269 317.935L302.676 318.336C302.694 318.356 302.713 318.376 302.733 318.395H302.747C302.852 318.491 302.97 318.572 303.097 318.637C304.522 319.377 307.536 318.637 310.576 316.667C314.291 314.289 316.646 310.971 315.845 309.265Z" fill="#FFA412"/>
<path d="M307.234 310.108C310.945 307.706 314.6 307.136 315.403 308.836C316.206 310.535 313.85 313.86 310.139 316.262C306.428 318.664 302.773 319.234 301.972 317.534C301.171 315.835 303.534 312.512 307.234 310.108Z" fill="#FFB93E"/>
<path d="M304.571 317.796C304.295 317.8 304.02 317.765 303.754 317.693C303.549 317.646 303.356 317.554 303.192 317.424C303.027 317.293 302.894 317.128 302.802 316.94C302.467 316.216 302.778 315.141 303.674 313.915C304.719 312.562 305.996 311.403 307.447 310.491C309.83 308.95 312.256 308.195 313.625 308.585C313.831 308.632 314.023 308.725 314.188 308.856C314.354 308.986 314.487 309.152 314.58 309.34C314.913 310.064 314.604 311.139 313.707 312.365C312.662 313.717 311.385 314.876 309.935 315.788C307.977 317.057 305.987 317.796 304.571 317.796ZM312.811 308.754C311.466 308.754 309.482 309.481 307.589 310.716C306.173 311.611 304.926 312.745 303.905 314.067C303.079 315.194 302.771 316.198 303.059 316.819C303.136 316.972 303.245 317.106 303.38 317.211C303.516 317.317 303.673 317.391 303.841 317.429C304.08 317.491 304.326 317.522 304.573 317.519C305.918 317.519 307.902 316.79 309.795 315.555C311.216 314.661 312.467 313.525 313.49 312.2C314.316 311.07 314.624 310.069 314.336 309.446C314.259 309.293 314.149 309.159 314.014 309.054C313.879 308.949 313.722 308.875 313.554 308.838C313.315 308.774 313.068 308.744 312.82 308.748L312.811 308.754Z" fill="#FFA412"/>
<path d="M105.125 313.86C105.066 313.735 104.992 313.618 104.903 313.512C104.836 313.432 104.762 313.359 104.681 313.292L104.357 312.966L104.271 313.03C102.613 312.224 99.1886 313.078 95.7244 315.322C91.5366 318.034 88.8446 321.768 89.6236 323.751L89.506 323.84L89.9698 324.3L90.0386 324.368L90.0519 324.381C90.1733 324.491 90.3091 324.585 90.4558 324.659C92.0937 325.508 95.5601 324.659 99.0577 322.393C103.339 319.637 106.048 315.815 105.125 313.86Z" fill="#FFA412"/>
<path d="M95.2339 314.829C99.5104 312.072 103.705 311.412 104.628 313.364C105.551 315.317 102.839 319.144 98.5739 321.907C94.3085 324.67 90.103 325.323 89.1797 323.371C88.2565 321.418 90.9685 317.591 95.2339 314.829Z" fill="#FFB93E"/>
<path d="M92.1713 323.663C91.8544 323.667 91.5384 323.627 91.2326 323.545C90.9961 323.49 90.7748 323.385 90.5851 323.234C90.3953 323.084 90.242 322.894 90.1363 322.677C89.7501 321.845 90.1074 320.61 91.1394 319.199C92.1713 317.787 93.6849 316.422 95.4714 315.262C98.2122 313.481 101.002 312.62 102.573 313.061C102.812 313.113 103.035 313.219 103.227 313.369C103.419 313.519 103.575 313.71 103.683 313.928C104.067 314.76 103.712 315.995 102.68 317.407C101.648 318.818 100.132 320.185 98.3476 321.343C96.0795 322.82 93.7892 323.663 92.1713 323.663ZM101.648 313.263C100.094 313.263 97.8282 314.1 95.6423 315.522C93.8868 316.66 92.3777 318.032 91.3924 319.381C90.4448 320.678 90.0897 321.832 90.4203 322.547C90.5072 322.722 90.6319 322.875 90.7853 322.996C90.9388 323.117 91.1173 323.203 91.308 323.247C91.583 323.32 91.8668 323.355 92.1514 323.351C93.7048 323.351 95.9685 322.514 98.1567 321.092C99.9099 319.954 101.419 318.582 102.407 317.235C103.354 315.936 103.709 314.782 103.379 314.067C103.29 313.891 103.163 313.738 103.007 313.617C102.852 313.496 102.671 313.412 102.478 313.369C102.207 313.295 101.928 313.259 101.648 313.263Z" fill="#FFA412"/>
<path d="M100.724 276.204C100.768 276.111 100.823 276.024 100.889 275.944C100.938 275.887 100.991 275.833 101.048 275.784L101.29 275.542L101.352 275.588C102.586 274.989 105.125 275.625 107.711 277.294C110.818 279.311 112.815 282.087 112.249 283.564L112.336 283.628L111.989 283.971L111.938 284.022C111.848 284.104 111.747 284.173 111.639 284.229C110.42 284.863 107.846 284.229 105.241 282.545C102.054 280.502 100.039 277.657 100.724 276.204Z" fill="#FFA412"/>
<path d="M108.081 276.926C104.91 274.87 101.781 274.384 101.095 275.826C100.409 277.268 102.427 280.123 105.598 282.177C108.769 284.231 111.898 284.72 112.584 283.278C113.27 281.836 111.255 278.98 108.081 276.926Z" fill="#FFB93E"/>
<path d="M105.773 281.776C104.534 280.996 103.443 280.005 102.551 278.848C101.783 277.8 101.519 276.88 101.805 276.262C101.884 276.1 101.998 275.959 102.14 275.847C102.281 275.735 102.446 275.656 102.622 275.616C103.791 275.282 105.866 275.922 107.906 277.248C109.145 278.028 110.235 279.019 111.128 280.174C111.894 281.224 112.16 282.144 111.874 282.763C111.795 282.924 111.681 283.066 111.54 283.177C111.398 283.289 111.233 283.368 111.057 283.408C110.83 283.469 110.596 283.499 110.36 283.496C109.158 283.496 107.453 282.868 105.773 281.776ZM102.686 275.832C102.543 275.864 102.409 275.928 102.294 276.018C102.179 276.107 102.086 276.222 102.02 276.352C101.774 276.885 102.038 277.743 102.744 278.707C103.62 279.838 104.69 280.807 105.904 281.569C107.531 282.626 109.233 283.249 110.372 283.247C110.583 283.251 110.793 283.225 110.997 283.17C111.14 283.138 111.274 283.075 111.389 282.985C111.504 282.895 111.598 282.781 111.663 282.65C111.907 282.118 111.645 281.259 110.94 280.295C110.063 279.164 108.993 278.195 107.777 277.433C106.153 276.376 104.462 275.753 103.312 275.753C103.1 275.752 102.89 275.781 102.686 275.839V275.832Z" fill="#FFA412"/>
</g>
<g clip-path="url(#clip3_142_4657)">
<path d="M91.7469 322.39C91.7469 322.39 100.817 335.228 109.134 335.406C117.45 335.584 130.101 329.455 130.101 329.455C130.101 329.455 137.736 312.345 132.557 305.65C132.557 305.65 127.363 303.36 121.934 307.408C120.892 308.19 119.948 309.095 119.121 310.105C117.996 311.513 116.474 312.547 114.755 313.071C108.823 314.886 101.78 310.617 99.1463 314.737C97.8547 316.747 96.3126 318.582 94.5576 320.198C93.684 321.007 92.7438 321.74 91.7469 322.39Z" fill="#FFEDDC"/>
<path d="M210.003 415C210.003 415 177.941 336.889 120.231 335.401C120.231 335.401 66.9608 341.352 64 415H210.003Z" fill="#FFEDDC"/>
<path d="M136.041 337.787C136.041 337.787 112.91 342.959 105.773 339.92C105.773 339.92 104.701 330.194 114.436 331.561C121.103 332.494 125.432 329.272 128.001 327.966C131.616 326.114 137.001 333.715 136.041 337.787Z" fill="#DB6A1D"/>
<path d="M115.911 323.129C117.391 324.243 121.934 307.403 121.934 307.403C120.892 308.185 119.948 309.09 119.121 310.099C117.996 311.508 116.474 312.542 114.755 313.065C114.742 313.575 114.476 322.042 115.911 323.129Z" fill="#E5C1A1"/>
<path d="M94.5576 320.211C94.8848 320.405 105.583 326.847 107.031 326.847C108.479 326.847 99.1463 314.751 99.1463 314.751C97.8547 316.76 96.3126 318.595 94.5576 320.211Z" fill="#E5C1A1"/>
<path d="M178.681 393.18C179.273 392.67 155.992 358.712 149.579 358.464C143.167 358.216 128.76 365.901 118.33 366.894C107.9 367.886 97.7893 364.909 95.8154 371.108C93.8415 377.308 88.416 399.287 91.7469 402.804C95.0778 406.32 165.88 404.176 178.681 393.18Z" fill="#F9DDBF"/>
</g>
</g>
<defs>
<clipPath id="clip0_142_4657">
<rect width="430" height="417" fill="white"/>
</clipPath>
<clipPath id="clip1_142_4657">
<rect width="136.431" height="221.179" fill="white" transform="translate(115.641 182.247)"/>
</clipPath>
<clipPath id="clip2_142_4657">
<rect width="227" height="72" fill="white" transform="translate(89 275)"/>
</clipPath>
<clipPath id="clip3_142_4657">
<rect width="146" height="110" fill="white" transform="translate(64 305)"/>
</clipPath>
</defs>
</svg>
