<svg width="364" height="319" viewBox="0 0 364 319" fill="none" xmlns="http://www.w3.org/2000/svg">
<rect width="364" height="319" rx="40" fill="#F2F5FA"/>
<path d="M36.608 180.056V174.488H45.512V172.568H36.608V167.144H45.992V165.2H34.496V182H46.232V180.056H36.608ZM59.3883 169.856V172.088C58.6923 170.528 56.9403 169.52 54.9003 169.52C51.5643 169.52 49.1163 172.184 49.1163 175.928C49.1163 179.672 51.5643 182.336 54.9003 182.336C56.9403 182.336 58.6923 181.328 59.3883 179.768V182H61.4043V169.856H59.3883ZM59.4843 175.928C59.4843 177.248 59.1003 178.352 58.3323 179.192C57.5883 180.032 56.5803 180.464 55.3563 180.464C54.1323 180.464 53.1243 180.032 52.3563 179.192C51.6123 178.352 51.2283 177.248 51.2283 175.928C51.2283 174.608 51.6123 173.504 52.3563 172.664C53.1243 171.824 54.1323 171.392 55.3563 171.392C56.5803 171.392 57.5883 171.824 58.3323 172.664C59.1003 173.504 59.4843 174.608 59.4843 175.928ZM72.5463 169.832C72.2343 169.712 71.8503 169.664 71.4423 169.664C69.6423 169.664 68.2983 170.576 67.7463 172.136V169.856H65.7303V182H67.7463V175.784C67.7463 172.928 69.1143 171.536 71.4903 171.536C71.8503 171.536 72.1863 171.56 72.5463 171.608V169.832ZM75.4334 182H77.4494V164.432H75.4334V182ZM90.0416 169.856V176.744C90.0416 178.76 88.4576 180.128 86.2496 180.128C84.3536 180.128 83.4656 179.12 83.4656 176.816V169.856H81.4496V177.296C81.4496 180.344 83.0576 182 85.7696 182C87.7616 182 89.3456 181.136 90.0416 179.6V180.824C90.0416 183.776 88.6016 185.264 86.0816 185.264C84.6416 185.264 83.2496 184.76 82.2656 183.872L81.0896 185.312C82.2176 186.464 84.0896 187.136 86.1296 187.136C89.8736 187.136 92.0576 184.928 92.0576 180.824V169.856H90.0416ZM114.782 170.408C114.782 167.168 112.694 165.2 109.118 165.2H102.254V182H104.366V175.592H109.118C112.694 175.592 114.782 173.648 114.782 170.408ZM112.574 170.408C112.574 172.688 111.518 173.672 108.95 173.672H104.366V167.144H108.95C111.518 167.144 112.574 168.128 112.574 170.408ZM124.906 169.832C124.594 169.712 124.21 169.664 123.802 169.664C122.002 169.664 120.658 170.576 120.106 172.136V169.856H118.09V182H120.106V175.784C120.106 172.928 121.474 171.536 123.85 171.536C124.21 171.536 124.546 171.56 124.906 171.608V169.832ZM138.103 176.552C138.151 176.192 138.175 175.832 138.175 175.472C138.175 171.944 135.775 169.52 132.391 169.52C128.815 169.52 126.319 172.232 126.319 175.952C126.319 179.72 128.887 182.336 132.559 182.336C134.791 182.336 136.663 181.376 137.839 179.72L136.471 178.568C135.463 179.84 134.167 180.464 132.607 180.464C130.231 180.464 128.599 178.976 128.383 176.552H138.103ZM128.431 174.92C128.791 172.736 130.255 171.392 132.391 171.392C134.503 171.392 135.919 172.688 136.111 174.92H128.431ZM150.982 169.856V172.088C150.238 170.528 148.51 169.52 146.47 169.52C143.158 169.52 140.71 172.184 140.71 175.928C140.71 179.672 143.158 182.336 146.47 182.336C148.51 182.336 150.238 181.328 150.982 179.768V186.8H152.998V169.856H150.982ZM151.078 175.928C151.078 177.248 150.694 178.352 149.926 179.192C149.182 180.032 148.174 180.464 146.95 180.464C145.726 180.464 144.718 180.032 143.95 179.192C143.206 178.352 142.822 177.248 142.822 175.928C142.822 174.608 143.206 173.504 143.95 172.664C144.718 171.824 145.726 171.392 146.95 171.392C148.174 171.392 149.182 171.824 149.926 172.664C150.694 173.504 151.078 174.608 151.078 175.928ZM157.084 177.464C157.084 180.344 159.172 182.336 162.316 182.336C165.46 182.336 167.548 180.344 167.548 177.464V169.856H165.532V177.344C165.532 179.36 164.356 180.464 162.316 180.464C160.276 180.464 159.1 179.36 159.1 177.344V169.856H157.084V177.464ZM181.029 169.856V172.088C180.333 170.528 178.581 169.52 176.541 169.52C173.205 169.52 170.757 172.184 170.757 175.928C170.757 179.672 173.205 182.336 176.541 182.336C178.581 182.336 180.333 181.328 181.029 179.768V182H183.045V169.856H181.029ZM181.125 175.928C181.125 177.248 180.741 178.352 179.973 179.192C179.229 180.032 178.221 180.464 176.997 180.464C175.773 180.464 174.765 180.032 173.997 179.192C173.253 178.352 172.869 177.248 172.869 175.928C172.869 174.608 173.253 173.504 173.997 172.664C174.765 171.824 175.773 171.392 176.997 171.392C178.221 171.392 179.229 171.824 179.973 172.664C180.741 173.504 181.125 174.608 181.125 175.928ZM187.371 182H189.387V164.432H187.371V182ZM193.339 165.92C193.339 166.712 193.939 167.312 194.731 167.312C195.523 167.312 196.123 166.712 196.123 165.92C196.123 165.128 195.523 164.528 194.731 164.528C193.939 164.528 193.339 165.128 193.339 165.92ZM193.723 182H195.739V169.856H193.723V182ZM201.034 182H203.05V171.584H206.602V169.856H203.05V168.056C203.05 166.592 203.65 165.968 205.066 165.968C205.546 165.968 206.074 166.016 206.65 166.136V164.432C206.026 164.288 205.402 164.216 204.802 164.216C202.234 164.216 201.034 165.392 201.034 168.008V169.856H198.538V171.584H201.034V182ZM208.878 165.92C208.878 166.712 209.478 167.312 210.27 167.312C211.062 167.312 211.662 166.712 211.662 165.92C211.662 165.128 211.062 164.528 210.27 164.528C209.478 164.528 208.878 165.128 208.878 165.92ZM209.262 182H211.278V169.856H209.262V182ZM214.749 175.928C214.749 179.624 217.293 182.336 220.989 182.336C223.221 182.336 225.045 181.4 226.077 179.696L224.493 178.592C223.749 179.816 222.525 180.464 221.013 180.464C219.789 180.464 218.781 180.056 218.013 179.216C217.245 178.376 216.861 177.296 216.861 175.928C216.861 174.56 217.245 173.48 218.013 172.64C218.781 171.8 219.789 171.392 221.013 171.392C222.525 171.392 223.749 172.04 224.493 173.264L226.077 172.16C225.045 170.456 223.221 169.52 220.989 169.52C217.293 169.52 214.749 172.232 214.749 175.928ZM238.451 169.856V172.088C237.755 170.528 236.003 169.52 233.963 169.52C230.627 169.52 228.179 172.184 228.179 175.928C228.179 179.672 230.627 182.336 233.963 182.336C236.003 182.336 237.755 181.328 238.451 179.768V182H240.467V169.856H238.451ZM238.547 175.928C238.547 177.248 238.163 178.352 237.395 179.192C236.651 180.032 235.643 180.464 234.419 180.464C233.195 180.464 232.187 180.032 231.419 179.192C230.675 178.352 230.291 177.248 230.291 175.928C230.291 174.608 230.675 173.504 231.419 172.664C232.187 171.824 233.195 171.392 234.419 171.392C235.643 171.392 236.651 171.824 237.395 172.664C238.163 173.504 238.547 174.608 238.547 175.928ZM245.681 178.88C245.681 181.064 246.977 182.192 249.377 182.192C250.145 182.192 250.865 182.096 251.561 181.88V180.2C250.865 180.344 250.217 180.416 249.665 180.416C248.297 180.416 247.697 179.912 247.697 178.736V171.584H251.513V169.856H247.697V166.256H245.681V169.856H243.257V171.584H245.681V178.88ZM254.277 165.92C254.277 166.712 254.877 167.312 255.669 167.312C256.461 167.312 257.061 166.712 257.061 165.92C257.061 165.128 256.461 164.528 255.669 164.528C254.877 164.528 254.277 165.128 254.277 165.92ZM254.661 182H256.677V169.856H254.661V182ZM260.148 175.928C260.1 179.36 262.716 182.408 266.388 182.336C270.06 182.408 272.676 179.36 272.628 175.928C272.676 172.496 270.06 169.448 266.388 169.52C262.716 169.448 260.1 172.496 260.148 175.928ZM270.516 175.928C270.516 177.248 270.132 178.352 269.364 179.192C268.62 180.032 267.612 180.464 266.388 180.464C265.164 180.464 264.156 180.032 263.388 179.192C262.644 178.352 262.26 177.248 262.26 175.928C262.26 174.608 262.644 173.504 263.388 172.664C264.156 171.824 265.164 171.392 266.388 171.392C267.612 171.392 268.62 171.824 269.364 172.664C270.132 173.504 270.516 174.608 270.516 175.928ZM286.642 174.224C286.642 171.224 285.082 169.52 282.322 169.52C280.33 169.52 278.77 170.384 278.098 171.92V169.856H276.082V182H278.098V174.776C278.098 172.736 279.658 171.392 281.842 171.392C283.762 171.392 284.626 172.4 284.626 174.704V182H286.642V174.224ZM43.568 199.856V202.088C42.872 200.528 41.12 199.52 39.08 199.52C35.744 199.52 33.296 202.184 33.296 205.928C33.296 209.672 35.744 212.336 39.08 212.336C41.12 212.336 42.872 211.328 43.568 209.768V212H45.584V199.856H43.568ZM43.664 205.928C43.664 207.248 43.28 208.352 42.512 209.192C41.768 210.032 40.76 210.464 39.536 210.464C38.312 210.464 37.304 210.032 36.536 209.192C35.792 208.352 35.408 207.248 35.408 205.928C35.408 204.608 35.792 203.504 36.536 202.664C37.304 201.824 38.312 201.392 39.536 201.392C40.76 201.392 41.768 201.824 42.512 202.664C43.28 203.504 43.664 204.608 43.664 205.928ZM60.47 204.224C60.47 201.224 58.91 199.52 56.15 199.52C54.158 199.52 52.598 200.384 51.926 201.92V199.856H49.91V212H51.926V204.776C51.926 202.736 53.486 201.392 55.67 201.392C57.59 201.392 58.454 202.4 58.454 204.704V212H60.47V204.224ZM74.1071 194.432V202.088C73.3631 200.528 71.6351 199.52 69.5951 199.52C66.2831 199.52 63.8351 202.184 63.8351 205.928C63.8351 209.672 66.2831 212.336 69.5951 212.336C71.6351 212.336 73.3631 211.328 74.1071 209.768V212H76.1231V194.432H74.1071ZM74.2031 205.928C74.2031 207.248 73.8191 208.352 73.0511 209.192C72.3071 210.032 71.2991 210.464 70.0751 210.464C68.8511 210.464 67.8431 210.032 67.0751 209.192C66.3311 208.352 65.9471 207.248 65.9471 205.928C65.9471 204.608 66.3311 203.504 67.0751 202.664C67.8431 201.824 68.8511 201.392 70.0751 201.392C71.2991 201.392 72.3071 201.824 73.0511 202.664C73.8191 203.504 74.2031 204.608 74.2031 205.928ZM85.9803 212H87.9963V194.432H85.9803V212ZM91.9484 195.92C91.9484 196.712 92.5484 197.312 93.3404 197.312C94.1324 197.312 94.7324 196.712 94.7324 195.92C94.7324 195.128 94.1324 194.528 93.3404 194.528C92.5484 194.528 91.9484 195.128 91.9484 195.92ZM92.3324 212H94.3484V199.856H92.3324V212ZM116.923 204.176C116.923 201.2 115.459 199.52 112.771 199.52C110.731 199.52 109.123 200.504 108.475 202.04C107.899 200.408 106.555 199.52 104.707 199.52C102.859 199.52 101.371 200.384 100.699 201.896V199.856H98.6834V212H100.699V204.776C100.699 202.736 102.139 201.392 104.227 201.392C106.027 201.392 106.795 202.376 106.795 204.656V212H108.811V204.776C108.811 202.736 110.251 201.392 112.339 201.392C114.139 201.392 114.907 202.376 114.907 204.656V212H116.923V204.176ZM120.777 195.92C120.777 196.712 121.377 197.312 122.169 197.312C122.961 197.312 123.561 196.712 123.561 195.92C123.561 195.128 122.961 194.528 122.169 194.528C121.377 194.528 120.777 195.128 120.777 195.92ZM121.161 212H123.177V199.856H121.161V212ZM128.4 208.88C128.4 211.064 129.696 212.192 132.096 212.192C132.864 212.192 133.584 212.096 134.28 211.88V210.2C133.584 210.344 132.936 210.416 132.384 210.416C131.016 210.416 130.416 209.912 130.416 208.736V201.584H134.232V199.856H130.416V196.256H128.4V199.856H125.976V201.584H128.4V208.88ZM137.355 212H139.371V194.432H137.355V212ZM154.603 206.552C154.651 206.192 154.675 205.832 154.675 205.472C154.675 201.944 152.275 199.52 148.891 199.52C145.315 199.52 142.819 202.232 142.819 205.952C142.819 209.72 145.387 212.336 149.059 212.336C151.291 212.336 153.163 211.376 154.339 209.72L152.971 208.568C151.963 209.84 150.667 210.464 149.107 210.464C146.731 210.464 145.099 208.976 144.883 206.552H154.603ZM144.931 204.92C145.291 202.736 146.755 201.392 148.891 201.392C151.003 201.392 152.419 202.688 152.611 204.92H144.931ZM156.922 209.696C157.882 211.328 159.874 212.336 162.346 212.336C165.322 212.336 167.122 210.824 167.122 208.52C167.122 206.816 166.09 205.736 163.69 205.184L161.554 204.704C159.922 204.32 159.37 203.864 159.37 203.072C159.37 201.992 160.282 201.344 162.01 201.344C163.522 201.344 164.746 201.848 165.538 202.784L166.93 201.584C165.946 200.264 164.242 199.52 162.13 199.52C159.178 199.52 157.354 200.984 157.354 203.12C157.354 204.824 158.554 205.928 161.05 206.504L162.97 206.936C164.506 207.296 165.106 207.8 165.106 208.664C165.106 209.792 164.05 210.512 162.322 210.512C160.666 210.512 159.25 209.864 158.386 208.616L156.922 209.696ZM169.203 209.696C170.163 211.328 172.155 212.336 174.627 212.336C177.603 212.336 179.403 210.824 179.403 208.52C179.403 206.816 178.371 205.736 175.971 205.184L173.835 204.704C172.203 204.32 171.651 203.864 171.651 203.072C171.651 201.992 172.563 201.344 174.291 201.344C175.803 201.344 177.027 201.848 177.819 202.784L179.211 201.584C178.227 200.264 176.523 199.52 174.411 199.52C171.459 199.52 169.635 200.984 169.635 203.12C169.635 204.824 170.835 205.928 173.331 206.504L175.251 206.936C176.787 207.296 177.387 207.8 177.387 208.664C177.387 209.792 176.331 210.512 174.603 210.512C172.947 210.512 171.531 209.864 170.667 208.616L169.203 209.696ZM200.407 212H202.591L195.751 195.2H193.399L186.559 212H188.743L190.543 207.44H198.607L200.407 212ZM191.311 205.52L194.575 197.288L197.839 205.52H191.311ZM204.132 205.928C204.132 209.624 206.676 212.336 210.372 212.336C212.604 212.336 214.428 211.4 215.46 209.696L213.876 208.592C213.132 209.816 211.908 210.464 210.396 210.464C209.172 210.464 208.164 210.056 207.396 209.216C206.628 208.376 206.244 207.296 206.244 205.928C206.244 204.56 206.628 203.48 207.396 202.64C208.164 201.8 209.172 201.392 210.396 201.392C211.908 201.392 213.132 202.04 213.876 203.264L215.46 202.16C214.428 200.456 212.604 199.52 210.372 199.52C206.676 199.52 204.132 202.232 204.132 205.928ZM217.562 205.928C217.562 209.624 220.106 212.336 223.802 212.336C226.034 212.336 227.858 211.4 228.89 209.696L227.306 208.592C226.562 209.816 225.338 210.464 223.826 210.464C222.602 210.464 221.594 210.056 220.826 209.216C220.058 208.376 219.674 207.296 219.674 205.928C219.674 204.56 220.058 203.48 220.826 202.64C221.594 201.8 222.602 201.392 223.826 201.392C225.338 201.392 226.562 202.04 227.306 203.264L228.89 202.16C227.858 200.456 226.034 199.52 223.802 199.52C220.106 199.52 217.562 202.232 217.562 205.928ZM242.775 206.552C242.823 206.192 242.847 205.832 242.847 205.472C242.847 201.944 240.447 199.52 237.063 199.52C233.487 199.52 230.991 202.232 230.991 205.952C230.991 209.72 233.559 212.336 237.231 212.336C239.463 212.336 241.335 211.376 242.511 209.72L241.143 208.568C240.135 209.84 238.839 210.464 237.279 210.464C234.903 210.464 233.271 208.976 233.055 206.552H242.775ZM233.103 204.92C233.463 202.736 234.927 201.392 237.063 201.392C239.175 201.392 240.591 202.688 240.783 204.92H233.103ZM245.094 209.696C246.054 211.328 248.046 212.336 250.518 212.336C253.494 212.336 255.294 210.824 255.294 208.52C255.294 206.816 254.262 205.736 251.862 205.184L249.726 204.704C248.094 204.32 247.542 203.864 247.542 203.072C247.542 201.992 248.454 201.344 250.182 201.344C251.694 201.344 252.918 201.848 253.71 202.784L255.102 201.584C254.118 200.264 252.414 199.52 250.302 199.52C247.35 199.52 245.526 200.984 245.526 203.12C245.526 204.824 246.726 205.928 249.222 206.504L251.142 206.936C252.678 207.296 253.278 207.8 253.278 208.664C253.278 209.792 252.222 210.512 250.494 210.512C248.838 210.512 247.422 209.864 246.558 208.616L245.094 209.696ZM257.375 209.696C258.335 211.328 260.327 212.336 262.799 212.336C265.775 212.336 267.575 210.824 267.575 208.52C267.575 206.816 266.543 205.736 264.143 205.184L262.007 204.704C260.375 204.32 259.823 203.864 259.823 203.072C259.823 201.992 260.735 201.344 262.463 201.344C263.975 201.344 265.199 201.848 265.991 202.784L267.383 201.584C266.399 200.264 264.695 199.52 262.583 199.52C259.631 199.52 257.807 200.984 257.807 203.12C257.807 204.824 259.007 205.928 261.503 206.504L263.423 206.936C264.959 207.296 265.559 207.8 265.559 208.664C265.559 209.792 264.503 210.512 262.775 210.512C261.119 210.512 259.703 209.864 258.839 208.616L257.375 209.696Z" fill="#1C468A"/>
<path d="M38.174 244.764V245.898H40.764V248.18C40.246 248.698 39.238 249.048 38.076 249.048C35.724 249.048 34.184 247.564 34.184 245.142C34.184 242.748 35.668 241.152 37.922 241.152C39.196 241.152 40.218 241.656 40.834 242.594L41.772 241.922C40.988 240.704 39.602 240.004 37.908 240.004C35.038 239.976 32.854 242.146 32.896 245.128C32.854 248.054 34.954 250.238 38.09 250.196C39.77 250.196 41.198 249.622 41.968 248.628V244.764H38.174ZM50.5812 246.822C50.6092 246.612 50.6232 246.402 50.6232 246.192C50.6232 244.134 49.2232 242.72 47.2492 242.72C45.1632 242.72 43.7072 244.302 43.7072 246.472C43.7072 248.67 45.2052 250.196 47.3472 250.196C48.6492 250.196 49.7412 249.636 50.4272 248.67L49.6292 247.998C49.0412 248.74 48.2852 249.104 47.3752 249.104C45.9892 249.104 45.0372 248.236 44.9112 246.822H50.5812ZM44.9392 245.87C45.1492 244.596 46.0032 243.812 47.2492 243.812C48.4812 243.812 49.3072 244.568 49.4192 245.87H44.9392ZM52.987 248.18C52.987 249.454 53.743 250.112 55.143 250.112C55.591 250.112 56.011 250.056 56.417 249.93V248.95C56.011 249.034 55.633 249.076 55.311 249.076C54.513 249.076 54.163 248.782 54.163 248.096V243.924H56.389V242.916H54.163V240.816H52.987V242.916H51.573V243.924H52.987V248.18ZM68.9417 243.238C68.9417 241.348 67.7237 240.2 65.6377 240.2H61.6337V250H62.8657V246.262H65.6377C67.7237 246.262 68.9417 245.128 68.9417 243.238ZM67.6537 243.238C67.6537 244.568 67.0377 245.142 65.5397 245.142H62.8657V241.334H65.5397C67.0377 241.334 67.6537 241.908 67.6537 243.238ZM74.8473 242.902C74.6653 242.832 74.4413 242.804 74.2033 242.804C73.1533 242.804 72.3693 243.336 72.0473 244.246V242.916H70.8713V250H72.0473V246.374C72.0473 244.708 72.8453 243.896 74.2313 243.896C74.4413 243.896 74.6373 243.91 74.8473 243.938V242.902ZM82.546 246.822C82.574 246.612 82.588 246.402 82.588 246.192C82.588 244.134 81.188 242.72 79.214 242.72C77.128 242.72 75.672 244.302 75.672 246.472C75.672 248.67 77.17 250.196 79.312 250.196C80.614 250.196 81.706 249.636 82.392 248.67L81.594 247.998C81.006 248.74 80.25 249.104 79.34 249.104C77.954 249.104 77.002 248.236 76.876 246.822H82.546ZM76.904 245.87C77.114 244.596 77.968 243.812 79.214 243.812C80.446 243.812 81.272 244.568 81.384 245.87H76.904ZM90.0585 242.916V244.218C89.6245 243.308 88.6165 242.72 87.4265 242.72C85.4945 242.72 84.0665 244.274 84.0665 246.458C84.0665 248.642 85.4945 250.196 87.4265 250.196C88.6165 250.196 89.6245 249.608 90.0585 248.698V252.8H91.2345V242.916H90.0585ZM90.1145 246.458C90.1145 247.228 89.8905 247.872 89.4425 248.362C89.0085 248.852 88.4205 249.104 87.7065 249.104C86.9925 249.104 86.4045 248.852 85.9565 248.362C85.5225 247.872 85.2985 247.228 85.2985 246.458C85.2985 245.688 85.5225 245.044 85.9565 244.554C86.4045 244.064 86.9925 243.812 87.7065 243.812C88.4205 243.812 89.0085 244.064 89.4425 244.554C89.8905 245.044 90.1145 245.688 90.1145 246.458ZM93.618 247.354C93.618 249.034 94.836 250.196 96.67 250.196C98.504 250.196 99.722 249.034 99.722 247.354V242.916H98.546V247.284C98.546 248.46 97.86 249.104 96.67 249.104C95.48 249.104 94.794 248.46 94.794 247.284V242.916H93.618V247.354ZM107.586 242.916V244.218C107.18 243.308 106.158 242.72 104.968 242.72C103.022 242.72 101.594 244.274 101.594 246.458C101.594 248.642 103.022 250.196 104.968 250.196C106.158 250.196 107.18 249.608 107.586 248.698V250H108.762V242.916H107.586ZM107.642 246.458C107.642 247.228 107.418 247.872 106.97 248.362C106.536 248.852 105.948 249.104 105.234 249.104C104.52 249.104 103.932 248.852 103.484 248.362C103.05 247.872 102.826 247.228 102.826 246.458C102.826 245.688 103.05 245.044 103.484 244.554C103.932 244.064 104.52 243.812 105.234 243.812C105.948 243.812 106.536 244.064 106.97 244.554C107.418 245.044 107.642 245.688 107.642 246.458ZM111.285 250H112.461V239.752H111.285V250ZM114.767 240.62C114.767 241.082 115.117 241.432 115.579 241.432C116.041 241.432 116.391 241.082 116.391 240.62C116.391 240.158 116.041 239.808 115.579 239.808C115.117 239.808 114.767 240.158 114.767 240.62ZM114.991 250H116.167V242.916H114.991V250ZM119.256 250H120.432V243.924H122.504V242.916H120.432V241.866C120.432 241.012 120.782 240.648 121.608 240.648C121.888 240.648 122.196 240.676 122.532 240.746V239.752C122.168 239.668 121.804 239.626 121.454 239.626C119.956 239.626 119.256 240.312 119.256 241.838V242.916H117.8V243.924H119.256V250ZM123.831 240.62C123.831 241.082 124.181 241.432 124.643 241.432C125.105 241.432 125.455 241.082 125.455 240.62C125.455 240.158 125.105 239.808 124.643 239.808C124.181 239.808 123.831 240.158 123.831 240.62ZM124.055 250H125.231V242.916H124.055V250ZM134.13 246.822C134.158 246.612 134.172 246.402 134.172 246.192C134.172 244.134 132.772 242.72 130.798 242.72C128.712 242.72 127.256 244.302 127.256 246.472C127.256 248.67 128.754 250.196 130.896 250.196C132.198 250.196 133.29 249.636 133.976 248.67L133.178 247.998C132.59 248.74 131.834 249.104 130.924 249.104C129.538 249.104 128.586 248.236 128.46 246.822H134.13ZM128.488 245.87C128.698 244.596 129.552 243.812 130.798 243.812C132.03 243.812 132.856 244.568 132.968 245.87H128.488ZM141.643 239.752V244.218C141.209 243.308 140.201 242.72 139.011 242.72C137.079 242.72 135.651 244.274 135.651 246.458C135.651 248.642 137.079 250.196 139.011 250.196C140.201 250.196 141.209 249.608 141.643 248.698V250H142.819V239.752H141.643ZM141.699 246.458C141.699 247.228 141.475 247.872 141.027 248.362C140.593 248.852 140.005 249.104 139.291 249.104C138.577 249.104 137.989 248.852 137.541 248.362C137.107 247.872 136.883 247.228 136.883 246.458C136.883 245.688 137.107 245.044 137.541 244.554C137.989 244.064 138.577 243.812 139.291 243.812C140.005 243.812 140.593 244.064 141.027 244.554C141.475 245.044 141.699 245.688 141.699 246.458ZM149.997 248.866V245.618H155.191V244.498H149.997V241.334H155.471V240.2H148.765V250H155.611V248.866H149.997ZM163.285 242.916V244.218C162.879 243.308 161.857 242.72 160.667 242.72C158.721 242.72 157.293 244.274 157.293 246.458C157.293 248.642 158.721 250.196 160.667 250.196C161.857 250.196 162.879 249.608 163.285 248.698V250H164.461V242.916H163.285ZM163.341 246.458C163.341 247.228 163.117 247.872 162.669 248.362C162.235 248.852 161.647 249.104 160.933 249.104C160.219 249.104 159.631 248.852 159.183 248.362C158.749 247.872 158.525 247.228 158.525 246.458C158.525 245.688 158.749 245.044 159.183 244.554C159.631 244.064 160.219 243.812 160.933 243.812C161.647 243.812 162.235 244.064 162.669 244.554C163.117 245.044 163.341 245.688 163.341 246.458ZM170.961 242.902C170.779 242.832 170.555 242.804 170.317 242.804C169.267 242.804 168.483 243.336 168.161 244.246V242.916H166.985V250H168.161V246.374C168.161 244.708 168.959 243.896 170.345 243.896C170.555 243.896 170.751 243.91 170.961 243.938V242.902ZM172.645 250H173.821V239.752H172.645V250ZM181.166 242.916V246.934C181.166 248.11 180.242 248.908 178.954 248.908C177.848 248.908 177.33 248.32 177.33 246.976V242.916H176.154V247.256C176.154 249.034 177.092 250 178.674 250C179.836 250 180.76 249.496 181.166 248.6V249.314C181.166 251.036 180.326 251.904 178.856 251.904C178.016 251.904 177.204 251.61 176.63 251.092L175.944 251.932C176.602 252.604 177.694 252.996 178.884 252.996C181.068 252.996 182.342 251.708 182.342 249.314V242.916H181.166ZM193.582 242.916V244.218C193.176 243.308 192.154 242.72 190.964 242.72C189.018 242.72 187.59 244.274 187.59 246.458C187.59 248.642 189.018 250.196 190.964 250.196C192.154 250.196 193.176 249.608 193.582 248.698V250H194.758V242.916H193.582ZM193.638 246.458C193.638 247.228 193.414 247.872 192.966 248.362C192.532 248.852 191.944 249.104 191.23 249.104C190.516 249.104 189.928 248.852 189.48 248.362C189.046 247.872 188.822 247.228 188.822 246.458C188.822 245.688 189.046 245.044 189.48 244.554C189.928 244.064 190.516 243.812 191.23 243.812C191.944 243.812 192.532 244.064 192.966 244.554C193.414 245.044 193.638 245.688 193.638 246.458ZM203.441 245.464C203.441 243.714 202.531 242.72 200.921 242.72C199.759 242.72 198.849 243.224 198.457 244.12V242.916H197.281V250H198.457V245.786C198.457 244.596 199.367 243.812 200.641 243.812C201.761 243.812 202.265 244.4 202.265 245.744V250H203.441V245.464ZM211.396 239.752V244.218C210.962 243.308 209.954 242.72 208.764 242.72C206.832 242.72 205.404 244.274 205.404 246.458C205.404 248.642 206.832 250.196 208.764 250.196C209.954 250.196 210.962 249.608 211.396 248.698V250H212.572V239.752H211.396ZM211.452 246.458C211.452 247.228 211.228 247.872 210.78 248.362C210.346 248.852 209.758 249.104 209.044 249.104C208.33 249.104 207.742 248.852 207.294 248.362C206.86 247.872 206.636 247.228 206.636 246.458C206.636 245.688 206.86 245.044 207.294 244.554C207.742 244.064 208.33 243.812 209.044 243.812C209.758 243.812 210.346 244.064 210.78 244.554C211.228 245.044 211.452 245.688 211.452 246.458ZM224.483 245.464C224.483 243.714 223.573 242.72 221.963 242.72C220.801 242.72 219.891 243.224 219.499 244.12V239.752H218.323V250H219.499V245.786C219.499 244.596 220.409 243.812 221.683 243.812C222.803 243.812 223.307 244.4 223.307 245.744V250H224.483V245.464ZM232.437 242.916V244.218C232.031 243.308 231.009 242.72 229.819 242.72C227.873 242.72 226.445 244.274 226.445 246.458C226.445 248.642 227.873 250.196 229.819 250.196C231.009 250.196 232.031 249.608 232.437 248.698V250H233.613V242.916H232.437ZM232.493 246.458C232.493 247.228 232.269 247.872 231.821 248.362C231.387 248.852 230.799 249.104 230.085 249.104C229.371 249.104 228.783 248.852 228.335 248.362C227.901 247.872 227.677 247.228 227.677 246.458C227.677 245.688 227.901 245.044 228.335 244.554C228.783 244.064 229.371 243.812 230.085 243.812C230.799 243.812 231.387 244.064 231.821 244.554C232.269 245.044 232.493 245.688 232.493 246.458ZM240.897 242.916L238.643 248.712L236.389 242.916H235.129L238.013 250H239.273L242.157 242.916H240.897ZM249.835 246.822C249.863 246.612 249.877 246.402 249.877 246.192C249.877 244.134 248.477 242.72 246.503 242.72C244.417 242.72 242.961 244.302 242.961 246.472C242.961 248.67 244.459 250.196 246.601 250.196C247.903 250.196 248.995 249.636 249.681 248.67L248.883 247.998C248.295 248.74 247.539 249.104 246.629 249.104C245.243 249.104 244.291 248.236 244.165 246.822H249.835ZM244.193 245.87C244.403 244.596 245.257 243.812 246.503 243.812C247.735 243.812 248.561 244.568 248.673 245.87H244.193ZM254.946 247.354C254.946 249.034 256.164 250.196 257.998 250.196C259.832 250.196 261.05 249.034 261.05 247.354V242.916H259.874V247.284C259.874 248.46 259.188 249.104 257.998 249.104C256.808 249.104 256.122 248.46 256.122 247.284V242.916H254.946V247.354ZM269.586 245.464C269.586 243.714 268.676 242.72 267.066 242.72C265.904 242.72 264.994 243.224 264.602 244.12V242.916H263.426V250H264.602V245.786C264.602 244.596 265.512 243.812 266.786 243.812C267.906 243.812 268.41 244.4 268.41 245.744V250H269.586V245.464ZM272.053 250H273.229V239.752H272.053V250ZM275.534 240.62C275.534 241.082 275.884 241.432 276.346 241.432C276.808 241.432 277.158 241.082 277.158 240.62C277.158 240.158 276.808 239.808 276.346 239.808C275.884 239.808 275.534 240.158 275.534 240.62ZM275.758 250H276.934V242.916H275.758V250ZM290.103 245.436C290.103 243.7 289.249 242.72 287.681 242.72C286.491 242.72 285.553 243.294 285.175 244.19C284.839 243.238 284.055 242.72 282.977 242.72C281.899 242.72 281.031 243.224 280.639 244.106V242.916H279.463V250H280.639V245.786C280.639 244.596 281.479 243.812 282.697 243.812C283.747 243.812 284.195 244.386 284.195 245.716V250H285.371V245.786C285.371 244.596 286.211 243.812 287.429 243.812C288.479 243.812 288.927 244.386 288.927 245.716V250H290.103V245.436ZM292.351 240.62C292.351 241.082 292.701 241.432 293.163 241.432C293.625 241.432 293.975 241.082 293.975 240.62C293.975 240.158 293.625 239.808 293.163 239.808C292.701 239.808 292.351 240.158 292.351 240.62ZM292.575 250H293.751V242.916H292.575V250ZM296.798 248.18C296.798 249.454 297.554 250.112 298.954 250.112C299.402 250.112 299.822 250.056 300.228 249.93V248.95C299.822 249.034 299.444 249.076 299.122 249.076C298.324 249.076 297.974 248.782 297.974 248.096V243.924H300.2V242.916H297.974V240.816H296.798V242.916H295.384V243.924H296.798V248.18ZM308.255 246.822C308.283 246.612 308.297 246.402 308.297 246.192C308.297 244.134 306.897 242.72 304.923 242.72C302.837 242.72 301.381 244.302 301.381 246.472C301.381 248.67 302.879 250.196 305.021 250.196C306.323 250.196 307.415 249.636 308.101 248.67L307.303 247.998C306.715 248.74 305.959 249.104 305.049 249.104C303.663 249.104 302.711 248.236 302.585 246.822H308.255ZM302.613 245.87C302.823 244.596 303.677 243.812 304.923 243.812C306.155 243.812 306.981 244.568 307.093 245.87H302.613ZM315.768 239.752V244.218C315.334 243.308 314.326 242.72 313.136 242.72C311.204 242.72 309.776 244.274 309.776 246.458C309.776 248.642 311.204 250.196 313.136 250.196C314.326 250.196 315.334 249.608 315.768 248.698V250H316.944V239.752H315.768ZM315.824 246.458C315.824 247.228 315.6 247.872 315.152 248.362C314.718 248.852 314.13 249.104 313.416 249.104C312.702 249.104 312.114 248.852 311.666 248.362C311.232 247.872 311.008 247.228 311.008 246.458C311.008 245.688 311.232 245.044 311.666 244.554C312.114 244.064 312.702 243.812 313.416 243.812C314.13 243.812 314.718 244.064 315.152 244.554C315.6 245.044 315.824 245.688 315.824 246.458ZM38.748 262.916V264.218C38.342 263.308 37.32 262.72 36.13 262.72C34.184 262.72 32.756 264.274 32.756 266.458C32.756 268.642 34.184 270.196 36.13 270.196C37.32 270.196 38.342 269.608 38.748 268.698V270H39.924V262.916H38.748ZM38.804 266.458C38.804 267.228 38.58 267.872 38.132 268.362C37.698 268.852 37.11 269.104 36.396 269.104C35.682 269.104 35.094 268.852 34.646 268.362C34.212 267.872 33.988 267.228 33.988 266.458C33.988 265.688 34.212 265.044 34.646 264.554C35.094 264.064 35.682 263.812 36.396 263.812C37.11 263.812 37.698 264.064 38.132 264.554C38.58 265.044 38.804 265.688 38.804 266.458ZM41.9435 266.458C41.9435 268.614 43.4275 270.196 45.5835 270.196C46.8855 270.196 47.9495 269.65 48.5515 268.656L47.6275 268.012C47.1935 268.726 46.4795 269.104 45.5975 269.104C44.8835 269.104 44.2955 268.866 43.8475 268.376C43.3995 267.886 43.1755 267.256 43.1755 266.458C43.1755 265.66 43.3995 265.03 43.8475 264.54C44.2955 264.05 44.8835 263.812 45.5975 263.812C46.4795 263.812 47.1935 264.19 47.6275 264.904L48.5515 264.26C47.9495 263.266 46.8855 262.72 45.5835 262.72C43.4275 262.72 41.9435 264.302 41.9435 266.458ZM49.7775 266.458C49.7775 268.614 51.2615 270.196 53.4175 270.196C54.7195 270.196 55.7835 269.65 56.3855 268.656L55.4615 268.012C55.0275 268.726 54.3135 269.104 53.4315 269.104C52.7175 269.104 52.1295 268.866 51.6815 268.376C51.2335 267.886 51.0095 267.256 51.0095 266.458C51.0095 265.66 51.2335 265.03 51.6815 264.54C52.1295 264.05 52.7175 263.812 53.4315 263.812C54.3135 263.812 55.0275 264.19 55.4615 264.904L56.3855 264.26C55.7835 263.266 54.7195 262.72 53.4175 262.72C51.2615 262.72 49.7775 264.302 49.7775 266.458ZM64.4855 266.822C64.5135 266.612 64.5275 266.402 64.5275 266.192C64.5275 264.134 63.1275 262.72 61.1535 262.72C59.0675 262.72 57.6115 264.302 57.6115 266.472C57.6115 268.67 59.1095 270.196 61.2515 270.196C62.5535 270.196 63.6455 269.636 64.3315 268.67L63.5335 267.998C62.9455 268.74 62.1895 269.104 61.2795 269.104C59.8935 269.104 58.9415 268.236 58.8155 266.822H64.4855ZM58.8435 265.87C59.0535 264.596 59.9075 263.812 61.1535 263.812C62.3855 263.812 63.2115 264.568 63.3235 265.87H58.8435ZM65.838 268.656C66.398 269.608 67.56 270.196 69.002 270.196C70.738 270.196 71.788 269.314 71.788 267.97C71.788 266.976 71.186 266.346 69.786 266.024L68.54 265.744C67.588 265.52 67.266 265.254 67.266 264.792C67.266 264.162 67.798 263.784 68.806 263.784C69.688 263.784 70.402 264.078 70.864 264.624L71.676 263.924C71.102 263.154 70.108 262.72 68.876 262.72C67.154 262.72 66.09 263.574 66.09 264.82C66.09 265.814 66.79 266.458 68.246 266.794L69.366 267.046C70.262 267.256 70.612 267.55 70.612 268.054C70.612 268.712 69.996 269.132 68.988 269.132C68.022 269.132 67.196 268.754 66.692 268.026L65.838 268.656ZM73.0021 268.656C73.5621 269.608 74.7241 270.196 76.1661 270.196C77.9021 270.196 78.9521 269.314 78.9521 267.97C78.9521 266.976 78.3501 266.346 76.9501 266.024L75.7041 265.744C74.7521 265.52 74.4301 265.254 74.4301 264.792C74.4301 264.162 74.9621 263.784 75.9701 263.784C76.8521 263.784 77.5661 264.078 78.0281 264.624L78.8401 263.924C78.2661 263.154 77.2721 262.72 76.0401 262.72C74.3181 262.72 73.2541 263.574 73.2541 264.82C73.2541 265.814 73.9541 266.458 75.4101 266.794L76.5301 267.046C77.4261 267.256 77.7761 267.55 77.7761 268.054C77.7761 268.712 77.1601 269.132 76.1521 269.132C75.1861 269.132 74.3601 268.754 73.8561 268.026L73.0021 268.656ZM84.3913 268.18C84.3913 269.454 85.1473 270.112 86.5473 270.112C86.9953 270.112 87.4153 270.056 87.8213 269.93V268.95C87.4153 269.034 87.0373 269.076 86.7153 269.076C85.9173 269.076 85.5673 268.782 85.5673 268.096V263.924H87.7933V262.916H85.5673V260.816H84.3913V262.916H82.9773V263.924H84.3913V268.18ZM88.9748 266.458C88.9468 268.46 90.4728 270.238 92.6148 270.196C94.7568 270.238 96.2828 268.46 96.2548 266.458C96.2828 264.456 94.7568 262.678 92.6148 262.72C90.4728 262.678 88.9468 264.456 88.9748 266.458ZM95.0228 266.458C95.0228 267.228 94.7988 267.872 94.3508 268.362C93.9168 268.852 93.3288 269.104 92.6148 269.104C91.9008 269.104 91.3128 268.852 90.8648 268.362C90.4308 267.872 90.2068 267.228 90.2068 266.458C90.2068 265.688 90.4308 265.044 90.8648 264.554C91.3128 264.064 91.9008 263.812 92.6148 263.812C93.3288 263.812 93.9168 264.064 94.3508 264.554C94.7988 265.044 95.0228 265.688 95.0228 266.458ZM106.326 262.916V266.934C106.326 268.11 105.402 268.908 104.114 268.908C103.008 268.908 102.49 268.32 102.49 266.976V262.916H101.314V267.256C101.314 269.034 102.252 270 103.834 270C104.996 270 105.92 269.496 106.326 268.6V269.314C106.326 271.036 105.486 271.904 104.016 271.904C103.176 271.904 102.364 271.61 101.79 271.092L101.104 271.932C101.762 272.604 102.854 272.996 104.044 272.996C106.228 272.996 107.502 271.708 107.502 269.314V262.916H106.326ZM109.524 266.458C109.496 268.46 111.022 270.238 113.164 270.196C115.306 270.238 116.832 268.46 116.804 266.458C116.832 264.456 115.306 262.678 113.164 262.72C111.022 262.678 109.496 264.456 109.524 266.458ZM115.572 266.458C115.572 267.228 115.348 267.872 114.9 268.362C114.466 268.852 113.878 269.104 113.164 269.104C112.45 269.104 111.862 268.852 111.414 268.362C110.98 267.872 110.756 267.228 110.756 266.458C110.756 265.688 110.98 265.044 111.414 264.554C111.862 264.064 112.45 263.812 113.164 263.812C113.878 263.812 114.466 264.064 114.9 264.554C115.348 265.044 115.572 265.688 115.572 266.458ZM118.679 267.354C118.679 269.034 119.897 270.196 121.731 270.196C123.565 270.196 124.783 269.034 124.783 267.354V262.916H123.607V267.284C123.607 268.46 122.921 269.104 121.731 269.104C120.541 269.104 119.855 268.46 119.855 267.284V262.916H118.679V267.354ZM131.134 262.902C130.952 262.832 130.728 262.804 130.49 262.804C129.44 262.804 128.656 263.336 128.334 264.246V262.916H127.158V270H128.334V266.374C128.334 264.708 129.132 263.896 130.518 263.896C130.728 263.896 130.924 263.91 131.134 263.938V262.902ZM142.415 266.822C142.443 266.612 142.457 266.402 142.457 266.192C142.457 264.134 141.057 262.72 139.083 262.72C136.997 262.72 135.541 264.302 135.541 266.472C135.541 268.67 137.039 270.196 139.181 270.196C140.483 270.196 141.575 269.636 142.261 268.67L141.463 267.998C140.875 268.74 140.119 269.104 139.209 269.104C137.823 269.104 136.871 268.236 136.745 266.822H142.415ZM136.773 265.87C136.983 264.596 137.837 263.812 139.083 263.812C140.315 263.812 141.141 264.568 141.253 265.87H136.773ZM149.928 262.916V264.218C149.522 263.308 148.5 262.72 147.31 262.72C145.364 262.72 143.936 264.274 143.936 266.458C143.936 268.642 145.364 270.196 147.31 270.196C148.5 270.196 149.522 269.608 149.928 268.698V270H151.104V262.916H149.928ZM149.984 266.458C149.984 267.228 149.76 267.872 149.312 268.362C148.878 268.852 148.29 269.104 147.576 269.104C146.862 269.104 146.274 268.852 145.826 268.362C145.392 267.872 145.168 267.228 145.168 266.458C145.168 265.688 145.392 265.044 145.826 264.554C146.274 264.064 146.862 263.812 147.576 263.812C148.29 263.812 148.878 264.064 149.312 264.554C149.76 265.044 149.984 265.688 149.984 266.458ZM157.603 262.902C157.421 262.832 157.197 262.804 156.959 262.804C155.909 262.804 155.125 263.336 154.803 264.246V262.916H153.627V270H154.803V266.374C154.803 264.708 155.601 263.896 156.987 263.896C157.197 263.896 157.393 263.91 157.603 263.938V262.902ZM165.447 265.464C165.447 263.714 164.537 262.72 162.927 262.72C161.765 262.72 160.855 263.224 160.463 264.12V262.916H159.287V270H160.463V265.786C160.463 264.596 161.373 263.812 162.647 263.812C163.767 263.812 164.271 264.4 164.271 265.744V270H165.447V265.464ZM174.284 266.822C174.312 266.612 174.326 266.402 174.326 266.192C174.326 264.134 172.926 262.72 170.952 262.72C168.866 262.72 167.41 264.302 167.41 266.472C167.41 268.67 168.908 270.196 171.05 270.196C172.352 270.196 173.444 269.636 174.13 268.67L173.332 267.998C172.744 268.74 171.988 269.104 171.078 269.104C169.692 269.104 168.74 268.236 168.614 266.822H174.284ZM168.642 265.87C168.852 264.596 169.706 263.812 170.952 263.812C172.184 263.812 173.01 264.568 173.122 265.87H168.642ZM181.797 259.752V264.218C181.363 263.308 180.355 262.72 179.165 262.72C177.233 262.72 175.805 264.274 175.805 266.458C175.805 268.642 177.233 270.196 179.165 270.196C180.355 270.196 181.363 269.608 181.797 268.698V270H182.973V259.752H181.797ZM181.853 266.458C181.853 267.228 181.629 267.872 181.181 268.362C180.747 268.852 180.159 269.104 179.445 269.104C178.731 269.104 178.143 268.852 177.695 268.362C177.261 267.872 177.037 267.228 177.037 266.458C177.037 265.688 177.261 265.044 177.695 264.554C178.143 264.064 178.731 263.812 179.445 263.812C180.159 263.812 180.747 264.064 181.181 264.554C181.629 265.044 181.853 265.688 181.853 266.458ZM195.891 266.458C195.891 264.274 194.463 262.72 192.531 262.72C191.341 262.72 190.333 263.308 189.899 264.218V262.916H188.723V272.8H189.899V268.698C190.333 269.608 191.341 270.196 192.531 270.196C194.463 270.196 195.891 268.642 195.891 266.458ZM194.659 266.458C194.659 267.228 194.435 267.872 193.987 268.362C193.553 268.852 192.965 269.104 192.251 269.104C191.537 269.104 190.949 268.852 190.501 268.362C190.067 267.872 189.843 267.228 189.843 266.458C189.843 265.688 190.067 265.044 190.501 264.554C190.949 264.064 191.537 263.812 192.251 263.812C192.965 263.812 193.553 264.064 193.987 264.554C194.435 265.044 194.659 265.688 194.659 266.458ZM203.398 262.916V264.218C202.992 263.308 201.97 262.72 200.78 262.72C198.834 262.72 197.406 264.274 197.406 266.458C197.406 268.642 198.834 270.196 200.78 270.196C201.97 270.196 202.992 269.608 203.398 268.698V270H204.574V262.916H203.398ZM203.454 266.458C203.454 267.228 203.23 267.872 202.782 268.362C202.348 268.852 201.76 269.104 201.046 269.104C200.332 269.104 199.744 268.852 199.296 268.362C198.862 267.872 198.638 267.228 198.638 266.458C198.638 265.688 198.862 265.044 199.296 264.554C199.744 264.064 200.332 263.812 201.046 263.812C201.76 263.812 202.348 264.064 202.782 264.554C203.23 265.044 203.454 265.688 203.454 266.458ZM211.928 262.916V266.934C211.928 268.11 211.004 268.908 209.716 268.908C208.61 268.908 208.092 268.32 208.092 266.976V262.916H206.916V267.256C206.916 269.034 207.854 270 209.436 270C210.598 270 211.522 269.496 211.928 268.6V269.314C211.928 271.036 211.088 271.904 209.618 271.904C208.778 271.904 207.966 271.61 207.392 271.092L206.706 271.932C207.364 272.604 208.456 272.996 209.646 272.996C211.83 272.996 213.104 271.708 213.104 269.314V262.916H211.928ZM215.279 269.258C215.279 269.762 215.615 270.112 216.119 270.112C216.623 270.112 216.959 269.762 216.959 269.258C216.959 268.768 216.623 268.432 216.119 268.432C215.615 268.432 215.279 268.768 215.279 269.258Z" fill="#6B6B6B"/>
<g clip-path="url(#clip0_142_4849)">
<path d="M68 128C87.8823 128 104 111.882 104 92C104 72.1177 87.8823 56 68 56C48.1177 56 32 72.1177 32 92C32 111.882 48.1177 128 68 128Z" fill="#FC8900"/>
<path d="M103.933 94.1628L78.6567 68.8859C76.0069 66.0088 72.2106 64.2031 68 64.2031C60.0099 64.2031 53.5098 70.7035 53.5098 78.6933V87.6834H49.6996V107.932C49.6996 110.317 50.6896 112.468 52.2791 114.002L66.2528 127.957C66.8318 127.985 67.4141 128 68 128C87.1559 128 102.815 113.038 103.933 94.1628Z" fill="#E67500"/>
<path d="M82.4902 90.4775H76.3668V78.6934C76.3668 74.0799 72.6132 70.3266 68 70.3266C63.3868 70.3266 59.6333 74.0799 59.6333 78.6934V90.4775H53.5099V78.6934C53.5099 70.7036 60.01 64.2032 68 64.2032C75.9901 64.2032 82.4902 70.7036 82.4902 78.6934V90.4775Z" fill="white"/>
<path d="M82.4915 78.6914V90.4762H76.369V78.6914C76.369 74.0787 72.6126 70.327 68 70.327V64.2045C75.9916 64.2045 82.4915 70.7046 82.4915 78.6914Z" fill="#FFEC97"/>
<path d="M86.3005 87.6833V107.932C86.3005 112.594 82.522 116.369 77.8628 116.369H58.1372C53.478 116.369 49.6996 112.594 49.6996 107.932V87.6833H86.3005Z" fill="#96A0F0"/>
<path d="M86.3009 87.6828V107.931C86.3009 112.595 82.5223 116.369 77.8634 116.369H68V87.6828H86.3009Z" fill="#4A5BE5"/>
<path d="M72.5685 98.5569C72.5685 96.0339 70.5231 93.9885 68 93.9885C65.4769 93.9885 63.4316 96.0339 63.4316 98.5569C63.4316 100.279 64.3858 101.778 65.7934 102.556V106.668C65.7934 107.754 66.6819 108.642 67.7678 108.642H68.2323C69.3182 108.642 70.2067 107.754 70.2067 106.668V102.556C71.6143 101.778 72.5685 100.279 72.5685 98.5569Z" fill="#3A4DE3"/>
<path d="M72.5689 98.5574C72.5689 100.28 71.6141 101.778 70.2064 102.557V106.667C70.2064 107.753 69.3177 108.642 68.232 108.642H68V93.9885C70.5228 93.9885 72.5689 96.0332 72.5689 98.5574Z" fill="#1C2EDE"/>
</g>
<defs>
<clipPath id="clip0_142_4849">
<rect width="72" height="72" fill="white" transform="translate(32 56)"/>
</clipPath>
</defs>
</svg>
