<svg width="364" height="319" viewBox="0 0 364 319" fill="none" xmlns="http://www.w3.org/2000/svg">
<rect width="364" height="319" rx="40" fill="#F2F5FA"/>
<g clip-path="url(#clip0_142_4850)">
<path d="M68 128C87.8823 128 104 111.882 104 92C104 72.1177 87.8823 56 68 56C48.1177 56 32 72.1177 32 92C32 111.882 48.1177 128 68 128Z" fill="#FC8900"/>
<path d="M104 92C104 88.8975 103.607 85.8868 102.869 83.0145L88.1288 68.2736L87.5487 72.3364L79.2098 63.9975L74.991 72.9196L88.2362 86.1649L85.9107 88.1123L66.072 68.2736L63.0889 71.2567L82.6637 90.8314L80.0119 90.7134L68.1281 78.6766L52.5439 116.054L64.3025 127.812C65.5181 127.936 66.7517 128 68 128C87.8822 128 104 111.882 104 92Z" fill="#E67500"/>
<path d="M78.6173 92.7042L90.1742 89.5284C91.7614 89.0921 92.6945 87.4519 92.2584 85.8648C91.8222 84.2776 90.1819 83.3445 88.5948 83.7807L65.7454 90.0598C65.7454 90.0598 67.8007 84.1781 68.6777 82.2984C69.3736 80.8068 68.974 79.0465 67.5389 78.2403C66.1038 77.4341 64.3692 77.9935 63.4807 79.379C61.1241 83.054 53.2126 93.5038 53.2126 93.5038L58.2295 112.246L62.8035 113.499C64.7876 114.042 66.8813 114.041 68.865 113.496L79.3626 110.612L78.6173 92.7042Z" fill="#FFDECF"/>
<path d="M58.2292 112.246L62.8032 113.499C64.7873 114.042 66.881 114.041 68.8647 113.496L79.3623 110.612L78.8605 98.5488L75.5881 99.5208L56.0905 104.256L58.2292 112.246Z" fill="#FFCDBE"/>
<path d="M46.3021 93.3435L54.6825 91.0397L60.9212 113.735L52.5408 116.038L46.3021 93.3435Z" fill="white"/>
<path d="M49.7393 105.848L52.5439 116.054L60.9265 113.75L58.1782 103.749L49.7393 105.848Z" fill="#E9EDF5"/>
<path d="M81.1767 97.9954L81.4184 97.929C82.9656 97.5039 83.875 95.905 83.4499 94.358C83.0248 92.8109 81.4259 91.9013 79.8788 92.3265L74.2862 93.8634C72.739 94.2885 71.8296 95.8874 72.2547 97.4345C72.6582 98.9024 74.1181 99.7963 75.5881 99.5208L73.6421 100.056C71.9776 100.513 70.9989 102.233 71.4564 103.898C71.8631 105.378 73.2676 106.315 74.7441 106.184C73.4723 106.747 72.7696 108.171 73.1494 109.553C73.5676 111.075 75.1403 111.969 76.6622 111.551L82.1636 110.039C83.6854 109.621 84.5801 108.048 84.1619 106.527C83.8059 105.232 82.6141 104.391 81.3291 104.426L82.5866 104.081C84.2512 103.624 85.2298 101.903 84.7723 100.239C84.3375 98.6559 82.7614 97.6935 81.1767 97.9954Z" fill="#FFCDBE"/>
<path d="M75.5881 99.5208L73.6421 100.055C71.9776 100.513 70.9989 102.233 71.4564 103.898C71.8631 105.378 73.2676 106.315 74.7441 106.184C73.4723 106.747 72.7696 108.171 73.1494 109.553C73.5676 111.075 75.1403 111.969 76.6622 111.551L82.1636 110.039C83.6854 109.621 84.5801 108.048 84.162 106.526C83.8061 105.232 82.6143 104.391 81.3293 104.426L82.5867 104.081C84.2513 103.623 85.2299 101.903 84.7725 100.239C84.3375 98.6561 82.7614 97.6937 81.1767 97.9956L81.4184 97.9292L75.5881 99.5208Z" fill="#FFBEAA"/>
<path d="M74.991 63.9975H79.2098V72.9196H74.991V63.9975Z" fill="white"/>
<path d="M63.084 71.2592L66.0667 68.2765L72.3746 74.5844L69.392 77.5671L63.084 71.2592Z" fill="white"/>
<path d="M81.8127 74.5856L88.1206 68.2776L91.1033 71.2603L84.7953 77.5682L81.8127 74.5856Z" fill="white"/>
</g>
<path d="M33.104 178.424C34.064 180.896 36.512 182.336 39.896 182.336C43.832 182.336 46.16 180.32 46.16 177.392C46.16 175.088 44.744 173.624 41.504 172.856L38.792 172.208C36.608 171.704 35.768 170.912 35.768 169.568C35.768 167.816 37.208 166.784 39.608 166.784C41.696 166.784 43.304 167.576 44.096 168.944L45.752 167.936C44.912 166.112 42.632 164.864 39.656 164.864C35.936 164.864 33.608 166.832 33.608 169.592C33.608 171.824 35.168 173.336 38.288 174.08L41 174.728C43.088 175.232 43.976 176.096 43.976 177.464C43.976 179.264 42.44 180.416 39.92 180.416C37.52 180.416 35.696 179.36 34.808 177.44L33.104 178.424ZM49.1047 165.92C49.1047 166.712 49.7047 167.312 50.4967 167.312C51.2887 167.312 51.8887 166.712 51.8887 165.92C51.8887 165.128 51.2887 164.528 50.4967 164.528C49.7047 164.528 49.1047 165.128 49.1047 165.92ZM49.4887 182H51.5047V169.856H49.4887V182ZM74.0797 174.176C74.0797 171.2 72.6157 169.52 69.9277 169.52C67.8877 169.52 66.2797 170.504 65.6317 172.04C65.0557 170.408 63.7117 169.52 61.8637 169.52C60.0157 169.52 58.5277 170.384 57.8557 171.896V169.856H55.8397V182H57.8557V174.776C57.8557 172.736 59.2957 171.392 61.3837 171.392C63.1837 171.392 63.9517 172.376 63.9517 174.656V182H65.9677V174.776C65.9677 172.736 67.4077 171.392 69.4957 171.392C71.2957 171.392 72.0637 172.376 72.0637 174.656V182H74.0797V174.176ZM90.5808 175.928C90.5808 172.184 88.1328 169.52 84.8208 169.52C82.7808 169.52 81.0528 170.528 80.3088 172.088V169.856H78.2928V186.8H80.3088V179.768C81.0528 181.328 82.7808 182.336 84.8208 182.336C88.1328 182.336 90.5808 179.672 90.5808 175.928ZM88.4688 175.928C88.4688 177.248 88.0848 178.352 87.3168 179.192C86.5728 180.032 85.5648 180.464 84.3408 180.464C83.1168 180.464 82.1088 180.032 81.3408 179.192C80.5968 178.352 80.2128 177.248 80.2128 175.928C80.2128 174.608 80.5968 173.504 81.3408 172.664C82.1088 171.824 83.1168 171.392 84.3408 171.392C85.5648 171.392 86.5728 171.824 87.3168 172.664C88.0848 173.504 88.4688 174.608 88.4688 175.928ZM94.0428 182H96.0588V164.432H94.0428V182ZM111.291 176.552C111.339 176.192 111.363 175.832 111.363 175.472C111.363 171.944 108.963 169.52 105.579 169.52C102.003 169.52 99.5069 172.232 99.5069 175.952C99.5069 179.72 102.075 182.336 105.747 182.336C107.979 182.336 109.851 181.376 111.027 179.72L109.659 178.568C108.651 179.84 107.355 180.464 105.795 180.464C103.419 180.464 101.787 178.976 101.571 176.552H111.291ZM101.619 174.92C101.979 172.736 103.443 171.392 105.579 171.392C107.691 171.392 109.107 172.688 109.299 174.92H101.619ZM129.701 169.856V172.088C129.005 170.528 127.253 169.52 125.213 169.52C121.877 169.52 119.429 172.184 119.429 175.928C119.429 179.672 121.877 182.336 125.213 182.336C127.253 182.336 129.005 181.328 129.701 179.768V182H131.717V169.856H129.701ZM129.797 175.928C129.797 177.248 129.413 178.352 128.645 179.192C127.901 180.032 126.893 180.464 125.669 180.464C124.445 180.464 123.437 180.032 122.669 179.192C121.925 178.352 121.541 177.248 121.541 175.928C121.541 174.608 121.925 173.504 122.669 172.664C123.437 171.824 124.445 171.392 125.669 171.392C126.893 171.392 127.901 171.824 128.645 172.664C129.413 173.504 129.797 174.608 129.797 175.928ZM146.603 174.224C146.603 171.224 145.043 169.52 142.283 169.52C140.291 169.52 138.731 170.384 138.059 171.92V169.856H136.043V182H138.059V174.776C138.059 172.736 139.619 171.392 141.803 171.392C143.723 171.392 144.587 172.4 144.587 174.704V182H146.603V174.224ZM160.24 164.432V172.088C159.496 170.528 157.768 169.52 155.728 169.52C152.416 169.52 149.968 172.184 149.968 175.928C149.968 179.672 152.416 182.336 155.728 182.336C157.768 182.336 159.496 181.328 160.24 179.768V182H162.256V164.432H160.24ZM160.336 175.928C160.336 177.248 159.952 178.352 159.184 179.192C158.44 180.032 157.432 180.464 156.208 180.464C154.984 180.464 153.976 180.032 153.208 179.192C152.464 178.352 152.08 177.248 152.08 175.928C152.08 174.608 152.464 173.504 153.208 172.664C153.976 171.824 154.984 171.392 156.208 171.392C157.432 171.392 158.44 171.824 159.184 172.664C159.952 173.504 160.336 174.608 160.336 175.928ZM174.561 180.056V174.488H183.465V172.568H174.561V167.144H183.945V165.2H172.449V182H184.185V180.056H174.561ZM197.341 169.856V172.088C196.645 170.528 194.893 169.52 192.853 169.52C189.517 169.52 187.069 172.184 187.069 175.928C187.069 179.672 189.517 182.336 192.853 182.336C194.893 182.336 196.645 181.328 197.341 179.768V182H199.357V169.856H197.341ZM197.437 175.928C197.437 177.248 197.053 178.352 196.285 179.192C195.541 180.032 194.533 180.464 193.309 180.464C192.085 180.464 191.077 180.032 190.309 179.192C189.565 178.352 189.181 177.248 189.181 175.928C189.181 174.608 189.565 173.504 190.309 172.664C191.077 171.824 192.085 171.392 193.309 171.392C194.533 171.392 195.541 171.824 196.285 172.664C197.053 173.504 197.437 174.608 197.437 175.928ZM202.531 179.696C203.491 181.328 205.483 182.336 207.955 182.336C210.931 182.336 212.731 180.824 212.731 178.52C212.731 176.816 211.699 175.736 209.299 175.184L207.163 174.704C205.531 174.32 204.979 173.864 204.979 173.072C204.979 171.992 205.891 171.344 207.619 171.344C209.131 171.344 210.355 171.848 211.147 172.784L212.539 171.584C211.555 170.264 209.851 169.52 207.739 169.52C204.787 169.52 202.963 170.984 202.963 173.12C202.963 174.824 204.163 175.928 206.659 176.504L208.579 176.936C210.115 177.296 210.715 177.8 210.715 178.664C210.715 179.792 209.659 180.512 207.931 180.512C206.275 180.512 204.859 179.864 203.995 178.616L202.531 179.696ZM224.268 169.856V176.744C224.268 178.76 222.684 180.128 220.476 180.128C218.58 180.128 217.692 179.12 217.692 176.816V169.856H215.676V177.296C215.676 180.344 217.284 182 219.996 182C221.988 182 223.572 181.136 224.268 179.6V180.824C224.268 183.776 222.828 185.264 220.308 185.264C218.868 185.264 217.476 184.76 216.492 183.872L215.316 185.312C216.444 186.464 218.316 187.136 220.356 187.136C224.1 187.136 226.284 184.928 226.284 180.824V169.856H224.268Z" fill="#1C468A"/>
<path d="M40.386 220H41.66L37.67 210.2H36.298L32.308 220H33.582L34.632 217.34H39.336L40.386 220ZM35.08 216.22L36.984 211.418L38.888 216.22H35.08ZM43.6501 220H44.8261V213.924H46.8981V212.916H44.8261V211.866C44.8261 211.012 45.1761 210.648 46.0021 210.648C46.2821 210.648 46.5901 210.676 46.9261 210.746V209.752C46.5621 209.668 46.1981 209.626 45.8481 209.626C44.3501 209.626 43.6501 210.312 43.6501 211.838V212.916H42.1941V213.924H43.6501V220ZM49.0358 218.18C49.0358 219.454 49.7918 220.112 51.1918 220.112C51.6398 220.112 52.0598 220.056 52.4658 219.93V218.95C52.0598 219.034 51.6818 219.076 51.3598 219.076C50.5618 219.076 50.2118 218.782 50.2118 218.096V213.924H52.4378V212.916H50.2118V210.816H49.0358V212.916H47.6218V213.924H49.0358V218.18ZM60.4933 216.822C60.5213 216.612 60.5353 216.402 60.5353 216.192C60.5353 214.134 59.1353 212.72 57.1613 212.72C55.0753 212.72 53.6193 214.302 53.6193 216.472C53.6193 218.67 55.1173 220.196 57.2593 220.196C58.5613 220.196 59.6533 219.636 60.3393 218.67L59.5413 217.998C58.9533 218.74 58.1973 219.104 57.2873 219.104C55.9013 219.104 54.9493 218.236 54.8233 216.822H60.4933ZM54.8513 215.87C55.0613 214.596 55.9153 213.812 57.1613 213.812C58.3933 213.812 59.2193 214.568 59.3313 215.87H54.8513ZM66.4938 212.902C66.3118 212.832 66.0878 212.804 65.8498 212.804C64.7998 212.804 64.0158 213.336 63.6938 214.246V212.916H62.5178V220H63.6938V216.374C63.6938 214.708 64.4918 213.896 65.8778 213.896C66.0878 213.896 66.2838 213.91 66.4938 213.938V212.902ZM78.5305 220H79.8045L75.8145 210.2H74.4425L70.4525 220H71.7265L72.7765 217.34H77.4805L78.5305 220ZM73.2245 216.22L75.1285 211.418L77.0325 216.22H73.2245ZM81.3713 220H82.5473V209.752H81.3713V220ZM85.0627 220H86.2387V209.752H85.0627V220ZM88.1241 222.086H89.0481L90.0281 218.306H88.7961L88.1241 222.086ZM95.5817 220H96.8137V210.2H95.5817V220ZM100.073 218.18C100.073 219.454 100.829 220.112 102.229 220.112C102.677 220.112 103.097 220.056 103.503 219.93V218.95C103.097 219.034 102.719 219.076 102.397 219.076C101.599 219.076 101.249 218.782 101.249 218.096V213.924H103.475V212.916H101.249V210.816H100.073V212.916H98.6589V213.924H100.073V218.18ZM105.168 213.784H106.008L106.232 210.004H104.944L105.168 213.784ZM107.455 218.656C108.015 219.608 109.177 220.196 110.619 220.196C112.355 220.196 113.405 219.314 113.405 217.97C113.405 216.976 112.803 216.346 111.403 216.024L110.157 215.744C109.205 215.52 108.883 215.254 108.883 214.792C108.883 214.162 109.415 213.784 110.423 213.784C111.305 213.784 112.019 214.078 112.481 214.624L113.293 213.924C112.719 213.154 111.725 212.72 110.493 212.72C108.771 212.72 107.707 213.574 107.707 214.82C107.707 215.814 108.407 216.458 109.863 216.794L110.983 217.046C111.879 217.256 112.229 217.55 112.229 218.054C112.229 218.712 111.613 219.132 110.605 219.132C109.639 219.132 108.813 218.754 108.309 218.026L107.455 218.656ZM124.229 210.2L121.219 214.848L118.209 210.2H116.823L120.603 215.94V220H121.835V215.94L125.615 210.2H124.229ZM125.164 216.458C125.136 218.46 126.662 220.238 128.804 220.196C130.946 220.238 132.472 218.46 132.444 216.458C132.472 214.456 130.946 212.678 128.804 212.72C126.662 212.678 125.136 214.456 125.164 216.458ZM131.212 216.458C131.212 217.228 130.988 217.872 130.54 218.362C130.106 218.852 129.518 219.104 128.804 219.104C128.09 219.104 127.502 218.852 127.054 218.362C126.62 217.872 126.396 217.228 126.396 216.458C126.396 215.688 126.62 215.044 127.054 214.554C127.502 214.064 128.09 213.812 128.804 213.812C129.518 213.812 130.106 214.064 130.54 214.554C130.988 215.044 131.212 215.688 131.212 216.458ZM134.319 217.354C134.319 219.034 135.537 220.196 137.371 220.196C139.205 220.196 140.423 219.034 140.423 217.354V212.916H139.247V217.284C139.247 218.46 138.561 219.104 137.371 219.104C136.181 219.104 135.495 218.46 135.495 217.284V212.916H134.319V217.354ZM146.775 212.902C146.593 212.832 146.369 212.804 146.131 212.804C145.081 212.804 144.297 213.336 143.975 214.246V212.916H142.799V220H143.975V216.374C143.975 214.708 144.773 213.896 146.159 213.896C146.369 213.896 146.565 213.91 146.775 213.938V212.902ZM159.19 213.238C159.19 211.348 157.972 210.2 155.886 210.2H151.882V220H153.114V216.262H155.886C157.972 216.262 159.19 215.128 159.19 213.238ZM157.902 213.238C157.902 214.568 157.286 215.142 155.788 215.142H153.114V211.334H155.788C157.286 211.334 157.902 211.908 157.902 213.238ZM166.389 212.916V214.218C165.983 213.308 164.961 212.72 163.771 212.72C161.825 212.72 160.397 214.274 160.397 216.458C160.397 218.642 161.825 220.196 163.771 220.196C164.961 220.196 165.983 219.608 166.389 218.698V220H167.565V212.916H166.389ZM166.445 216.458C166.445 217.228 166.221 217.872 165.773 218.362C165.339 218.852 164.751 219.104 164.037 219.104C163.323 219.104 162.735 218.852 162.287 218.362C161.853 217.872 161.629 217.228 161.629 216.458C161.629 215.688 161.853 215.044 162.287 214.554C162.735 214.064 163.323 213.812 164.037 213.812C164.751 213.812 165.339 214.064 165.773 214.554C166.221 215.044 166.445 215.688 166.445 216.458ZM174.918 212.916V216.934C174.918 218.11 173.994 218.908 172.706 218.908C171.6 218.908 171.082 218.32 171.082 216.976V212.916H169.906V217.256C169.906 219.034 170.844 220 172.426 220C173.588 220 174.512 219.496 174.918 218.6V219.314C174.918 221.036 174.078 221.904 172.608 221.904C171.768 221.904 170.956 221.61 170.382 221.092L169.696 221.932C170.354 222.604 171.446 222.996 172.636 222.996C174.82 222.996 176.094 221.708 176.094 219.314V212.916H174.918ZM178.269 219.258C178.269 219.762 178.605 220.112 179.109 220.112C179.613 220.112 179.949 219.762 179.949 219.258C179.949 218.768 179.613 218.432 179.109 218.432C178.605 218.432 178.269 218.768 178.269 219.258ZM45.006 230.2L42.528 238.292L39.938 230.2H38.706L36.116 238.292L33.638 230.2H32.42L35.458 240H36.704L39.322 231.796L41.94 240H43.186L46.224 230.2H45.006ZM47.6926 230.62C47.6926 231.082 48.0426 231.432 48.5046 231.432C48.9666 231.432 49.3166 231.082 49.3166 230.62C49.3166 230.158 48.9666 229.808 48.5046 229.808C48.0426 229.808 47.6926 230.158 47.6926 230.62ZM47.9166 240H49.0926V232.916H47.9166V240ZM52.1393 238.18C52.1393 239.454 52.8953 240.112 54.2953 240.112C54.7433 240.112 55.1633 240.056 55.5693 239.93V238.95C55.1633 239.034 54.7853 239.076 54.4633 239.076C53.6653 239.076 53.3153 238.782 53.3153 238.096V233.924H55.5413V232.916H53.3153V230.816H52.1393V232.916H50.7253V233.924H52.1393V238.18ZM63.5235 235.464C63.5235 233.714 62.6135 232.72 61.0035 232.72C59.8415 232.72 58.9315 233.224 58.5395 234.12V229.752H57.3635V240H58.5395V235.786C58.5395 234.596 59.4495 233.812 60.7235 233.812C61.8435 233.812 62.3475 234.4 62.3475 235.744V240H63.5235V235.464ZM68.601 237.914C69.161 239.356 70.589 240.196 72.563 240.196C74.859 240.196 76.217 239.02 76.217 237.312C76.217 235.968 75.391 235.114 73.501 234.666L71.919 234.288C70.645 233.994 70.155 233.532 70.155 232.748C70.155 231.726 70.995 231.124 72.395 231.124C73.613 231.124 74.551 231.586 75.013 232.384L75.979 231.796C75.489 230.732 74.159 230.004 72.423 230.004C70.253 230.004 68.895 231.152 68.895 232.762C68.895 234.064 69.805 234.946 71.625 235.38L73.207 235.758C74.425 236.052 74.943 236.556 74.943 237.354C74.943 238.404 74.047 239.076 72.577 239.076C71.177 239.076 70.113 238.46 69.595 237.34L68.601 237.914ZM83.6328 232.916V234.218C83.2268 233.308 82.2048 232.72 81.0148 232.72C79.0688 232.72 77.6408 234.274 77.6408 236.458C77.6408 238.642 79.0688 240.196 81.0148 240.196C82.2048 240.196 83.2268 239.608 83.6328 238.698V240H84.8088V232.916H83.6328ZM83.6888 236.458C83.6888 237.228 83.4648 237.872 83.0168 238.362C82.5828 238.852 81.9948 239.104 81.2808 239.104C80.5668 239.104 79.9788 238.852 79.5308 238.362C79.0968 237.872 78.8728 237.228 78.8728 236.458C78.8728 235.688 79.0968 235.044 79.5308 234.554C79.9788 234.064 80.5668 233.812 81.2808 233.812C81.9948 233.812 82.5828 234.064 83.0168 234.554C83.4648 235.044 83.6888 235.688 83.6888 236.458ZM87.3323 240H88.5083V229.752H87.3323V240ZM96.5117 232.916V234.218C96.1057 233.308 95.0837 232.72 93.8937 232.72C91.9477 232.72 90.5197 234.274 90.5197 236.458C90.5197 238.642 91.9477 240.196 93.8937 240.196C95.0837 240.196 96.1057 239.608 96.5117 238.698V240H97.6877V232.916H96.5117ZM96.5677 236.458C96.5677 237.228 96.3437 237.872 95.8957 238.362C95.4617 238.852 94.8737 239.104 94.1597 239.104C93.4457 239.104 92.8577 238.852 92.4097 238.362C91.9757 237.872 91.7517 237.228 91.7517 236.458C91.7517 235.688 91.9757 235.044 92.4097 234.554C92.8577 234.064 93.4457 233.812 94.1597 233.812C94.8737 233.812 95.4617 234.064 95.8957 234.554C96.3437 235.044 96.5677 235.688 96.5677 236.458ZM104.187 232.902C104.005 232.832 103.781 232.804 103.543 232.804C102.493 232.804 101.709 233.336 101.387 234.246V232.916H100.211V240H101.387V236.374C101.387 234.708 102.185 233.896 103.571 233.896C103.781 233.896 103.977 233.91 104.187 233.938V232.902ZM110.701 232.916V236.934C110.701 238.11 109.777 238.908 108.489 238.908C107.383 238.908 106.865 238.32 106.865 236.976V232.916H105.689V237.256C105.689 239.034 106.627 240 108.209 240C109.371 240 110.295 239.496 110.701 238.6V239.314C110.701 241.036 109.861 241.904 108.391 241.904C107.551 241.904 106.739 241.61 106.165 241.092L105.479 241.932C106.137 242.604 107.229 242.996 108.419 242.996C110.603 242.996 111.877 241.708 111.877 239.314V232.916H110.701ZM121.907 233.238C121.907 231.348 120.689 230.2 118.603 230.2H114.599V240H115.831V236.262H118.603C120.689 236.262 121.907 235.128 121.907 233.238ZM120.619 233.238C120.619 234.568 120.003 235.142 118.505 235.142H115.831V231.334H118.505C120.003 231.334 120.619 231.908 120.619 233.238ZM129.105 232.916V234.218C128.699 233.308 127.677 232.72 126.487 232.72C124.541 232.72 123.113 234.274 123.113 236.458C123.113 238.642 124.541 240.196 126.487 240.196C127.677 240.196 128.699 239.608 129.105 238.698V240H130.281V232.916H129.105ZM129.161 236.458C129.161 237.228 128.937 237.872 128.489 238.362C128.055 238.852 127.467 239.104 126.753 239.104C126.039 239.104 125.451 238.852 125.003 238.362C124.569 237.872 124.345 237.228 124.345 236.458C124.345 235.688 124.569 235.044 125.003 234.554C125.451 234.064 126.039 233.812 126.753 233.812C127.467 233.812 128.055 234.064 128.489 234.554C128.937 235.044 129.161 235.688 129.161 236.458ZM137.635 232.916V236.934C137.635 238.11 136.711 238.908 135.423 238.908C134.317 238.908 133.799 238.32 133.799 236.976V232.916H132.623V237.256C132.623 239.034 133.561 240 135.143 240C136.305 240 137.229 239.496 137.635 238.6V239.314C137.635 241.036 136.795 241.904 135.325 241.904C134.485 241.904 133.673 241.61 133.099 241.092L132.413 241.932C133.071 242.604 134.163 242.996 135.353 242.996C137.537 242.996 138.811 241.708 138.811 239.314V232.916H137.635ZM150.072 235.1C150.072 232.062 148.098 230.2 145.256 230.2H141.532V240H145.256C148.098 240 150.072 238.138 150.072 235.1ZM148.784 235.1C148.784 237.494 147.454 238.852 145.256 238.852H142.764V231.348H145.256C147.454 231.348 148.784 232.706 148.784 235.1ZM157.721 232.916V234.218C157.315 233.308 156.293 232.72 155.103 232.72C153.157 232.72 151.729 234.274 151.729 236.458C151.729 238.642 153.157 240.196 155.103 240.196C156.293 240.196 157.315 239.608 157.721 238.698V240H158.897V232.916H157.721ZM157.777 236.458C157.777 237.228 157.553 237.872 157.105 238.362C156.671 238.852 156.083 239.104 155.369 239.104C154.655 239.104 154.067 238.852 153.619 238.362C153.185 237.872 152.961 237.228 152.961 236.458C152.961 235.688 153.185 235.044 153.619 234.554C154.067 234.064 154.655 233.812 155.369 233.812C156.083 233.812 156.671 234.064 157.105 234.554C157.553 235.044 157.777 235.688 157.777 236.458ZM166.25 232.916V236.934C166.25 238.11 165.326 238.908 164.038 238.908C162.932 238.908 162.414 238.32 162.414 236.976V232.916H161.238V237.256C161.238 239.034 162.176 240 163.758 240C164.92 240 165.844 239.496 166.25 238.6V239.314C166.25 241.036 165.41 241.904 163.94 241.904C163.1 241.904 162.288 241.61 161.714 241.092L161.028 241.932C161.686 242.604 162.778 242.996 163.968 242.996C166.152 242.996 167.426 241.708 167.426 239.314V232.916H166.25ZM169.321 242.086H170.245L171.225 238.306H169.993L169.321 242.086ZM181.385 232.916V236.934C181.385 238.11 180.461 238.908 179.173 238.908C178.067 238.908 177.549 238.32 177.549 236.976V232.916H176.373V237.256C176.373 239.034 177.311 240 178.893 240C180.055 240 180.979 239.496 181.385 238.6V239.314C181.385 241.036 180.545 241.904 179.075 241.904C178.235 241.904 177.423 241.61 176.849 241.092L176.163 241.932C176.821 242.604 177.913 242.996 179.103 242.996C181.287 242.996 182.561 241.708 182.561 239.314V232.916H181.385ZM184.582 236.458C184.554 238.46 186.08 240.238 188.222 240.196C190.364 240.238 191.89 238.46 191.862 236.458C191.89 234.456 190.364 232.678 188.222 232.72C186.08 232.678 184.554 234.456 184.582 236.458ZM190.63 236.458C190.63 237.228 190.406 237.872 189.958 238.362C189.524 238.852 188.936 239.104 188.222 239.104C187.508 239.104 186.92 238.852 186.472 238.362C186.038 237.872 185.814 237.228 185.814 236.458C185.814 235.688 186.038 235.044 186.472 234.554C186.92 234.064 187.508 233.812 188.222 233.812C188.936 233.812 189.524 234.064 189.958 234.554C190.406 235.044 190.63 235.688 190.63 236.458ZM193.737 237.354C193.737 239.034 194.955 240.196 196.789 240.196C198.623 240.196 199.841 239.034 199.841 237.354V232.916H198.665V237.284C198.665 238.46 197.979 239.104 196.789 239.104C195.599 239.104 194.913 238.46 194.913 237.284V232.916H193.737V237.354ZM204.94 236.458C204.94 238.614 206.424 240.196 208.58 240.196C209.882 240.196 210.946 239.65 211.548 238.656L210.624 238.012C210.19 238.726 209.476 239.104 208.594 239.104C207.88 239.104 207.292 238.866 206.844 238.376C206.396 237.886 206.172 237.256 206.172 236.458C206.172 235.66 206.396 235.03 206.844 234.54C207.292 234.05 207.88 233.812 208.594 233.812C209.476 233.812 210.19 234.19 210.624 234.904L211.548 234.26C210.946 233.266 209.882 232.72 208.58 232.72C206.424 232.72 204.94 234.302 204.94 236.458ZM218.766 232.916V234.218C218.36 233.308 217.338 232.72 216.148 232.72C214.202 232.72 212.774 234.274 212.774 236.458C212.774 238.642 214.202 240.196 216.148 240.196C217.338 240.196 218.36 239.608 218.766 238.698V240H219.942V232.916H218.766ZM218.822 236.458C218.822 237.228 218.598 237.872 218.15 238.362C217.716 238.852 217.128 239.104 216.414 239.104C215.7 239.104 215.112 238.852 214.664 238.362C214.23 237.872 214.006 237.228 214.006 236.458C214.006 235.688 214.23 235.044 214.664 234.554C215.112 234.064 215.7 233.812 216.414 233.812C217.128 233.812 217.716 234.064 218.15 234.554C218.598 235.044 218.822 235.688 218.822 236.458ZM228.625 235.464C228.625 233.714 227.715 232.72 226.105 232.72C224.943 232.72 224.033 233.224 223.641 234.12V232.916H222.465V240H223.641V235.786C223.641 234.596 224.551 233.812 225.825 233.812C226.945 233.812 227.449 234.4 227.449 235.744V240H228.625V235.464ZM239.807 232.916V234.218C239.401 233.308 238.379 232.72 237.189 232.72C235.243 232.72 233.815 234.274 233.815 236.458C233.815 238.642 235.243 240.196 237.189 240.196C238.379 240.196 239.401 239.608 239.807 238.698V240H240.983V232.916H239.807ZM239.863 236.458C239.863 237.228 239.639 237.872 239.191 238.362C238.757 238.852 238.169 239.104 237.455 239.104C236.741 239.104 236.153 238.852 235.705 238.362C235.271 237.872 235.047 237.228 235.047 236.458C235.047 235.688 235.271 235.044 235.705 234.554C236.153 234.064 236.741 233.812 237.455 233.812C238.169 233.812 238.757 234.064 239.191 234.554C239.639 235.044 239.863 235.688 239.863 236.458ZM243.002 236.458C243.002 238.614 244.486 240.196 246.642 240.196C247.944 240.196 249.008 239.65 249.61 238.656L248.686 238.012C248.252 238.726 247.538 239.104 246.656 239.104C245.942 239.104 245.354 238.866 244.906 238.376C244.458 237.886 244.234 237.256 244.234 236.458C244.234 235.66 244.458 235.03 244.906 234.54C245.354 234.05 245.942 233.812 246.656 233.812C247.538 233.812 248.252 234.19 248.686 234.904L249.61 234.26C249.008 233.266 247.944 232.72 246.642 232.72C244.486 232.72 243.002 234.302 243.002 236.458ZM250.836 236.458C250.836 238.614 252.32 240.196 254.476 240.196C255.778 240.196 256.842 239.65 257.444 238.656L256.52 238.012C256.086 238.726 255.372 239.104 254.49 239.104C253.776 239.104 253.188 238.866 252.74 238.376C252.292 237.886 252.068 237.256 252.068 236.458C252.068 235.66 252.292 235.03 252.74 234.54C253.188 234.05 253.776 233.812 254.49 233.812C255.372 233.812 256.086 234.19 256.52 234.904L257.444 234.26C256.842 233.266 255.778 232.72 254.476 232.72C252.32 232.72 250.836 234.302 250.836 236.458ZM265.544 236.822C265.572 236.612 265.586 236.402 265.586 236.192C265.586 234.134 264.186 232.72 262.212 232.72C260.126 232.72 258.67 234.302 258.67 236.472C258.67 238.67 260.168 240.196 262.31 240.196C263.612 240.196 264.704 239.636 265.39 238.67L264.592 237.998C264.004 238.74 263.248 239.104 262.338 239.104C260.952 239.104 260 238.236 259.874 236.822H265.544ZM259.902 235.87C260.112 234.596 260.966 233.812 262.212 233.812C263.444 233.812 264.27 234.568 264.382 235.87H259.902ZM266.897 238.656C267.457 239.608 268.619 240.196 270.061 240.196C271.797 240.196 272.847 239.314 272.847 237.97C272.847 236.976 272.245 236.346 270.845 236.024L269.599 235.744C268.647 235.52 268.325 235.254 268.325 234.792C268.325 234.162 268.857 233.784 269.865 233.784C270.747 233.784 271.461 234.078 271.923 234.624L272.735 233.924C272.161 233.154 271.167 232.72 269.935 232.72C268.213 232.72 267.149 233.574 267.149 234.82C267.149 235.814 267.849 236.458 269.305 236.794L270.425 237.046C271.321 237.256 271.671 237.55 271.671 238.054C271.671 238.712 271.055 239.132 270.047 239.132C269.081 239.132 268.255 238.754 267.751 238.026L266.897 238.656ZM274.061 238.656C274.621 239.608 275.783 240.196 277.225 240.196C278.961 240.196 280.011 239.314 280.011 237.97C280.011 236.976 279.409 236.346 278.009 236.024L276.763 235.744C275.811 235.52 275.489 235.254 275.489 234.792C275.489 234.162 276.021 233.784 277.029 233.784C277.911 233.784 278.625 234.078 279.087 234.624L279.899 233.924C279.325 233.154 278.331 232.72 277.099 232.72C275.377 232.72 274.313 233.574 274.313 234.82C274.313 235.814 275.013 236.458 276.469 236.794L277.589 237.046C278.485 237.256 278.835 237.55 278.835 238.054C278.835 238.712 278.219 239.132 277.211 239.132C276.245 239.132 275.419 238.754 274.915 238.026L274.061 238.656ZM284.997 237.354C284.997 239.034 286.215 240.196 288.049 240.196C289.883 240.196 291.101 239.034 291.101 237.354V232.916H289.925V237.284C289.925 238.46 289.239 239.104 288.049 239.104C286.859 239.104 286.173 238.46 286.173 237.284V232.916H284.997V237.354ZM300.645 236.458C300.645 234.274 299.217 232.72 297.285 232.72C296.095 232.72 295.087 233.308 294.653 234.218V232.916H293.477V242.8H294.653V238.698C295.087 239.608 296.095 240.196 297.285 240.196C299.217 240.196 300.645 238.642 300.645 236.458ZM299.413 236.458C299.413 237.228 299.189 237.872 298.741 238.362C298.307 238.852 297.719 239.104 297.005 239.104C296.291 239.104 295.703 238.852 295.255 238.362C294.821 237.872 294.597 237.228 294.597 236.458C294.597 235.688 294.821 235.044 295.255 234.554C295.703 234.064 296.291 233.812 297.005 233.812C297.719 233.812 298.307 234.064 298.741 234.554C299.189 235.044 299.413 235.688 299.413 236.458ZM306.204 238.18C306.204 239.454 306.96 240.112 308.36 240.112C308.808 240.112 309.228 240.056 309.634 239.93V238.95C309.228 239.034 308.85 239.076 308.528 239.076C307.73 239.076 307.38 238.782 307.38 238.096V233.924H309.606V232.916H307.38V230.816H306.204V232.916H304.79V233.924H306.204V238.18ZM310.787 236.458C310.759 238.46 312.285 240.238 314.427 240.196C316.569 240.238 318.095 238.46 318.067 236.458C318.095 234.456 316.569 232.678 314.427 232.72C312.285 232.678 310.759 234.456 310.787 236.458ZM316.835 236.458C316.835 237.228 316.611 237.872 316.163 238.362C315.729 238.852 315.141 239.104 314.427 239.104C313.713 239.104 313.125 238.852 312.677 238.362C312.243 237.872 312.019 237.228 312.019 236.458C312.019 235.688 312.243 235.044 312.677 234.554C313.125 234.064 313.713 233.812 314.427 233.812C315.141 233.812 315.729 234.064 316.163 234.554C316.611 235.044 316.835 235.688 316.835 236.458ZM39.56 256.976C39.56 255.086 38.188 253.938 36.284 253.938C35.542 253.938 34.884 254.12 34.324 254.47V251.306H39V250.2H33.162V255.1L34.156 255.688C34.772 255.24 35.458 255.016 36.214 255.016C37.558 255.016 38.342 255.744 38.342 256.976C38.342 258.278 37.446 259.09 35.934 259.09C34.982 259.09 34.17 258.754 33.4 258.012L32.658 258.782C33.512 259.72 34.618 260.196 35.962 260.196C38.146 260.196 39.56 258.88 39.56 256.976ZM41.1831 255.1C41.1831 258.306 42.6951 260.196 45.1171 260.196C47.5391 260.196 49.0511 258.306 49.0511 255.1C49.0511 251.894 47.5391 250.004 45.1171 250.004C42.6951 250.004 41.1831 251.894 41.1831 255.1ZM47.7911 255.1C47.7911 257.746 46.8531 259.076 45.1171 259.076C43.3811 259.076 42.4431 257.746 42.4431 255.1C42.4431 252.454 43.3811 251.124 45.1171 251.124C46.8531 251.124 47.7911 252.454 47.7911 255.1ZM50.5232 252.496C50.5232 253.896 51.6152 254.988 53.0012 254.988C54.3872 254.988 55.4792 253.896 55.4792 252.496C55.4792 251.096 54.3872 250.004 53.0012 250.004C51.6152 250.004 50.5232 251.096 50.5232 252.496ZM51.7972 260H52.9732L60.1552 250.2H58.9792L51.7972 260ZM54.4852 252.496C54.4852 253.448 53.8972 254.078 53.0012 254.078C52.1052 254.078 51.5172 253.448 51.5172 252.496C51.5172 251.544 52.1052 250.914 53.0012 250.914C53.8972 250.914 54.4852 251.544 54.4852 252.496ZM56.4732 257.704C56.4732 259.104 57.5652 260.196 58.9512 260.196C60.3372 260.196 61.4292 259.104 61.4292 257.704C61.4292 256.304 60.3372 255.212 58.9512 255.212C57.5652 255.212 56.4732 256.304 56.4732 257.704ZM60.4352 257.704C60.4352 258.656 59.8472 259.286 58.9512 259.286C58.0552 259.286 57.4672 258.656 57.4672 257.704C57.4672 256.752 58.0552 256.122 58.9512 256.122C59.8472 256.122 60.4352 256.752 60.4352 257.704ZM65.8966 256.458C65.8686 258.46 67.3946 260.238 69.5366 260.196C71.6786 260.238 73.2046 258.46 73.1766 256.458C73.2046 254.456 71.6786 252.678 69.5366 252.72C67.3946 252.678 65.8686 254.456 65.8966 256.458ZM71.9446 256.458C71.9446 257.228 71.7206 257.872 71.2726 258.362C70.8386 258.852 70.2506 259.104 69.5366 259.104C68.8226 259.104 68.2346 258.852 67.7866 258.362C67.3526 257.872 67.1286 257.228 67.1286 256.458C67.1286 255.688 67.3526 255.044 67.7866 254.554C68.2346 254.064 68.8226 253.812 69.5366 253.812C70.2506 253.812 70.8386 254.064 71.2726 254.554C71.7206 255.044 71.9446 255.688 71.9446 256.458ZM75.6149 260H76.7909V253.924H78.8629V252.916H76.7909V251.866C76.7909 251.012 77.1409 250.648 77.9669 250.648C78.2469 250.648 78.5549 250.676 78.8909 250.746V249.752C78.5269 249.668 78.1629 249.626 77.8129 249.626C76.3149 249.626 75.6149 250.312 75.6149 251.838V252.916H74.1589V253.924H75.6149V260ZM88.3205 252.916V256.934C88.3205 258.11 87.3965 258.908 86.1085 258.908C85.0025 258.908 84.4845 258.32 84.4845 256.976V252.916H83.3085V257.256C83.3085 259.034 84.2465 260 85.8285 260C86.9905 260 87.9145 259.496 88.3205 258.6V259.314C88.3205 261.036 87.4805 261.904 86.0105 261.904C85.1705 261.904 84.3585 261.61 83.7845 261.092L83.0985 261.932C83.7565 262.604 84.8485 262.996 86.0385 262.996C88.2225 262.996 89.4965 261.708 89.4965 259.314V252.916H88.3205ZM91.5177 256.458C91.4897 258.46 93.0157 260.238 95.1577 260.196C97.2997 260.238 98.8257 258.46 98.7977 256.458C98.8257 254.456 97.2997 252.678 95.1577 252.72C93.0157 252.678 91.4897 254.456 91.5177 256.458ZM97.5657 256.458C97.5657 257.228 97.3417 257.872 96.8937 258.362C96.4597 258.852 95.8717 259.104 95.1577 259.104C94.4437 259.104 93.8557 258.852 93.4077 258.362C92.9737 257.872 92.7497 257.228 92.7497 256.458C92.7497 255.688 92.9737 255.044 93.4077 254.554C93.8557 254.064 94.4437 253.812 95.1577 253.812C95.8717 253.812 96.4597 254.064 96.8937 254.554C97.3417 255.044 97.5657 255.688 97.5657 256.458ZM100.673 257.354C100.673 259.034 101.891 260.196 103.725 260.196C105.559 260.196 106.777 259.034 106.777 257.354V252.916H105.601V257.284C105.601 258.46 104.915 259.104 103.725 259.104C102.535 259.104 101.849 258.46 101.849 257.284V252.916H100.673V257.354ZM113.129 252.902C112.947 252.832 112.723 252.804 112.485 252.804C111.435 252.804 110.651 253.336 110.329 254.246V252.916H109.153V260H110.329V256.374C110.329 254.708 111.127 253.896 112.513 253.896C112.723 253.896 112.919 253.91 113.129 253.938V252.902ZM124.409 256.822C124.437 256.612 124.451 256.402 124.451 256.192C124.451 254.134 123.051 252.72 121.077 252.72C118.991 252.72 117.535 254.302 117.535 256.472C117.535 258.67 119.033 260.196 121.175 260.196C122.477 260.196 123.569 259.636 124.255 258.67L123.457 257.998C122.869 258.74 122.113 259.104 121.203 259.104C119.817 259.104 118.865 258.236 118.739 256.822H124.409ZM118.767 255.87C118.977 254.596 119.831 253.812 121.077 253.812C122.309 253.812 123.135 254.568 123.247 255.87H118.767ZM131.922 252.916V254.218C131.516 253.308 130.494 252.72 129.304 252.72C127.358 252.72 125.93 254.274 125.93 256.458C125.93 258.642 127.358 260.196 129.304 260.196C130.494 260.196 131.516 259.608 131.922 258.698V260H133.098V252.916H131.922ZM131.978 256.458C131.978 257.228 131.754 257.872 131.306 258.362C130.872 258.852 130.284 259.104 129.57 259.104C128.856 259.104 128.268 258.852 127.82 258.362C127.386 257.872 127.162 257.228 127.162 256.458C127.162 255.688 127.386 255.044 127.82 254.554C128.268 254.064 128.856 253.812 129.57 253.812C130.284 253.812 130.872 254.064 131.306 254.554C131.754 255.044 131.978 255.688 131.978 256.458ZM139.597 252.902C139.415 252.832 139.191 252.804 138.953 252.804C137.903 252.804 137.119 253.336 136.797 254.246V252.916H135.621V260H136.797V256.374C136.797 254.708 137.595 253.896 138.981 253.896C139.191 253.896 139.387 253.91 139.597 253.938V252.902ZM147.441 255.464C147.441 253.714 146.531 252.72 144.921 252.72C143.759 252.72 142.849 253.224 142.457 254.12V252.916H141.281V260H142.457V255.786C142.457 254.596 143.367 253.812 144.641 253.812C145.761 253.812 146.265 254.4 146.265 255.744V260H147.441V255.464ZM156.278 256.822C156.306 256.612 156.32 256.402 156.32 256.192C156.32 254.134 154.92 252.72 152.946 252.72C150.86 252.72 149.404 254.302 149.404 256.472C149.404 258.67 150.902 260.196 153.044 260.196C154.346 260.196 155.438 259.636 156.124 258.67L155.326 257.998C154.738 258.74 153.982 259.104 153.072 259.104C151.686 259.104 150.734 258.236 150.608 256.822H156.278ZM150.636 255.87C150.846 254.596 151.7 253.812 152.946 253.812C154.178 253.812 155.004 254.568 155.116 255.87H150.636ZM163.791 249.752V254.218C163.357 253.308 162.349 252.72 161.159 252.72C159.227 252.72 157.799 254.274 157.799 256.458C157.799 258.642 159.227 260.196 161.159 260.196C162.349 260.196 163.357 259.608 163.791 258.698V260H164.967V249.752H163.791ZM163.847 256.458C163.847 257.228 163.623 257.872 163.175 258.362C162.741 258.852 162.153 259.104 161.439 259.104C160.725 259.104 160.137 258.852 159.689 258.362C159.255 257.872 159.031 257.228 159.031 256.458C159.031 255.688 159.255 255.044 159.689 254.554C160.137 254.064 160.725 253.812 161.439 253.812C162.153 253.812 162.741 254.064 163.175 254.554C163.623 255.044 163.847 255.688 163.847 256.458ZM177.885 256.458C177.885 254.274 176.457 252.72 174.525 252.72C173.335 252.72 172.327 253.308 171.893 254.218V252.916H170.717V262.8H171.893V258.698C172.327 259.608 173.335 260.196 174.525 260.196C176.457 260.196 177.885 258.642 177.885 256.458ZM176.653 256.458C176.653 257.228 176.429 257.872 175.981 258.362C175.547 258.852 174.959 259.104 174.245 259.104C173.531 259.104 172.943 258.852 172.495 258.362C172.061 257.872 171.837 257.228 171.837 256.458C171.837 255.688 172.061 255.044 172.495 254.554C172.943 254.064 173.531 253.812 174.245 253.812C174.959 253.812 175.547 254.064 175.981 254.554C176.429 255.044 176.653 255.688 176.653 256.458ZM185.393 252.916V254.218C184.987 253.308 183.965 252.72 182.775 252.72C180.829 252.72 179.401 254.274 179.401 256.458C179.401 258.642 180.829 260.196 182.775 260.196C183.965 260.196 184.987 259.608 185.393 258.698V260H186.569V252.916H185.393ZM185.449 256.458C185.449 257.228 185.225 257.872 184.777 258.362C184.343 258.852 183.755 259.104 183.041 259.104C182.327 259.104 181.739 258.852 181.291 258.362C180.857 257.872 180.633 257.228 180.633 256.458C180.633 255.688 180.857 255.044 181.291 254.554C181.739 254.064 182.327 253.812 183.041 253.812C183.755 253.812 184.343 254.064 184.777 254.554C185.225 255.044 185.449 255.688 185.449 256.458ZM193.922 252.916V256.934C193.922 258.11 192.998 258.908 191.71 258.908C190.604 258.908 190.086 258.32 190.086 256.976V252.916H188.91V257.256C188.91 259.034 189.848 260 191.43 260C192.592 260 193.516 259.496 193.922 258.6V259.314C193.922 261.036 193.082 261.904 191.612 261.904C190.772 261.904 189.96 261.61 189.386 261.092L188.7 261.932C189.358 262.604 190.45 262.996 191.64 262.996C193.824 262.996 195.098 261.708 195.098 259.314V252.916H193.922ZM208.018 256.458C208.018 254.274 206.59 252.72 204.658 252.72C203.468 252.72 202.46 253.308 202.026 254.218V249.752H200.85V260H202.026V258.698C202.46 259.608 203.468 260.196 204.658 260.196C206.59 260.196 208.018 258.642 208.018 256.458ZM206.786 256.458C206.786 257.228 206.562 257.872 206.114 258.362C205.68 258.852 205.092 259.104 204.378 259.104C203.664 259.104 203.076 258.852 202.628 258.362C202.194 257.872 201.97 257.228 201.97 256.458C201.97 255.688 202.194 255.044 202.628 254.554C203.076 254.064 203.664 253.812 204.378 253.812C205.092 253.812 205.68 254.064 206.114 254.554C206.562 255.044 206.786 255.688 206.786 256.458ZM216.407 256.822C216.435 256.612 216.449 256.402 216.449 256.192C216.449 254.134 215.049 252.72 213.075 252.72C210.989 252.72 209.533 254.302 209.533 256.472C209.533 258.67 211.031 260.196 213.173 260.196C214.475 260.196 215.567 259.636 216.253 258.67L215.455 257.998C214.867 258.74 214.111 259.104 213.201 259.104C211.815 259.104 210.863 258.236 210.737 256.822H216.407ZM210.765 255.87C210.975 254.596 211.829 253.812 213.075 253.812C214.307 253.812 215.133 254.568 215.245 255.87H210.765ZM218.855 260H220.031V253.924H222.103V252.916H220.031V251.866C220.031 251.012 220.381 250.648 221.207 250.648C221.487 250.648 221.795 250.676 222.131 250.746V249.752C221.767 249.668 221.403 249.626 221.053 249.626C219.555 249.626 218.855 250.312 218.855 251.838V252.916H217.399V253.924H218.855V260ZM222.918 256.458C222.89 258.46 224.416 260.238 226.558 260.196C228.7 260.238 230.226 258.46 230.198 256.458C230.226 254.456 228.7 252.678 226.558 252.72C224.416 252.678 222.89 254.456 222.918 256.458ZM228.966 256.458C228.966 257.228 228.742 257.872 228.294 258.362C227.86 258.852 227.272 259.104 226.558 259.104C225.844 259.104 225.256 258.852 224.808 258.362C224.374 257.872 224.15 257.228 224.15 256.458C224.15 255.688 224.374 255.044 224.808 254.554C225.256 254.064 225.844 253.812 226.558 253.812C227.272 253.812 227.86 254.064 228.294 254.554C228.742 255.044 228.966 255.688 228.966 256.458ZM236.189 252.902C236.007 252.832 235.783 252.804 235.545 252.804C234.495 252.804 233.711 253.336 233.389 254.246V252.916H232.213V260H233.389V256.374C233.389 254.708 234.187 253.896 235.573 253.896C235.783 253.896 235.979 253.91 236.189 253.938V252.902ZM243.888 256.822C243.916 256.612 243.93 256.402 243.93 256.192C243.93 254.134 242.53 252.72 240.556 252.72C238.47 252.72 237.014 254.302 237.014 256.472C237.014 258.67 238.512 260.196 240.654 260.196C241.956 260.196 243.048 259.636 243.734 258.67L242.936 257.998C242.348 258.74 241.592 259.104 240.682 259.104C239.296 259.104 238.344 258.236 238.218 256.822H243.888ZM238.246 255.87C238.456 254.596 239.31 253.812 240.556 253.812C241.788 253.812 242.614 254.568 242.726 255.87H238.246ZM256.307 256.458C256.307 254.274 254.879 252.72 252.947 252.72C251.757 252.72 250.749 253.308 250.315 254.218V252.916H249.139V262.8H250.315V258.698C250.749 259.608 251.757 260.196 252.947 260.196C254.879 260.196 256.307 258.642 256.307 256.458ZM255.075 256.458C255.075 257.228 254.851 257.872 254.403 258.362C253.969 258.852 253.381 259.104 252.667 259.104C251.953 259.104 251.365 258.852 250.917 258.362C250.483 257.872 250.259 257.228 250.259 256.458C250.259 255.688 250.483 255.044 250.917 254.554C251.365 254.064 251.953 253.812 252.667 253.812C253.381 253.812 253.969 254.064 254.403 254.554C254.851 255.044 255.075 255.688 255.075 256.458ZM263.814 252.916V254.218C263.408 253.308 262.386 252.72 261.196 252.72C259.25 252.72 257.822 254.274 257.822 256.458C257.822 258.642 259.25 260.196 261.196 260.196C262.386 260.196 263.408 259.608 263.814 258.698V260H264.99V252.916H263.814ZM263.87 256.458C263.87 257.228 263.646 257.872 263.198 258.362C262.764 258.852 262.176 259.104 261.462 259.104C260.748 259.104 260.16 258.852 259.712 258.362C259.278 257.872 259.054 257.228 259.054 256.458C259.054 255.688 259.278 255.044 259.712 254.554C260.16 254.064 260.748 253.812 261.462 253.812C262.176 253.812 262.764 254.064 263.198 254.554C263.646 255.044 263.87 255.688 263.87 256.458ZM272.344 252.916V256.934C272.344 258.11 271.42 258.908 270.132 258.908C269.026 258.908 268.508 258.32 268.508 256.976V252.916H267.332V257.256C267.332 259.034 268.27 260 269.852 260C271.014 260 271.938 259.496 272.344 258.6V259.314C272.344 261.036 271.504 261.904 270.034 261.904C269.194 261.904 268.382 261.61 267.808 261.092L267.122 261.932C267.78 262.604 268.872 262.996 270.062 262.996C272.246 262.996 273.52 261.708 273.52 259.314V252.916H272.344ZM281.533 249.752V254.218C281.099 253.308 280.091 252.72 278.901 252.72C276.969 252.72 275.541 254.274 275.541 256.458C275.541 258.642 276.969 260.196 278.901 260.196C280.091 260.196 281.099 259.608 281.533 258.698V260H282.709V249.752H281.533ZM281.589 256.458C281.589 257.228 281.365 257.872 280.917 258.362C280.483 258.852 279.895 259.104 279.181 259.104C278.467 259.104 277.879 258.852 277.431 258.362C276.997 257.872 276.773 257.228 276.773 256.458C276.773 255.688 276.997 255.044 277.431 254.554C277.879 254.064 278.467 253.812 279.181 253.812C279.895 253.812 280.483 254.064 280.917 254.554C281.365 255.044 281.589 255.688 281.589 256.458ZM290.721 252.916V254.218C290.315 253.308 289.293 252.72 288.103 252.72C286.157 252.72 284.729 254.274 284.729 256.458C284.729 258.642 286.157 260.196 288.103 260.196C289.293 260.196 290.315 259.608 290.721 258.698V260H291.897V252.916H290.721ZM290.777 256.458C290.777 257.228 290.553 257.872 290.105 258.362C289.671 258.852 289.083 259.104 288.369 259.104C287.655 259.104 287.067 258.852 286.619 258.362C286.185 257.872 285.961 257.228 285.961 256.458C285.961 255.688 286.185 255.044 286.619 254.554C287.067 254.064 287.655 253.812 288.369 253.812C289.083 253.812 289.671 254.064 290.105 254.554C290.553 255.044 290.777 255.688 290.777 256.458ZM299.25 252.916V256.934C299.25 258.11 298.326 258.908 297.038 258.908C295.932 258.908 295.414 258.32 295.414 256.976V252.916H294.238V257.256C294.238 259.034 295.176 260 296.758 260C297.92 260 298.844 259.496 299.25 258.6V259.314C299.25 261.036 298.41 261.904 296.94 261.904C296.1 261.904 295.288 261.61 294.714 261.092L294.028 261.932C294.686 262.604 295.778 262.996 296.968 262.996C299.152 262.996 300.426 261.708 300.426 259.314V252.916H299.25ZM302.601 259.258C302.601 259.762 302.937 260.112 303.441 260.112C303.945 260.112 304.281 259.762 304.281 259.258C304.281 258.768 303.945 258.432 303.441 258.432C302.937 258.432 302.601 258.768 302.601 259.258Z" fill="#858585"/>
<defs>
<clipPath id="clip0_142_4850">
<rect width="72" height="72" fill="white" transform="translate(32 56)"/>
</clipPath>
</defs>
</svg>
