<svg width="364" height="319" viewBox="0 0 364 319" fill="none" xmlns="http://www.w3.org/2000/svg">
<rect width="364" height="319" rx="40" fill="#F2F5FA"/>
<g clip-path="url(#clip0_142_4851)">
<path d="M68 128C87.8823 128 104 111.882 104 92C104 72.1177 87.8823 56 68 56C48.1177 56 32 72.1177 32 92C32 111.882 48.1177 128 68 128Z" fill="#FC8900"/>
<path d="M103.933 94.206L93.1719 83.4444L79.1776 84.7692L63.5994 89.0637L46.0844 81.7377L43.6322 101.337L70.2276 127.932C88.3428 126.826 102.838 112.324 103.933 94.206Z" fill="#E67500"/>
<path d="M84.0855 79.5131C77.2256 79.5131 71.1329 84.5591 68 87.7445C64.9542 84.5366 59.0865 79.5131 51.9145 79.5131C45.0292 79.5131 39.4276 85.1147 39.4276 92C39.4276 98.8853 45.0291 104.487 51.9145 104.487C58.7745 104.487 64.8672 99.4409 68 96.2555C71.0458 99.4634 76.9137 104.487 84.0855 104.487C90.9708 104.487 96.5725 98.8853 96.5725 92C96.5725 85.1147 90.9708 79.5131 84.0855 79.5131ZM51.9145 98.8619C48.1308 98.8619 45.0526 95.7837 45.0526 92C45.0526 88.2163 48.1308 85.1381 51.9145 85.1381C55.6821 85.1381 59.1683 87.3692 61.4296 89.2408C62.5943 90.2048 63.5679 91.18 64.2922 91.9685C61.6097 94.7845 56.6865 98.8619 51.9145 98.8619ZM84.0855 98.8619C80.3179 98.8619 76.8317 96.6308 74.5704 94.7592C73.4058 93.7952 72.4321 92.82 71.7079 92.0315C74.3904 89.2156 79.3136 85.1382 84.0855 85.1382C87.8692 85.1382 90.9475 88.2165 90.9475 92.0001C90.9475 95.7838 87.8692 98.8619 84.0855 98.8619Z" fill="#4379D1"/>
<path d="M84.0855 79.5131C77.2255 79.5131 71.1328 84.5591 68 87.7445C67.9901 87.7343 68.0098 87.755 68 87.7445V96.2555C71.0638 99.4658 76.9624 104.487 84.0855 104.487C90.9708 104.487 96.5724 98.8853 96.5724 92C96.5724 85.1147 90.9708 79.5131 84.0855 79.5131ZM84.0855 98.8619C80.3179 98.8619 76.8316 96.6308 74.5704 94.7592C73.4057 93.7952 72.4321 92.82 71.7078 92.0315C74.3904 89.2156 79.3135 85.1382 84.0855 85.1382C87.8692 85.1382 90.9474 88.2165 90.9474 92.0001C90.9474 95.7838 87.8692 98.8619 84.0855 98.8619Z" fill="#1C468A"/>
</g>
<path d="M45.92 165.2L40.328 179.456L34.736 165.2H32.528L39.248 182H41.408L48.128 165.2H45.92ZM50.5813 165.92C50.5813 166.712 51.1813 167.312 51.9733 167.312C52.7653 167.312 53.3653 166.712 53.3653 165.92C53.3653 165.128 52.7653 164.528 51.9733 164.528C51.1813 164.528 50.5813 165.128 50.5813 165.92ZM50.9653 182H52.9813V169.856H50.9653V182ZM56.1643 179.696C57.1243 181.328 59.1163 182.336 61.5883 182.336C64.5643 182.336 66.3643 180.824 66.3643 178.52C66.3643 176.816 65.3323 175.736 62.9323 175.184L60.7963 174.704C59.1643 174.32 58.6123 173.864 58.6123 173.072C58.6123 171.992 59.5243 171.344 61.2523 171.344C62.7643 171.344 63.9883 171.848 64.7803 172.784L66.1723 171.584C65.1883 170.264 63.4843 169.52 61.3723 169.52C58.4203 169.52 56.5963 170.984 56.5963 173.12C56.5963 174.824 57.7963 175.928 60.2923 176.504L62.2122 176.936C63.7483 177.296 64.3483 177.8 64.3483 178.664C64.3483 179.792 63.2923 180.512 61.5643 180.512C59.9083 180.512 58.4923 179.864 57.6283 178.616L56.1643 179.696ZM69.2609 165.92C69.2609 166.712 69.8609 167.312 70.6529 167.312C71.4449 167.312 72.0449 166.712 72.0449 165.92C72.0449 165.128 71.4449 164.528 70.6529 164.528C69.8609 164.528 69.2609 165.128 69.2609 165.92ZM69.6449 182H71.6609V169.856H69.6449V182ZM88.2839 175.928C88.2839 172.184 85.8359 169.52 82.5239 169.52C80.4839 169.52 78.7559 170.528 78.0119 172.088V164.432H75.9959V182H78.0119V179.768C78.7559 181.328 80.4839 182.336 82.5239 182.336C85.8359 182.336 88.2839 179.672 88.2839 175.928ZM86.1719 175.928C86.1719 177.248 85.7879 178.352 85.0199 179.192C84.2759 180.032 83.2679 180.464 82.0439 180.464C80.8199 180.464 79.8119 180.032 79.0439 179.192C78.2999 178.352 77.9159 177.248 77.9159 175.928C77.9159 174.608 78.2999 173.504 79.0439 172.664C79.8119 171.824 80.8199 171.392 82.0439 171.392C83.2679 171.392 84.2759 171.824 85.0199 172.664C85.7879 173.504 86.1719 174.608 86.1719 175.928ZM91.3859 165.92C91.3859 166.712 91.9859 167.312 92.7779 167.312C93.5699 167.312 94.1699 166.712 94.1699 165.92C94.1699 165.128 93.5699 164.528 92.7779 164.528C91.9859 164.528 91.3859 165.128 91.3859 165.92ZM91.7699 182H93.7859V169.856H91.7699V182ZM98.1209 182H100.137V164.432H98.1209V182ZM104.089 165.92C104.089 166.712 104.689 167.312 105.481 167.312C106.273 167.312 106.873 166.712 106.873 165.92C106.873 165.128 106.273 164.528 105.481 164.528C104.689 164.528 104.089 165.128 104.089 165.92ZM104.473 182H106.489V169.856H104.473V182ZM111.712 178.88C111.712 181.064 113.008 182.192 115.408 182.192C116.176 182.192 116.896 182.096 117.592 181.88V180.2C116.896 180.344 116.248 180.416 115.696 180.416C114.328 180.416 113.728 179.912 113.728 178.736V171.584H117.544V169.856H113.728V166.256H111.712V169.856H109.288V171.584H111.712V178.88ZM128.948 169.856V176.744C128.948 178.76 127.364 180.128 125.156 180.128C123.26 180.128 122.372 179.12 122.372 176.816V169.856H120.356V177.296C120.356 180.344 121.964 182 124.676 182C126.668 182 128.252 181.136 128.948 179.6V180.824C128.948 183.776 127.508 185.264 124.988 185.264C123.548 185.264 122.156 184.76 121.172 183.872L119.996 185.312C121.124 186.464 122.996 187.136 125.036 187.136C128.78 187.136 130.964 184.928 130.964 180.824V169.856H128.948ZM154.168 182L151.36 178.784C152.104 177.512 152.608 175.904 152.896 173.96H150.976C150.808 175.208 150.496 176.312 150.016 177.272L146.608 173.36L147.496 172.856C149.416 171.728 150.352 170.288 150.352 168.68C150.352 166.448 148.504 164.864 145.984 164.864C143.416 164.864 141.568 166.592 141.568 168.752C141.568 170 142.168 171.128 143.704 172.88L143.728 172.904L143.536 173C141.136 174.368 140.08 175.904 140.08 177.728C140.08 180.344 142.36 182.336 145.456 182.336C147.352 182.336 148.936 181.64 150.256 180.272L151.768 182H154.168ZM144.976 171.512C144.04 170.456 143.584 169.52 143.584 168.728C143.584 167.576 144.568 166.688 145.984 166.688C147.352 166.688 148.384 167.528 148.384 168.872C148.384 169.832 147.832 170.648 146.608 171.344L145.432 172.016L144.976 171.512ZM148.96 178.856C147.976 179.912 146.728 180.464 145.408 180.464C143.488 180.464 142.192 179.36 142.192 177.656C142.192 176.408 142.888 175.4 144.712 174.344L144.904 174.248L148.96 178.856ZM165.787 182H167.899V167.168H173.515V165.2H160.171V167.168H165.787V182ZM181.437 169.832C181.125 169.712 180.741 169.664 180.333 169.664C178.533 169.664 177.189 170.576 176.637 172.136V169.856H174.621V182H176.637V175.784C176.637 172.928 178.005 171.536 180.381 171.536C180.741 171.536 181.077 171.56 181.437 171.608V169.832ZM193.123 169.856V172.088C192.427 170.528 190.675 169.52 188.635 169.52C185.299 169.52 182.851 172.184 182.851 175.928C182.851 179.672 185.299 182.336 188.635 182.336C190.675 182.336 192.427 181.328 193.123 179.768V182H195.139V169.856H193.123ZM193.219 175.928C193.219 177.248 192.835 178.352 192.067 179.192C191.323 180.032 190.315 180.464 189.091 180.464C187.867 180.464 186.859 180.032 186.091 179.192C185.347 178.352 184.963 177.248 184.963 175.928C184.963 174.608 185.347 173.504 186.091 172.664C186.859 171.824 187.867 171.392 189.091 171.392C190.315 171.392 191.323 171.824 192.067 172.664C192.835 173.504 193.219 174.608 193.219 175.928ZM210.025 174.224C210.025 171.224 208.465 169.52 205.705 169.52C203.713 169.52 202.153 170.384 201.481 171.92V169.856H199.465V182H201.481V174.776C201.481 172.736 203.041 171.392 205.225 171.392C207.145 171.392 208.009 172.4 208.009 174.704V182H210.025V174.224ZM213.102 179.696C214.062 181.328 216.054 182.336 218.526 182.336C221.502 182.336 223.302 180.824 223.302 178.52C223.302 176.816 222.27 175.736 219.87 175.184L217.734 174.704C216.102 174.32 215.55 173.864 215.55 173.072C215.55 171.992 216.462 171.344 218.19 171.344C219.702 171.344 220.926 171.848 221.718 172.784L223.11 171.584C222.126 170.264 220.422 169.52 218.31 169.52C215.358 169.52 213.534 170.984 213.534 173.12C213.534 174.824 214.734 175.928 217.23 176.504L219.15 176.936C220.686 177.296 221.286 177.8 221.286 178.664C221.286 179.792 220.23 180.512 218.502 180.512C216.846 180.512 215.43 179.864 214.566 178.616L213.102 179.696ZM238.846 175.928C238.846 172.184 236.398 169.52 233.086 169.52C231.046 169.52 229.318 170.528 228.574 172.088V169.856H226.558V186.8H228.574V179.768C229.318 181.328 231.046 182.336 233.086 182.336C236.398 182.336 238.846 179.672 238.846 175.928ZM236.734 175.928C236.734 177.248 236.35 178.352 235.582 179.192C234.838 180.032 233.83 180.464 232.606 180.464C231.382 180.464 230.374 180.032 229.606 179.192C228.862 178.352 228.478 177.248 228.478 175.928C228.478 174.608 228.862 173.504 229.606 172.664C230.374 171.824 231.382 171.392 232.606 171.392C233.83 171.392 234.838 171.824 235.582 172.664C236.35 173.504 236.734 174.608 236.734 175.928ZM251.716 169.856V172.088C251.02 170.528 249.268 169.52 247.228 169.52C243.892 169.52 241.444 172.184 241.444 175.928C241.444 179.672 243.892 182.336 247.228 182.336C249.268 182.336 251.02 181.328 251.716 179.768V182H253.732V169.856H251.716ZM251.812 175.928C251.812 177.248 251.428 178.352 250.66 179.192C249.916 180.032 248.908 180.464 247.684 180.464C246.46 180.464 245.452 180.032 244.684 179.192C243.94 178.352 243.556 177.248 243.556 175.928C243.556 174.608 243.94 173.504 244.684 172.664C245.452 171.824 246.46 171.392 247.684 171.392C248.908 171.392 249.916 171.824 250.66 172.664C251.428 173.504 251.812 174.608 251.812 175.928ZM264.874 169.832C264.562 169.712 264.178 169.664 263.77 169.664C261.97 169.664 260.626 170.576 260.074 172.136V169.856H258.058V182H260.074V175.784C260.074 172.928 261.442 171.536 263.818 171.536C264.178 171.536 264.514 171.56 264.874 171.608V169.832ZM278.072 176.552C278.12 176.192 278.144 175.832 278.144 175.472C278.144 171.944 275.744 169.52 272.36 169.52C268.784 169.52 266.288 172.232 266.288 175.952C266.288 179.72 268.856 182.336 272.528 182.336C274.76 182.336 276.632 181.376 277.808 179.72L276.44 178.568C275.432 179.84 274.136 180.464 272.576 180.464C270.2 180.464 268.568 178.976 268.352 176.552H278.072ZM268.4 174.92C268.76 172.736 270.224 171.392 272.36 171.392C274.472 171.392 275.888 172.688 276.08 174.92H268.4ZM292.103 174.224C292.103 171.224 290.543 169.52 287.783 169.52C285.791 169.52 284.231 170.384 283.559 171.92V169.856H281.543V182H283.559V174.776C283.559 172.736 285.119 171.392 287.303 171.392C289.223 171.392 290.087 172.4 290.087 174.704V182H292.103V174.224ZM295.468 175.928C295.468 179.624 298.012 182.336 301.708 182.336C303.94 182.336 305.764 181.4 306.796 179.696L305.212 178.592C304.468 179.816 303.244 180.464 301.732 180.464C300.508 180.464 299.5 180.056 298.732 179.216C297.964 178.376 297.58 177.296 297.58 175.928C297.58 174.56 297.964 173.48 298.732 172.64C299.5 171.8 300.508 171.392 301.732 171.392C303.244 171.392 304.468 172.04 305.212 173.264L306.796 172.16C305.764 170.456 303.94 169.52 301.708 169.52C298.012 169.52 295.468 172.232 295.468 175.928ZM318.088 169.856V176.744C318.088 178.76 316.504 180.128 314.296 180.128C312.4 180.128 311.512 179.12 311.512 176.816V169.856H309.496V177.296C309.496 180.344 311.104 182 313.816 182C315.808 182 317.392 181.136 318.088 179.6V180.824C318.088 183.776 316.648 185.264 314.128 185.264C312.688 185.264 311.296 184.76 310.312 183.872L309.136 185.312C310.264 186.464 312.136 187.136 314.176 187.136C317.92 187.136 320.104 184.928 320.104 180.824V169.856H318.088Z" fill="#1C468A"/>
<path d="M32.896 215.1C32.854 217.928 34.996 220.238 37.838 220.196C39.686 220.196 41.282 219.314 42.108 217.676L41.114 217.088C40.428 218.418 39.322 219.048 37.922 219.048C35.696 219.048 34.184 217.396 34.184 215.1C34.184 212.804 35.696 211.152 37.922 211.152C39.35 211.152 40.4 211.81 41.086 213.112L42.108 212.524C41.282 210.886 39.686 210.004 37.838 210.004C35.024 209.962 32.854 212.272 32.896 215.1ZM50.0567 215.464C50.0567 213.714 49.1467 212.72 47.5367 212.72C46.3747 212.72 45.4647 213.224 45.0727 214.12V209.752H43.8967V220H45.0727V215.786C45.0727 214.596 45.9827 213.812 47.2567 213.812C48.3767 213.812 48.8807 214.4 48.8807 215.744V220H50.0567V215.464ZM58.8937 216.822C58.9217 216.612 58.9357 216.402 58.9357 216.192C58.9357 214.134 57.5357 212.72 55.5617 212.72C53.4757 212.72 52.0197 214.302 52.0197 216.472C52.0197 218.67 53.5177 220.196 55.6597 220.196C56.9617 220.196 58.0537 219.636 58.7397 218.67L57.9417 217.998C57.3537 218.74 56.5977 219.104 55.6877 219.104C54.3017 219.104 53.3497 218.236 53.2237 216.822H58.8937ZM53.2517 215.87C53.4617 214.596 54.3157 213.812 55.5617 213.812C56.7937 213.812 57.6197 214.568 57.7317 215.87H53.2517ZM60.4142 216.458C60.4142 218.614 61.8982 220.196 64.0542 220.196C65.3562 220.196 66.4202 219.65 67.0222 218.656L66.0982 218.012C65.6642 218.726 64.9502 219.104 64.0682 219.104C63.3542 219.104 62.7662 218.866 62.3182 218.376C61.8702 217.886 61.6462 217.256 61.6462 216.458C61.6462 215.66 61.8702 215.03 62.3182 214.54C62.7662 214.05 63.3542 213.812 64.0682 213.812C64.9502 213.812 65.6642 214.19 66.0982 214.904L67.0222 214.26C66.4202 213.266 65.3562 212.72 64.0542 212.72C61.8982 212.72 60.4142 214.302 60.4142 216.458ZM73.6515 220H75.0235L72.0555 216.276L74.9675 212.916H73.5955L71.1315 215.758H69.9555V209.752H68.7795V220H69.9555V216.794H71.0895L73.6515 220ZM85.8907 215.464C85.8907 213.714 84.9807 212.72 83.3707 212.72C82.2087 212.72 81.2987 213.224 80.9067 214.12V209.752H79.7307V220H80.9067V215.786C80.9067 214.596 81.8167 213.812 83.0907 213.812C84.2107 213.812 84.7147 214.4 84.7147 215.744V220H85.8907V215.464ZM87.8537 216.458C87.8257 218.46 89.3517 220.238 91.4937 220.196C93.6357 220.238 95.1617 218.46 95.1337 216.458C95.1617 214.456 93.6357 212.678 91.4937 212.72C89.3517 212.678 87.8257 214.456 87.8537 216.458ZM93.9017 216.458C93.9017 217.228 93.6777 217.872 93.2297 218.362C92.7957 218.852 92.2077 219.104 91.4937 219.104C90.7797 219.104 90.1917 218.852 89.7437 218.362C89.3097 217.872 89.0857 217.228 89.0857 216.458C89.0857 215.688 89.3097 215.044 89.7437 214.554C90.1917 214.064 90.7797 213.812 91.4937 213.812C92.2077 213.812 92.7957 214.064 93.2297 214.554C93.6777 215.044 93.9017 215.688 93.9017 216.458ZM105.916 212.916L104.11 218.558L102.234 212.916H100.946L99.0696 218.558L97.2636 212.916H96.0736L98.3976 220H99.6856L101.59 214.26L103.494 220H104.782L107.106 212.916H105.916ZM122.404 215.436C122.404 213.7 121.55 212.72 119.982 212.72C118.792 212.72 117.854 213.294 117.476 214.19C117.14 213.238 116.356 212.72 115.278 212.72C114.2 212.72 113.332 213.224 112.94 214.106V212.916H111.764V220H112.94V215.786C112.94 214.596 113.78 213.812 114.998 213.812C116.048 213.812 116.496 214.386 116.496 215.716V220H117.672V215.786C117.672 214.596 118.512 213.812 119.73 213.812C120.78 213.812 121.228 214.386 121.228 215.716V220H122.404V215.436ZM124.722 217.354C124.722 219.034 125.94 220.196 127.774 220.196C129.608 220.196 130.826 219.034 130.826 217.354V212.916H129.65V217.284C129.65 218.46 128.964 219.104 127.774 219.104C126.584 219.104 125.898 218.46 125.898 217.284V212.916H124.722V217.354ZM132.697 216.458C132.697 218.614 134.181 220.196 136.337 220.196C137.639 220.196 138.703 219.65 139.305 218.656L138.381 218.012C137.947 218.726 137.233 219.104 136.351 219.104C135.637 219.104 135.049 218.866 134.601 218.376C134.153 217.886 133.929 217.256 133.929 216.458C133.929 215.66 134.153 215.03 134.601 214.54C135.049 214.05 135.637 213.812 136.351 213.812C137.233 213.812 137.947 214.19 138.381 214.904L139.305 214.26C138.703 213.266 137.639 212.72 136.337 212.72C134.181 212.72 132.697 214.302 132.697 216.458ZM147.223 215.464C147.223 213.714 146.313 212.72 144.703 212.72C143.541 212.72 142.631 213.224 142.239 214.12V209.752H141.063V220H142.239V215.786C142.239 214.596 143.149 213.812 144.423 213.812C145.543 213.812 146.047 214.4 146.047 215.744V220H147.223V215.464ZM157.746 212.916V216.934C157.746 218.11 156.822 218.908 155.534 218.908C154.428 218.908 153.91 218.32 153.91 216.976V212.916H152.734V217.256C152.734 219.034 153.672 220 155.254 220C156.416 220 157.34 219.496 157.746 218.6V219.314C157.746 221.036 156.906 221.904 155.436 221.904C154.596 221.904 153.784 221.61 153.21 221.092L152.524 221.932C153.182 222.604 154.274 222.996 155.464 222.996C157.648 222.996 158.922 221.708 158.922 219.314V212.916H157.746ZM160.944 216.458C160.916 218.46 162.442 220.238 164.584 220.196C166.726 220.238 168.252 218.46 168.224 216.458C168.252 214.456 166.726 212.678 164.584 212.72C162.442 212.678 160.916 214.456 160.944 216.458ZM166.992 216.458C166.992 217.228 166.768 217.872 166.32 218.362C165.886 218.852 165.298 219.104 164.584 219.104C163.87 219.104 163.282 218.852 162.834 218.362C162.4 217.872 162.176 217.228 162.176 216.458C162.176 215.688 162.4 215.044 162.834 214.554C163.282 214.064 163.87 213.812 164.584 213.812C165.298 213.812 165.886 214.064 166.32 214.554C166.768 215.044 166.992 215.688 166.992 216.458ZM170.099 217.354C170.099 219.034 171.317 220.196 173.151 220.196C174.985 220.196 176.203 219.034 176.203 217.354V212.916H175.027V217.284C175.027 218.46 174.341 219.104 173.151 219.104C171.961 219.104 171.275 218.46 171.275 217.284V212.916H170.099V217.354ZM187.965 215.464C187.965 213.714 187.055 212.72 185.445 212.72C184.283 212.72 183.373 213.224 182.981 214.12V209.752H181.805V220H182.981V215.786C182.981 214.596 183.891 213.812 185.165 213.812C186.285 213.812 186.789 214.4 186.789 215.744V220H187.965V215.464ZM195.92 212.916V214.218C195.514 213.308 194.492 212.72 193.302 212.72C191.356 212.72 189.928 214.274 189.928 216.458C189.928 218.642 191.356 220.196 193.302 220.196C194.492 220.196 195.514 219.608 195.92 218.698V220H197.096V212.916H195.92ZM195.976 216.458C195.976 217.228 195.752 217.872 195.304 218.362C194.87 218.852 194.282 219.104 193.568 219.104C192.854 219.104 192.266 218.852 191.818 218.362C191.384 217.872 191.16 217.228 191.16 216.458C191.16 215.688 191.384 215.044 191.818 214.554C192.266 214.064 192.854 213.812 193.568 213.812C194.282 213.812 194.87 214.064 195.304 214.554C195.752 215.044 195.976 215.688 195.976 216.458ZM204.379 212.916L202.125 218.712L199.871 212.916H198.611L201.495 220H202.755L205.639 212.916H204.379ZM213.318 216.822C213.346 216.612 213.36 216.402 213.36 216.192C213.36 214.134 211.96 212.72 209.986 212.72C207.9 212.72 206.444 214.302 206.444 216.472C206.444 218.67 207.942 220.196 210.084 220.196C211.386 220.196 212.478 219.636 213.164 218.67L212.366 217.998C211.778 218.74 211.022 219.104 210.112 219.104C208.726 219.104 207.774 218.236 207.648 216.822H213.318ZM207.676 215.87C207.886 214.596 208.74 213.812 209.986 213.812C211.218 213.812 212.044 214.568 212.156 215.87H207.676ZM224.057 212.916V214.218C223.651 213.308 222.629 212.72 221.439 212.72C219.493 212.72 218.065 214.274 218.065 216.458C218.065 218.642 219.493 220.196 221.439 220.196C222.629 220.196 223.651 219.608 224.057 218.698V220H225.233V212.916H224.057ZM224.113 216.458C224.113 217.228 223.889 217.872 223.441 218.362C223.007 218.852 222.419 219.104 221.705 219.104C220.991 219.104 220.403 218.852 219.955 218.362C219.521 217.872 219.297 217.228 219.297 216.458C219.297 215.688 219.521 215.044 219.955 214.554C220.403 214.064 220.991 213.812 221.705 213.812C222.419 213.812 223.007 214.064 223.441 214.554C223.889 215.044 224.113 215.688 224.113 216.458ZM232.516 212.916L230.262 218.712L228.008 212.916H226.748L229.632 220H230.892L233.776 212.916H232.516ZM240.572 212.916V214.218C240.166 213.308 239.144 212.72 237.954 212.72C236.008 212.72 234.58 214.274 234.58 216.458C234.58 218.642 236.008 220.196 237.954 220.196C239.144 220.196 240.166 219.608 240.572 218.698V220H241.748V212.916H240.572ZM240.628 216.458C240.628 217.228 240.404 217.872 239.956 218.362C239.522 218.852 238.934 219.104 238.22 219.104C237.506 219.104 236.918 218.852 236.47 218.362C236.036 217.872 235.812 217.228 235.812 216.458C235.812 215.688 236.036 215.044 236.47 214.554C236.918 214.064 237.506 213.812 238.22 213.812C238.934 213.812 239.522 214.064 239.956 214.554C240.404 215.044 240.628 215.688 240.628 216.458ZM244.062 210.62C244.062 211.082 244.412 211.432 244.874 211.432C245.336 211.432 245.686 211.082 245.686 210.62C245.686 210.158 245.336 209.808 244.874 209.808C244.412 209.808 244.062 210.158 244.062 210.62ZM244.286 220H245.462V212.916H244.286V220ZM247.99 220H249.166V209.752H247.99V220ZM257.17 212.916V214.218C256.764 213.308 255.742 212.72 254.552 212.72C252.606 212.72 251.178 214.274 251.178 216.458C251.178 218.642 252.606 220.196 254.552 220.196C255.742 220.196 256.764 219.608 257.17 218.698V220H258.346V212.916H257.17ZM257.226 216.458C257.226 217.228 257.002 217.872 256.554 218.362C256.12 218.852 255.532 219.104 254.818 219.104C254.104 219.104 253.516 218.852 253.068 218.362C252.634 217.872 252.41 217.228 252.41 216.458C252.41 215.688 252.634 215.044 253.068 214.554C253.516 214.064 254.104 213.812 254.818 213.812C255.532 213.812 256.12 214.064 256.554 214.554C257.002 215.044 257.226 215.688 257.226 216.458ZM268.037 216.458C268.037 214.274 266.609 212.72 264.677 212.72C263.487 212.72 262.479 213.308 262.045 214.218V209.752H260.869V220H262.045V218.698C262.479 219.608 263.487 220.196 264.677 220.196C266.609 220.196 268.037 218.642 268.037 216.458ZM266.805 216.458C266.805 217.228 266.581 217.872 266.133 218.362C265.699 218.852 265.111 219.104 264.397 219.104C263.683 219.104 263.095 218.852 262.647 218.362C262.213 217.872 261.989 217.228 261.989 216.458C261.989 215.688 262.213 215.044 262.647 214.554C263.095 214.064 263.683 213.812 264.397 213.812C265.111 213.812 265.699 214.064 266.133 214.554C266.581 215.044 266.805 215.688 266.805 216.458ZM270.057 220H271.233V209.752H270.057V220ZM280.118 216.822C280.146 216.612 280.16 216.402 280.16 216.192C280.16 214.134 278.76 212.72 276.786 212.72C274.7 212.72 273.244 214.302 273.244 216.472C273.244 218.67 274.742 220.196 276.884 220.196C278.186 220.196 279.278 219.636 279.964 218.67L279.166 217.998C278.578 218.74 277.822 219.104 276.912 219.104C275.526 219.104 274.574 218.236 274.448 216.822H280.118ZM274.476 215.87C274.686 214.596 275.54 213.812 276.786 213.812C278.018 213.812 278.844 214.568 278.956 215.87H274.476ZM38.748 232.916V234.218C38.342 233.308 37.32 232.72 36.13 232.72C34.184 232.72 32.756 234.274 32.756 236.458C32.756 238.642 34.184 240.196 36.13 240.196C37.32 240.196 38.342 239.608 38.748 238.698V240H39.924V232.916H38.748ZM38.804 236.458C38.804 237.228 38.58 237.872 38.132 238.362C37.698 238.852 37.11 239.104 36.396 239.104C35.682 239.104 35.094 238.852 34.646 238.362C34.212 237.872 33.988 237.228 33.988 236.458C33.988 235.688 34.212 235.044 34.646 234.554C35.094 234.064 35.682 233.812 36.396 233.812C37.11 233.812 37.698 234.064 38.132 234.554C38.58 235.044 38.804 235.688 38.804 236.458ZM48.6075 235.464C48.6075 233.714 47.6975 232.72 46.0875 232.72C44.9255 232.72 44.0155 233.224 43.6235 234.12V232.916H42.4475V240H43.6235V235.786C43.6235 234.596 44.5335 233.812 45.8075 233.812C46.9275 233.812 47.4315 234.4 47.4315 235.744V240H48.6075V235.464ZM55.9045 232.916V236.934C55.9045 238.11 54.9805 238.908 53.6925 238.908C52.5865 238.908 52.0685 238.32 52.0685 236.976V232.916H50.8925V237.256C50.8925 239.034 51.8305 240 53.4125 240C54.5745 240 55.4985 239.496 55.9045 238.6V239.314C55.9045 241.036 55.0645 241.904 53.5945 241.904C52.7545 241.904 51.9425 241.61 51.3685 241.092L50.6825 241.932C51.3405 242.604 52.4325 242.996 53.6225 242.996C55.8065 242.996 57.0805 241.708 57.0805 239.314V232.916H55.9045ZM60.1237 238.18C60.1237 239.454 60.8797 240.112 62.2797 240.112C62.7277 240.112 63.1477 240.056 63.5537 239.93V238.95C63.1477 239.034 62.7697 239.076 62.4477 239.076C61.6497 239.076 61.2997 238.782 61.2997 238.096V233.924H63.5257V232.916H61.2997V230.816H60.1237V232.916H58.7097V233.924H60.1237V238.18ZM65.1379 230.62C65.1379 231.082 65.4879 231.432 65.9499 231.432C66.4119 231.432 66.7619 231.082 66.7619 230.62C66.7619 230.158 66.4119 229.808 65.9499 229.808C65.4879 229.808 65.1379 230.158 65.1379 230.62ZM65.3619 240H66.5379V232.916H65.3619V240ZM79.7066 235.436C79.7066 233.7 78.8526 232.72 77.2846 232.72C76.0946 232.72 75.1566 233.294 74.7786 234.19C74.4426 233.238 73.6586 232.72 72.5806 232.72C71.5026 232.72 70.6346 233.224 70.2426 234.106V232.916H69.0666V240H70.2426V235.786C70.2426 234.596 71.0826 233.812 72.3006 233.812C73.3506 233.812 73.7986 234.386 73.7986 235.716V240H74.9746V235.786C74.9746 234.596 75.8146 233.812 77.0326 233.812C78.0826 233.812 78.5306 234.386 78.5306 235.716V240H79.7066V235.436ZM88.5343 236.822C88.5623 236.612 88.5763 236.402 88.5763 236.192C88.5763 234.134 87.1763 232.72 85.2023 232.72C83.1163 232.72 81.6603 234.302 81.6603 236.472C81.6603 238.67 83.1583 240.196 85.3003 240.196C86.6023 240.196 87.6943 239.636 88.3803 238.67L87.5823 237.998C86.9943 238.74 86.2383 239.104 85.3283 239.104C83.9423 239.104 82.9903 238.236 82.8643 236.822H88.5343ZM82.8923 235.87C83.1023 234.596 83.9563 233.812 85.2023 233.812C86.4343 233.812 87.2603 234.568 87.3723 235.87H82.8923ZM89.7921 242.086H90.7161L91.6961 238.306H90.4641L89.7921 242.086ZM102.514 232.916V234.218C102.108 233.308 101.086 232.72 99.8956 232.72C97.9496 232.72 96.5216 234.274 96.5216 236.458C96.5216 238.642 97.9496 240.196 99.8956 240.196C101.086 240.196 102.108 239.608 102.514 238.698V240H103.69V232.916H102.514ZM102.57 236.458C102.57 237.228 102.346 237.872 101.898 238.362C101.464 238.852 100.876 239.104 100.162 239.104C99.4476 239.104 98.8596 238.852 98.4116 238.362C97.9776 237.872 97.7536 237.228 97.7536 236.458C97.7536 235.688 97.9776 235.044 98.4116 234.554C98.8596 234.064 99.4476 233.812 100.162 233.812C100.876 233.812 101.464 234.064 101.898 234.554C102.346 235.044 102.57 235.688 102.57 236.458ZM112.373 235.464C112.373 233.714 111.463 232.72 109.853 232.72C108.691 232.72 107.781 233.224 107.389 234.12V232.916H106.213V240H107.389V235.786C107.389 234.596 108.299 233.812 109.573 233.812C110.693 233.812 111.197 234.4 111.197 235.744V240H112.373V235.464ZM119.67 232.916V236.934C119.67 238.11 118.746 238.908 117.458 238.908C116.352 238.908 115.834 238.32 115.834 236.976V232.916H114.658V237.256C114.658 239.034 115.596 240 117.178 240C118.34 240 119.264 239.496 119.67 238.6V239.314C119.67 241.036 118.83 241.904 117.36 241.904C116.52 241.904 115.708 241.61 115.134 241.092L114.448 241.932C115.106 242.604 116.198 242.996 117.388 242.996C119.572 242.996 120.846 241.708 120.846 239.314V232.916H119.67ZM132.261 232.916L130.455 238.558L128.579 232.916H127.291L125.415 238.558L123.609 232.916H122.419L124.743 240H126.031L127.935 234.26L129.839 240H131.127L133.451 232.916H132.261ZM141.18 235.464C141.18 233.714 140.27 232.72 138.66 232.72C137.498 232.72 136.588 233.224 136.196 234.12V229.752H135.02V240H136.196V235.786C136.196 234.596 137.106 233.812 138.38 233.812C139.5 233.812 140.004 234.4 140.004 235.744V240H141.18V235.464ZM150.017 236.822C150.045 236.612 150.059 236.402 150.059 236.192C150.059 234.134 148.659 232.72 146.685 232.72C144.599 232.72 143.143 234.302 143.143 236.472C143.143 238.67 144.641 240.196 146.783 240.196C148.085 240.196 149.177 239.636 149.863 238.67L149.065 237.998C148.477 238.74 147.721 239.104 146.811 239.104C145.425 239.104 144.473 238.236 144.347 236.822H150.017ZM144.375 235.87C144.585 234.596 145.439 233.812 146.685 233.812C147.917 233.812 148.743 234.568 148.855 235.87H144.375ZM156.017 232.902C155.835 232.832 155.611 232.804 155.373 232.804C154.323 232.804 153.539 233.336 153.217 234.246V232.916H152.041V240H153.217V236.374C153.217 234.708 154.015 233.896 155.401 233.896C155.611 233.896 155.807 233.91 156.017 233.938V232.902ZM163.716 236.822C163.744 236.612 163.758 236.402 163.758 236.192C163.758 234.134 162.358 232.72 160.384 232.72C158.298 232.72 156.842 234.302 156.842 236.472C156.842 238.67 158.34 240.196 160.482 240.196C161.784 240.196 162.876 239.636 163.562 238.67L162.764 237.998C162.176 238.74 161.42 239.104 160.51 239.104C159.124 239.104 158.172 238.236 158.046 236.822H163.716ZM158.074 235.87C158.284 234.596 159.138 233.812 160.384 233.812C161.616 233.812 162.442 234.568 162.554 235.87H158.074ZM165.035 239.258C165.035 239.762 165.371 240.112 165.875 240.112C166.379 240.112 166.715 239.762 166.715 239.258C166.715 238.768 166.379 238.432 165.875 238.432C165.371 238.432 165.035 238.768 165.035 239.258Z" fill="#858585"/>
<defs>
<clipPath id="clip0_142_4851">
<rect width="72" height="72" fill="white" transform="translate(32 56)"/>
</clipPath>
</defs>
</svg>
