<svg width="21" height="21" viewBox="0 0 21 21" fill="none" xmlns="http://www.w3.org/2000/svg">
<path d="M4.68185 10.2128C4.68185 9.56414 4.78958 8.9423 4.98185 8.35903L1.6164 5.78905C0.960488 7.12079 0.590942 8.62139 0.590942 10.2128C0.590942 11.8028 0.960033 13.3025 1.61503 14.6333L4.97867 12.0583C4.78822 11.4778 4.68185 10.8582 4.68185 10.2128Z" fill="#FBBC05"/>
<path d="M10.591 4.31206C12.0001 4.31206 13.2728 4.81135 14.2728 5.62837L17.1819 2.72341C15.4092 1.18014 13.1365 0.226952 10.591 0.226952C6.63918 0.226952 3.24282 2.48692 1.61646 5.78905L4.98191 8.35904C5.75736 6.00511 7.96782 4.31206 10.591 4.31206Z" fill="#EB4335"/>
<path d="M10.591 16.1135C7.96782 16.1135 5.75736 14.4204 4.98191 12.0665L1.61646 14.636C3.24282 17.9386 6.63918 20.1986 10.591 20.1986C13.0301 20.1986 15.3587 19.3325 17.1065 17.7098L13.9119 15.2402C13.0105 15.808 11.8755 16.1135 10.591 16.1135Z" fill="#34A853"/>
<path d="M20.1364 10.2128C20.1364 9.6227 20.0455 8.98723 19.9091 8.39716H10.5909V12.2553H15.9546C15.6864 13.5707 14.9564 14.582 13.9119 15.2402L17.1064 17.7098C18.9423 16.0059 20.1364 13.4677 20.1364 10.2128Z" fill="#4285F4"/>
</svg>
